{"glyphs":{"0":{"ha":806,"x_min":42,"x_max":764,"o":"m 764 497 q 736 271 764 367 q 659 113 708 176 q 544 20 610 51 q 402 -10 478 -10 q 260 20 326 -10 q 146 113 194 51 q 69 271 97 176 q 42 497 42 367 q 69 724 42 628 q 146 882 97 819 q 260 976 194 945 q 402 1006 326 1006 q 544 976 478 1006 q 659 882 610 945 q 736 724 708 819 q 764 497 764 628 m 635 497 q 616 689 635 611 q 565 813 597 766 q 490 881 533 860 q 402 901 448 901 q 314 881 356 901 q 240 813 272 860 q 189 689 208 766 q 169 497 169 611 q 189 306 169 383 q 240 182 208 229 q 314 114 272 135 q 402 94 356 94 q 490 114 448 94 q 565 182 533 135 q 616 306 597 229 q 635 497 635 383 z "},"1":{"ha":806,"x_min":114,"x_max":707,"o":"m 707 94 l 707 0 l 174 0 l 174 94 l 387 94 l 387 773 q 389 835 387 803 l 212 683 q 194 673 203 675 q 177 673 185 672 q 163 678 169 674 q 153 688 156 683 l 114 741 l 410 997 l 511 997 l 511 94 l 707 94 z "},"2":{"ha":806,"x_min":65,"x_max":729,"o":"m 685 117 q 717 106 706 117 q 729 75 729 94 l 729 0 l 65 0 l 65 42 q 71 69 65 56 q 88 95 76 83 l 407 415 q 479 493 447 456 q 535 567 512 530 q 570 643 558 605 q 583 726 583 682 q 569 802 583 769 q 531 857 555 835 q 474 889 507 878 q 404 900 442 900 q 334 889 366 900 q 277 858 302 878 q 236 811 253 838 q 213 751 219 784 q 190 719 204 727 q 150 715 176 711 l 85 726 q 123 846 95 794 q 194 934 151 899 q 292 988 237 969 q 410 1006 347 1006 q 528 988 474 1006 q 624 933 583 969 q 687 846 664 897 q 710 729 710 794 q 693 626 710 674 q 648 535 676 578 q 582 451 619 492 q 503 369 545 410 l 241 101 q 297 113 269 108 q 352 117 326 117 l 685 117 z "},"3":{"ha":806,"x_min":60,"x_max":728,"o":"m 90 726 q 128 846 100 794 q 198 934 156 899 q 296 988 241 969 q 415 1006 351 1006 q 532 988 478 1006 q 624 937 585 970 q 684 856 663 903 q 706 751 706 809 q 693 667 706 704 q 659 602 681 630 q 604 555 636 574 q 533 523 572 535 q 679 437 630 498 q 728 285 728 376 q 702 162 728 217 q 631 68 676 107 q 525 9 585 30 q 397 -11 465 -11 q 261 9 317 -11 q 166 63 205 28 q 102 145 127 98 q 60 249 77 193 l 113 271 q 154 276 134 280 q 183 253 174 272 q 205 206 192 233 q 242 154 219 179 q 302 112 266 129 q 395 94 339 94 q 486 111 447 94 q 552 156 526 128 q 591 216 578 183 q 604 282 604 249 q 594 356 604 322 q 555 413 583 389 q 477 451 526 438 q 349 465 427 465 l 349 555 q 458 569 413 556 q 531 605 503 582 q 572 660 559 628 q 585 731 585 692 q 571 806 585 774 q 534 858 558 838 q 478 890 510 879 q 408 900 446 900 q 339 889 371 900 q 282 858 306 878 q 240 811 257 838 q 217 751 224 784 q 194 719 208 727 q 155 715 181 711 l 90 726 z "},"4":{"ha":806,"x_min":16,"x_max":766,"o":"m 507 359 l 507 769 q 508 809 507 788 q 513 853 510 831 l 150 359 l 507 359 m 766 359 l 766 288 q 759 269 766 277 q 739 262 753 262 l 615 262 l 615 0 l 507 0 l 507 262 l 65 262 q 41 270 51 262 q 28 290 31 278 l 16 353 l 500 995 l 615 995 l 615 359 l 766 359 z "},"5":{"ha":806,"x_min":78,"x_max":713,"o":"m 251 619 q 394 636 329 636 q 532 613 472 636 q 632 550 592 590 q 692 455 672 510 q 713 335 713 400 q 685 192 713 256 q 609 83 658 128 q 496 13 561 38 q 355 -11 431 -11 q 271 -2 311 -11 q 195 21 231 6 q 131 54 160 35 q 78 94 101 73 l 116 147 q 149 165 128 165 q 180 154 163 165 q 222 130 197 143 q 281 106 247 117 q 361 95 315 95 q 455 112 413 95 q 526 159 497 128 q 572 233 556 190 q 588 330 588 276 q 575 414 588 376 q 534 478 561 451 q 465 519 506 504 q 369 533 424 533 q 291 527 332 533 q 208 507 251 521 l 131 530 l 210 995 l 682 995 l 682 941 q 666 898 682 915 q 610 881 649 881 l 297 881 l 251 619 z "},"6":{"ha":806,"x_min":75,"x_max":745,"o":"m 401 92 q 492 108 451 92 q 561 152 533 124 q 606 219 590 181 q 622 304 622 258 q 606 392 622 353 q 563 459 591 431 q 496 501 535 486 q 410 515 457 515 q 320 498 360 515 q 252 452 280 481 q 209 386 224 424 q 194 307 194 348 q 208 219 194 259 q 248 151 222 180 q 314 107 275 123 q 401 92 352 92 m 329 622 q 304 590 316 606 q 281 559 292 574 q 358 597 316 583 q 451 610 401 610 q 565 590 511 610 q 658 532 618 570 q 722 439 698 494 q 745 313 745 384 q 720 185 745 244 q 650 83 695 126 q 543 14 606 39 q 404 -11 480 -11 q 268 13 329 -11 q 164 81 207 37 q 98 188 122 125 q 75 328 75 251 q 104 468 75 394 q 196 626 133 542 l 449 965 q 475 986 458 978 q 515 995 492 995 l 624 995 l 329 622 z "},"7":{"ha":806,"x_min":75,"x_max":751,"o":"m 751 995 l 751 940 q 745 901 751 916 q 735 875 740 885 l 323 44 q 298 13 314 26 q 256 0 282 0 l 167 0 l 585 821 q 603 853 594 838 q 624 881 613 867 l 105 881 q 84 890 93 881 q 75 911 75 899 l 75 995 l 751 995 z "},"8":{"ha":806,"x_min":67,"x_max":738,"o":"m 403 88 q 490 101 451 88 q 555 139 528 115 q 596 198 582 164 q 610 274 610 233 q 593 362 610 326 q 548 422 576 399 q 481 455 519 444 q 403 466 444 466 q 324 455 362 466 q 258 422 287 444 q 212 362 229 399 q 195 274 195 326 q 209 198 195 233 q 250 139 224 164 q 316 101 277 115 q 403 88 354 88 m 403 910 q 325 897 358 910 q 268 861 291 884 q 234 808 246 838 q 223 742 223 777 q 233 676 223 708 q 264 620 242 644 q 320 580 285 595 q 403 565 354 565 q 486 580 451 565 q 542 620 520 595 q 573 676 563 644 q 583 742 583 708 q 571 808 583 777 q 537 861 560 838 q 481 897 515 884 q 403 910 447 910 m 545 519 q 688 431 638 492 q 738 272 738 369 q 714 155 738 207 q 645 65 689 102 q 539 9 601 28 q 403 -11 477 -11 q 267 9 328 -11 q 160 65 205 28 q 92 155 116 102 q 67 272 67 207 q 117 431 67 369 q 260 519 167 492 q 142 606 182 548 q 102 744 102 664 q 124 847 102 799 q 185 931 145 895 q 280 986 224 966 q 403 1006 335 1006 q 526 986 470 1006 q 621 931 581 966 q 682 847 660 895 q 703 744 703 799 q 664 606 703 664 q 545 519 624 548 z "},"9":{"ha":806,"x_min":73,"x_max":719,"o":"m 197 703 q 210 618 197 656 q 249 556 224 581 q 311 517 274 530 q 392 503 347 503 q 481 520 442 503 q 546 563 519 536 q 586 626 572 590 q 600 699 600 661 q 585 784 600 746 q 544 848 570 822 q 481 889 517 874 q 401 903 444 903 q 317 888 355 903 q 253 847 280 873 q 211 783 226 820 q 197 703 197 747 m 485 397 q 514 435 501 417 q 539 471 527 453 q 453 424 501 440 q 351 408 405 408 q 245 427 295 408 q 156 482 194 446 q 95 572 118 519 q 73 694 73 625 q 97 816 73 759 q 165 915 122 873 q 269 982 209 958 q 402 1006 330 1006 q 532 983 474 1006 q 632 917 590 959 q 696 815 674 874 q 719 685 719 756 q 711 603 719 642 q 688 527 703 565 q 651 454 673 490 q 603 379 630 417 l 360 29 q 335 8 351 16 q 297 0 318 0 l 183 0 l 485 397 z "},"\u0000":{"ha":0,"x_min":0,"x_max":0,"o":""}," ":{"ha":356,"x_min":0,"x_max":0,"o":""},"A":{"ha":940,"x_min":4,"x_max":936,"o":"m 656 369 l 499 774 q 485 816 492 792 q 470 867 477 840 q 440 774 456 811 l 284 369 l 656 369 m 936 0 l 832 0 q 803 9 814 0 q 786 32 792 18 l 693 272 l 247 272 l 153 32 q 138 10 149 19 q 108 0 126 0 l 4 0 l 402 995 l 538 995 l 936 0 z "},"Ą":{"ha":939,"x_min":3,"x_max":987,"o":"m 655 369 l 499 774 q 484 816 492 792 q 469 867 476 840 q 440 774 455 811 l 283 369 l 655 369 m 987 -201 q 934 -227 966 -217 q 866 -237 901 -237 q 770 -210 805 -237 q 735 -137 735 -183 q 762 -62 735 -97 q 831 0 790 -26 q 802 9 813 0 q 785 32 791 18 l 692 272 l 246 272 l 153 32 q 137 10 149 19 q 108 0 125 0 l 3 0 l 401 995 l 538 995 l 935 0 l 910 0 q 882 -18 897 -8 q 856 -43 867 -29 q 836 -73 844 -56 q 828 -107 828 -89 q 845 -148 828 -133 q 892 -163 863 -163 q 918 -161 908 -163 q 935 -155 928 -158 q 947 -149 942 -152 q 955 -147 951 -147 q 963 -149 960 -147 q 967 -156 966 -152 l 987 -201 z "},"Æ":{"ha":1292,"x_min":-4,"x_max":1231,"o":"m 649 369 l 583 894 q 564 841 574 865 q 544 794 554 817 l 324 369 l 649 369 m 1231 110 l 1231 0 l 694 0 l 660 272 l 274 272 l 149 31 q 129 9 142 17 q 98 0 116 0 l -4 0 l 521 995 l 1231 995 l 1231 885 l 711 885 l 752 555 l 1140 555 l 1140 449 l 765 449 l 807 110 l 1231 110 z "},"B":{"ha":898,"x_min":127,"x_max":828,"o":"m 476 107 q 576 120 534 107 q 644 157 617 133 q 683 214 671 181 q 696 287 696 247 q 641 409 696 364 q 476 453 586 453 l 261 453 l 261 107 l 476 107 m 261 889 l 261 549 l 439 549 q 538 562 496 549 q 607 597 580 574 q 648 650 635 619 q 661 719 661 682 q 608 848 661 808 q 444 889 556 889 l 261 889 m 444 995 q 602 977 536 995 q 711 926 669 959 q 774 844 754 892 q 794 735 794 796 q 783 665 794 699 q 749 602 772 631 q 691 550 726 573 q 608 512 656 526 q 773 434 718 491 q 828 283 828 376 q 805 168 828 220 q 737 78 782 116 q 627 20 692 41 q 478 0 562 0 l 127 0 l 127 995 l 444 995 z "},"C":{"ha":928,"x_min":66,"x_max":899,"o":"m 826 206 q 845 197 837 206 l 899 139 q 750 28 838 68 q 540 -11 663 -11 q 345 26 433 -11 q 196 130 258 63 q 100 291 134 197 q 66 497 66 385 q 101 703 66 610 q 201 865 137 797 q 355 969 265 932 q 553 1006 444 1006 q 740 972 659 1006 q 883 880 822 938 l 839 818 q 828 807 835 811 q 810 802 822 802 q 780 816 798 802 q 733 846 762 829 q 660 876 703 863 q 552 890 616 890 q 411 863 475 890 q 301 785 347 836 q 229 662 255 735 q 203 497 203 589 q 230 331 203 404 q 303 208 257 258 q 412 131 349 158 q 548 105 475 105 q 628 110 592 105 q 694 126 664 115 q 750 155 724 138 q 802 195 776 172 q 826 206 814 206 z "},"Ç":{"ha":928,"x_min":66,"x_max":899,"o":"m 899 139 q 763 34 842 73 q 574 -10 684 -5 l 563 -52 q 656 -90 627 -65 q 684 -151 684 -114 q 673 -192 684 -174 q 642 -222 662 -210 q 594 -241 622 -235 q 533 -248 567 -248 q 479 -242 505 -248 q 432 -226 453 -236 l 444 -188 q 460 -176 448 -176 q 469 -178 464 -176 q 483 -184 475 -181 q 502 -189 491 -187 q 527 -192 513 -192 q 571 -180 556 -192 q 586 -150 586 -168 q 557 -113 586 -124 q 474 -95 528 -102 l 503 -10 q 323 36 403 -3 q 185 142 242 76 q 97 299 128 209 q 66 497 66 390 q 101 703 66 610 q 201 865 137 797 q 355 969 265 932 q 553 1006 444 1006 q 740 972 659 1006 q 883 880 822 938 l 839 818 q 828 807 835 811 q 810 802 822 802 q 780 816 798 802 q 733 846 762 829 q 660 876 703 863 q 552 890 616 890 q 411 863 475 890 q 301 785 347 836 q 229 662 255 735 q 203 497 203 589 q 230 331 203 404 q 303 208 257 258 q 412 131 349 158 q 548 105 475 105 q 628 110 592 105 q 694 126 664 115 q 750 155 724 138 q 802 195 776 172 q 826 206 814 206 q 845 197 837 206 l 899 139 z "},"D":{"ha":1056,"x_min":127,"x_max":990,"o":"m 990 497 q 954 294 990 385 q 854 137 919 202 q 699 36 790 72 q 499 0 608 0 l 127 0 l 127 995 l 499 995 q 699 959 608 995 q 854 858 790 924 q 954 701 919 792 q 990 497 990 609 m 851 497 q 826 661 851 589 q 756 783 801 733 q 644 860 710 833 q 499 886 579 886 l 262 886 l 262 109 l 499 109 q 644 135 579 109 q 756 211 710 162 q 826 333 801 261 q 851 497 851 406 z "},"Ð":{"ha":1067,"x_min":2,"x_max":1001,"o":"m 510 109 q 656 135 590 109 q 767 211 721 162 q 838 333 813 261 q 863 497 863 406 q 838 661 863 589 q 767 783 813 733 q 656 860 721 833 q 510 886 590 886 l 274 886 l 274 542 l 475 542 l 475 463 l 274 463 l 274 109 l 510 109 m 510 995 q 710 959 620 995 q 865 858 801 924 q 965 701 930 792 q 1001 497 1001 609 q 965 294 1001 385 q 865 137 930 202 q 710 36 801 72 q 510 0 620 0 l 138 0 l 138 463 l 2 463 l 2 542 l 138 542 l 138 995 l 510 995 z "},"E":{"ha":802,"x_min":127,"x_max":741,"o":"m 741 110 l 740 0 l 127 0 l 127 995 l 740 995 l 740 885 l 262 885 l 262 555 l 649 555 l 649 449 l 262 449 l 262 110 l 741 110 z "},"Ę":{"ha":802,"x_min":127,"x_max":753,"o":"m 753 -201 q 700 -227 733 -217 q 633 -237 668 -237 q 536 -210 572 -237 q 501 -137 501 -183 q 529 -62 501 -97 q 598 0 556 -26 l 127 0 l 127 995 l 740 995 l 740 885 l 262 885 l 262 555 l 649 555 l 649 449 l 262 449 l 262 110 l 741 110 l 740 0 l 677 0 q 649 -18 663 -8 q 622 -43 634 -29 q 603 -73 610 -56 q 595 -107 595 -89 q 612 -148 595 -133 q 658 -163 629 -163 q 685 -161 674 -163 q 702 -155 695 -158 q 714 -149 709 -152 q 722 -147 718 -147 q 730 -149 726 -147 q 734 -156 733 -152 l 753 -201 z "},"F":{"ha":785,"x_min":127,"x_max":740,"o":"m 262 885 l 262 538 l 671 538 l 671 428 l 262 428 l 262 0 l 127 0 l 127 995 l 740 995 l 740 885 l 262 885 z "},"G":{"ha":1015,"x_min":65,"x_max":935,"o":"m 935 478 l 935 97 q 775 16 860 42 q 589 -11 690 -11 q 372 26 469 -11 q 207 130 276 63 q 102 291 139 197 q 65 497 65 385 q 101 705 65 611 q 203 866 137 799 q 363 969 269 933 q 574 1006 458 1006 q 684 998 633 1006 q 778 973 735 989 q 858 933 821 956 q 926 881 894 910 l 888 819 q 865 802 879 806 q 833 808 851 798 q 795 832 817 818 q 743 859 774 846 q 670 881 712 872 q 570 890 628 890 q 418 862 486 890 q 302 784 350 835 q 228 660 254 733 q 203 497 203 588 q 230 330 203 403 q 306 204 256 256 q 426 125 356 152 q 585 98 497 98 q 709 114 655 98 q 814 157 763 129 l 814 376 l 659 376 q 638 383 646 376 q 630 402 630 391 l 630 478 l 935 478 z "},"H":{"ha":1060,"x_min":127,"x_max":933,"o":"m 933 995 l 933 0 l 799 0 l 799 453 l 262 453 l 262 0 l 127 0 l 127 995 l 262 995 l 262 551 l 799 551 l 799 995 l 933 995 z "},"Ħ":{"ha":1071,"x_min":19,"x_max":1052,"o":"m 803 721 l 267 721 l 267 551 l 803 551 l 803 721 m 1052 721 l 938 721 l 938 0 l 803 0 l 803 453 l 267 453 l 267 0 l 132 0 l 132 721 l 19 721 l 19 801 l 132 801 l 132 995 l 267 995 l 267 801 l 803 801 l 803 995 l 938 995 l 938 801 l 1052 801 l 1052 721 z "},"I":{"ha":389,"x_min":127,"x_max":262,"o":"m 262 0 l 127 0 l 127 995 l 262 995 l 262 0 z "},"Į":{"ha":390,"x_min":68,"x_max":320,"o":"m 320 -201 q 267 -227 299 -217 q 199 -237 235 -237 q 103 -210 138 -237 q 68 -137 68 -183 q 95 -62 68 -97 q 165 0 123 -26 l 128 0 l 128 995 l 263 995 l 263 0 l 244 0 q 215 -18 230 -8 q 189 -43 201 -29 q 169 -73 177 -56 q 162 -107 162 -89 q 179 -148 162 -133 q 225 -163 196 -163 q 251 -161 241 -163 q 269 -155 262 -158 q 280 -149 276 -152 q 288 -147 285 -147 q 296 -149 293 -147 q 301 -156 299 -152 l 320 -201 z "},"J":{"ha":587,"x_min":17,"x_max":470,"o":"m 470 344 q 450 194 470 260 q 389 83 429 128 q 291 13 349 38 q 157 -11 233 -11 q 17 8 88 -11 q 20 48 18 28 q 24 88 22 68 q 32 107 25 99 q 55 114 40 114 q 88 108 67 114 q 143 101 108 101 q 225 115 189 101 q 285 158 261 129 q 323 233 310 188 q 335 341 335 278 l 335 995 l 470 995 l 470 344 z "},"K":{"ha":920,"x_min":127,"x_max":922,"o":"m 261 559 l 312 559 q 354 566 338 559 q 383 588 370 572 l 715 963 q 744 988 728 981 q 781 995 759 995 l 895 995 l 516 567 q 489 539 502 550 q 462 522 476 528 q 496 503 481 515 q 526 472 511 491 l 922 0 l 805 0 q 782 2 792 0 q 766 7 773 3 q 754 16 759 11 q 744 28 749 22 l 401 424 q 371 448 387 441 q 322 456 355 456 l 261 456 l 261 0 l 127 0 l 127 995 l 261 995 l 261 559 z "},"L":{"ha":713,"x_min":127,"x_max":692,"o":"m 692 113 l 692 0 l 127 0 l 127 995 l 261 995 l 261 113 l 692 113 z "},"Ł":{"ha":733,"x_min":17,"x_max":712,"o":"m 712 113 l 712 0 l 147 0 l 147 384 l 17 318 l 17 411 q 34 438 17 431 l 147 498 l 147 995 l 281 995 l 281 559 l 549 695 l 549 604 q 529 574 549 581 l 281 444 l 281 113 l 712 113 z "},"Ľ":{"ha":713,"x_min":127,"x_max":692,"o":"m 692 113 l 692 0 l 127 0 l 127 995 l 261 995 l 261 113 l 692 113 m 512 1024 q 531 1017 527 1024 q 535 1001 535 1010 q 532 983 535 994 q 524 951 530 972 q 506 899 517 931 q 478 822 495 868 q 461 802 471 807 q 433 797 451 797 l 390 797 l 430 1024 l 512 1024 z "},"M":{"ha":1290,"x_min":127,"x_max":1163,"o":"m 1163 995 l 1163 0 l 1044 0 l 1044 731 q 1045 763 1044 746 q 1048 797 1047 779 l 706 174 q 658 143 690 143 l 638 143 q 590 174 606 143 l 241 799 q 245 731 245 763 l 245 0 l 127 0 l 127 995 l 226 995 q 254 992 244 995 q 273 972 264 988 l 617 360 q 633 325 625 343 q 648 288 641 307 q 663 325 655 307 q 679 360 670 344 l 1017 972 q 1035 992 1025 988 q 1063 995 1045 995 l 1163 995 z "},"N":{"ha":1060,"x_min":127,"x_max":933,"o":"m 933 995 l 933 0 l 866 0 q 839 6 850 0 q 818 24 828 11 l 242 774 q 244 740 244 757 q 245 709 245 724 l 245 0 l 127 0 l 127 995 l 197 995 q 212 994 206 995 q 223 991 218 993 q 233 984 228 988 q 243 972 238 979 l 819 223 q 816 258 817 241 q 815 290 815 275 l 815 995 l 933 995 z "},"Ŋ":{"ha":1060,"x_min":127,"x_max":933,"o":"m 933 995 l 933 5 q 920 -99 933 -52 q 880 -178 908 -145 q 810 -230 853 -212 q 708 -249 767 -249 q 647 -243 674 -249 q 590 -224 620 -237 l 603 -169 q 615 -150 607 -154 q 631 -145 622 -145 q 655 -150 640 -145 q 696 -155 669 -155 q 785 -119 755 -155 q 815 -9 815 -83 l 815 28 l 242 774 q 244 740 244 757 q 245 709 245 724 l 245 0 l 127 0 l 127 995 l 197 995 q 212 994 206 995 q 223 991 218 993 q 233 984 228 988 q 243 972 238 979 l 819 223 q 816 258 817 241 q 815 290 815 275 l 815 995 l 933 995 z "},"O":{"ha":1112,"x_min":65,"x_max":1047,"o":"m 1047 497 q 1011 292 1047 385 q 911 131 976 199 q 756 27 847 64 q 556 -10 665 -10 q 356 27 446 -10 q 201 131 265 64 q 101 292 136 199 q 65 497 65 385 q 101 702 65 609 q 201 864 136 796 q 356 969 265 931 q 556 1006 446 1006 q 756 969 665 1006 q 911 864 847 931 q 1011 702 976 796 q 1047 497 1047 609 m 908 497 q 883 662 908 589 q 813 785 858 735 q 701 863 767 835 q 556 890 636 890 q 410 863 476 890 q 299 785 345 835 q 228 662 253 735 q 203 497 203 589 q 228 333 203 406 q 299 210 253 260 q 410 133 345 160 q 556 106 476 106 q 701 133 636 106 q 813 210 767 160 q 883 333 858 260 q 908 497 908 406 z "},"Ø":{"ha":1112,"x_min":65,"x_max":1047,"o":"m 367 155 q 556 106 447 106 q 701 133 636 106 q 813 210 767 160 q 883 333 858 260 q 908 497 908 406 q 886 655 908 585 q 822 774 863 724 l 367 155 m 760 831 q 667 875 719 860 q 556 890 616 890 q 410 863 476 890 q 299 785 345 835 q 228 662 253 735 q 203 497 203 589 q 229 330 203 403 q 303 206 255 257 l 760 831 m 897 877 q 1008 713 969 809 q 1047 497 1047 616 q 1011 292 1047 385 q 911 131 976 199 q 756 27 847 64 q 556 -10 665 -10 q 416 7 481 -10 q 295 57 351 24 l 226 -37 q 191 -67 211 -58 q 150 -76 170 -76 l 96 -76 l 228 105 q 108 273 151 173 q 65 497 65 373 q 101 702 65 609 q 201 864 136 796 q 356 969 265 931 q 556 1006 446 1006 q 705 986 635 1006 q 833 928 775 966 l 889 1006 q 914 1032 903 1024 q 947 1040 925 1040 l 1017 1040 l 897 877 z "},"Œ":{"ha":1515,"x_min":67,"x_max":1453,"o":"m 523 103 q 654 130 595 103 q 754 208 713 157 q 817 332 795 259 q 840 497 840 406 q 817 662 840 589 q 754 787 795 735 q 654 866 713 838 q 523 893 595 893 q 391 866 450 893 q 291 787 333 838 q 227 662 249 735 q 204 497 204 589 q 227 332 204 406 q 291 208 249 259 q 391 130 333 157 q 523 103 450 103 m 1453 110 l 1452 0 l 855 0 l 855 166 q 708 36 797 83 q 508 -10 620 -10 q 328 27 410 -10 q 189 132 247 65 q 99 292 131 199 q 67 497 67 385 q 99 702 67 609 q 189 864 131 796 q 328 969 247 931 q 508 1006 410 1006 q 708 959 620 1006 q 855 829 797 913 l 855 995 l 1452 995 l 1452 885 l 974 885 l 974 555 l 1362 555 l 1362 449 l 974 449 l 974 110 l 1453 110 z "},"P":{"ha":834,"x_min":127,"x_max":792,"o":"m 421 479 q 523 494 478 479 q 597 537 567 510 q 642 603 627 565 q 658 687 658 641 q 599 835 658 782 q 421 889 540 889 l 261 889 l 261 479 l 421 479 m 421 995 q 585 973 515 995 q 701 911 655 951 q 769 814 747 871 q 792 687 792 757 q 767 560 792 617 q 696 460 743 502 q 580 395 649 419 q 421 372 511 372 l 261 372 l 261 0 l 127 0 l 127 995 l 421 995 z "},"Þ":{"ha":831,"x_min":127,"x_max":792,"o":"m 421 296 q 523 311 478 296 q 597 354 567 326 q 642 419 627 381 q 658 503 658 458 q 599 652 658 599 q 421 706 540 706 l 261 706 l 261 296 l 421 296 m 421 812 q 585 790 515 812 q 701 728 655 768 q 769 631 747 688 q 792 503 792 574 q 767 376 792 434 q 696 277 743 319 q 580 212 649 235 q 421 189 511 189 l 261 189 l 261 0 l 127 0 l 127 995 l 261 995 l 261 812 l 421 812 z "},"Q":{"ha":1112,"x_min":66,"x_max":1093,"o":"m 203 497 q 228 333 203 406 q 300 210 253 260 q 411 133 346 160 q 556 106 476 106 q 702 133 637 106 q 813 210 767 160 q 884 333 859 260 q 909 497 909 406 q 884 662 909 589 q 813 785 859 735 q 702 863 767 835 q 556 890 637 890 q 411 863 476 890 q 300 785 346 835 q 228 662 253 735 q 203 497 203 589 m 1093 -206 l 982 -206 q 938 -199 957 -206 q 902 -174 918 -192 l 728 16 q 556 -10 649 -10 q 356 27 447 -10 q 201 131 266 64 q 101 292 137 199 q 66 497 66 385 q 101 702 66 609 q 201 864 137 796 q 356 969 266 931 q 556 1006 447 1006 q 757 969 666 1006 q 912 864 847 931 q 1012 702 976 796 q 1047 497 1047 609 q 1033 364 1047 427 q 992 246 1019 301 q 926 147 965 192 q 838 70 887 103 l 1093 -206 z "},"R":{"ha":870,"x_min":127,"x_max":863,"o":"m 403 513 q 506 527 461 513 q 581 568 551 542 q 626 630 611 594 q 642 710 642 666 q 583 844 642 799 q 408 889 525 889 l 261 889 l 261 513 l 403 513 m 863 0 l 743 0 q 689 28 706 0 l 431 384 q 405 408 419 401 q 363 415 392 415 l 261 415 l 261 0 l 127 0 l 127 995 l 408 995 q 572 976 503 995 q 685 921 640 957 q 751 834 730 885 q 773 719 773 783 q 756 621 773 667 q 708 539 740 575 q 631 476 676 502 q 528 438 585 451 q 572 395 553 423 l 863 0 z "},"S":{"ha":753,"x_min":46,"x_max":691,"o":"m 636 840 q 623 824 630 829 q 605 819 615 819 q 577 831 593 819 q 537 857 561 842 q 480 883 513 871 q 398 894 446 894 q 318 882 353 894 q 261 849 284 870 q 226 800 238 828 q 214 740 214 772 q 234 670 214 698 q 289 624 255 643 q 365 590 322 604 q 452 560 408 576 q 540 526 497 545 q 616 478 583 507 q 670 406 650 449 q 691 302 691 364 q 669 180 691 237 q 604 80 647 122 q 499 13 561 38 q 358 -11 437 -11 q 181 24 260 -11 q 46 119 102 59 l 85 183 q 98 195 90 190 q 116 201 106 201 q 136 193 125 201 q 163 175 148 186 q 196 151 177 164 q 239 126 215 138 q 293 108 263 115 q 362 101 324 101 q 447 114 410 101 q 511 151 485 127 q 551 208 537 175 q 565 283 565 242 q 544 357 565 328 q 490 405 524 385 q 414 438 457 424 q 326 466 371 451 q 239 499 282 480 q 163 547 196 517 q 109 622 129 577 q 88 733 88 667 q 109 835 88 785 q 168 922 129 884 q 265 983 208 960 q 397 1006 322 1006 q 548 980 480 1006 q 669 903 617 953 l 636 840 z "},"Ş":{"ha":753,"x_min":46,"x_max":691,"o":"m 636 840 q 623 824 630 829 q 605 819 615 819 q 577 831 593 819 q 537 857 561 842 q 480 883 513 871 q 398 894 446 894 q 318 882 353 894 q 261 849 284 870 q 226 800 238 828 q 214 740 214 772 q 234 670 214 698 q 289 624 255 643 q 365 590 322 604 q 452 560 408 576 q 540 526 497 545 q 616 478 583 507 q 670 406 650 449 q 691 302 691 364 q 673 191 691 243 q 619 97 654 138 q 534 29 585 56 q 417 -7 483 2 l 405 -52 q 498 -90 469 -65 q 526 -151 526 -114 q 515 -192 526 -174 q 484 -222 504 -210 q 437 -241 465 -235 q 376 -248 409 -248 q 322 -242 347 -248 q 274 -226 296 -236 l 286 -188 q 302 -176 290 -176 q 312 -178 306 -176 q 325 -184 317 -181 q 344 -189 333 -187 q 369 -192 355 -192 q 414 -180 399 -192 q 428 -150 428 -168 q 399 -113 428 -124 q 317 -95 370 -102 l 344 -11 q 176 26 251 -8 q 46 119 100 61 l 85 183 q 98 195 90 190 q 116 201 106 201 q 136 193 125 201 q 163 175 148 186 q 196 151 177 164 q 239 126 215 138 q 293 108 263 115 q 362 101 324 101 q 447 114 410 101 q 511 151 485 127 q 551 208 537 175 q 565 283 565 242 q 544 357 565 328 q 490 405 524 385 q 414 438 457 424 q 326 466 371 451 q 239 499 282 480 q 163 547 196 517 q 109 622 129 577 q 88 733 88 667 q 109 835 88 785 q 168 922 129 884 q 265 983 208 960 q 397 1006 322 1006 q 548 980 480 1006 q 669 903 617 953 l 636 840 z "},"T":{"ha":820,"x_min":21,"x_max":800,"o":"m 800 882 l 478 882 l 478 0 l 344 0 l 344 882 l 21 882 l 21 995 l 800 995 l 800 882 z "},"Ŧ":{"ha":840,"x_min":31,"x_max":810,"o":"m 488 882 l 488 591 l 715 591 l 715 513 l 488 513 l 488 0 l 354 0 l 354 513 l 126 513 l 126 591 l 354 591 l 354 882 l 31 882 l 31 995 l 810 995 l 810 882 l 488 882 z "},"U":{"ha":1022,"x_min":115,"x_max":907,"o":"m 511 107 q 622 128 573 107 q 704 186 670 149 q 755 276 738 224 q 773 390 773 328 l 773 995 l 907 995 l 907 390 q 880 231 907 304 q 801 103 852 157 q 676 19 750 49 q 511 -12 603 -12 q 346 19 419 -12 q 221 103 272 49 q 142 231 169 157 q 115 390 115 304 l 115 995 l 249 995 l 249 391 q 266 276 249 328 q 318 187 284 224 q 400 128 351 149 q 511 107 449 107 z "},"Ų":{"ha":1022,"x_min":115,"x_max":907,"o":"m 907 995 l 907 390 q 884 244 907 312 q 819 124 862 176 q 715 37 776 71 q 576 -8 653 3 q 549 -26 563 -15 q 525 -50 535 -37 q 507 -78 514 -63 q 501 -110 501 -94 q 518 -152 501 -137 q 564 -167 535 -167 q 590 -164 580 -167 q 608 -159 601 -162 q 619 -153 615 -156 q 627 -150 624 -150 q 635 -153 632 -150 q 640 -159 638 -156 l 659 -205 q 606 -231 638 -221 q 538 -241 574 -241 q 442 -214 477 -241 q 407 -140 407 -186 q 431 -70 407 -103 q 492 -11 454 -37 q 334 24 404 -8 q 215 109 264 56 q 141 235 167 163 q 115 390 115 307 l 115 995 l 249 995 l 249 391 q 266 276 249 328 q 318 187 284 224 q 400 128 351 149 q 511 107 449 107 q 622 128 573 107 q 704 186 670 149 q 755 276 738 224 q 773 390 773 328 l 773 995 l 907 995 z "},"V":{"ha":940,"x_min":4,"x_max":936,"o":"m 936 995 l 531 0 l 410 0 l 4 995 l 112 995 q 141 986 130 995 q 158 963 152 977 l 438 261 q 456 210 447 238 q 472 151 465 182 q 486 210 478 182 q 503 261 494 238 l 783 963 q 799 985 787 975 q 828 995 811 995 l 936 995 z "},"W":{"ha":1438,"x_min":22,"x_max":1417,"o":"m 1417 995 l 1106 0 l 985 0 l 733 759 q 727 783 730 770 q 720 809 724 795 q 713 783 717 795 q 706 759 710 770 l 453 0 l 332 0 l 22 995 l 133 995 q 164 986 151 995 q 179 963 176 977 l 385 272 q 394 231 390 253 q 403 185 399 210 q 413 232 408 210 q 424 272 418 253 l 658 963 q 675 985 663 975 q 704 995 687 995 l 743 995 q 772 986 761 995 q 789 963 783 977 l 1022 272 q 1034 233 1028 253 q 1044 189 1039 212 q 1051 233 1047 212 q 1060 272 1056 253 l 1267 963 q 1282 985 1270 976 q 1312 995 1294 995 l 1417 995 z "},"X":{"ha":901,"x_min":14,"x_max":886,"o":"m 886 0 l 753 0 q 729 8 738 0 q 715 26 720 16 l 448 444 q 435 415 442 427 l 176 26 q 161 8 169 16 q 139 0 153 0 l 14 0 l 356 511 l 28 995 l 162 995 q 183 990 176 995 q 196 976 190 985 l 456 578 q 470 610 460 592 l 715 974 q 728 989 721 983 q 747 995 736 995 l 875 995 l 545 517 l 886 0 z "},"Y":{"ha":867,"x_min":1,"x_max":865,"o":"m 501 397 l 501 0 l 366 0 l 366 397 l 1 995 l 119 995 q 148 986 138 995 q 166 964 158 978 l 394 577 q 417 532 406 553 q 435 489 427 510 q 452 532 442 510 q 474 577 462 553 l 701 964 q 718 985 707 976 q 747 995 729 995 l 865 995 l 501 397 z "},"Z":{"ha":836,"x_min":37,"x_max":791,"o":"m 791 945 q 777 901 791 922 l 214 110 l 783 110 l 783 0 l 37 0 l 37 53 q 41 74 37 64 q 50 92 44 83 l 615 885 l 63 885 l 63 995 l 791 995 l 791 945 z "},"a":{"ha":690,"x_min":45,"x_max":600,"o":"m 479 317 q 334 303 394 314 q 236 275 274 292 q 181 234 198 258 q 164 181 164 210 q 173 133 164 153 q 198 100 182 113 q 234 82 213 88 q 280 76 256 76 q 340 82 313 76 q 391 101 367 89 q 436 131 415 114 q 479 171 458 149 l 479 317 m 80 604 q 206 688 138 660 q 355 716 273 716 q 460 697 414 716 q 537 642 506 677 q 584 558 568 608 q 600 450 600 509 l 600 0 l 545 0 q 517 6 527 0 q 502 29 508 12 l 488 96 q 434 50 460 70 q 378 17 408 31 q 316 -4 349 3 q 243 -11 283 -11 q 166 0 202 -11 q 103 35 130 12 q 61 93 76 58 q 45 176 45 128 q 68 256 45 217 q 142 324 91 294 q 276 373 194 354 q 479 395 359 392 l 479 450 q 444 574 479 532 q 340 616 408 616 q 264 605 294 616 q 210 579 233 593 q 171 553 188 565 q 139 542 155 542 q 117 548 126 542 q 102 565 108 555 l 80 604 z "},"ą":{"ha":690,"x_min":45,"x_max":676,"o":"m 479 317 q 334 303 394 314 q 236 275 274 292 q 181 234 198 258 q 164 181 164 210 q 173 133 164 153 q 198 100 182 113 q 234 82 213 88 q 280 76 256 76 q 340 82 313 76 q 391 101 367 89 q 436 131 415 114 q 479 171 458 149 l 479 317 m 676 -201 q 623 -227 656 -217 q 556 -237 591 -237 q 459 -210 494 -237 q 424 -137 424 -183 q 432 -97 424 -117 q 453 -60 440 -78 q 485 -27 467 -42 q 525 2 503 -11 q 511 11 517 6 q 502 29 506 17 l 488 96 q 434 50 460 70 q 378 17 408 31 q 316 -4 349 3 q 243 -11 283 -11 q 166 0 202 -11 q 103 35 130 12 q 61 93 76 58 q 45 176 45 128 q 68 256 45 217 q 142 324 91 294 q 276 373 194 354 q 479 395 359 392 l 479 450 q 444 574 479 532 q 340 616 408 616 q 264 605 294 616 q 210 579 233 593 q 171 553 188 565 q 139 542 155 542 q 117 548 126 542 q 102 565 108 555 l 80 604 q 206 688 138 660 q 355 716 273 716 q 460 697 414 716 q 537 642 506 677 q 584 558 568 608 q 600 450 600 509 l 600 0 q 572 -18 586 -8 q 545 -43 557 -29 q 526 -73 533 -56 q 518 -107 518 -89 q 535 -148 518 -133 q 581 -163 552 -163 q 608 -161 597 -163 q 625 -155 618 -158 q 636 -149 632 -152 q 644 -147 641 -147 q 652 -149 649 -147 q 657 -156 656 -152 l 676 -201 z "},"æ":{"ha":1118,"x_min":47,"x_max":1063,"o":"m 953 415 q 942 498 953 460 q 909 565 931 537 q 858 608 888 592 q 789 624 827 624 q 713 609 747 624 q 656 568 680 595 q 617 502 632 541 q 598 415 603 463 l 953 415 m 481 338 q 335 322 395 334 q 238 291 275 310 q 183 246 200 272 q 166 192 166 221 q 201 103 166 131 q 292 76 235 76 q 366 88 331 76 q 426 126 400 101 q 466 190 451 152 q 481 280 481 228 l 481 338 m 81 604 q 202 688 140 660 q 344 716 265 716 q 478 681 427 716 q 551 583 528 645 q 649 679 589 644 q 793 715 710 715 q 899 692 850 715 q 985 628 949 670 q 1042 525 1021 585 q 1063 386 1063 464 q 1057 348 1063 358 q 1034 338 1051 338 l 597 338 q 615 228 599 275 q 658 150 631 181 q 721 103 685 119 q 803 88 758 88 q 883 98 851 88 q 936 120 915 108 q 970 143 957 133 q 995 153 984 153 q 1011 150 1005 153 q 1021 141 1017 147 l 1053 99 q 1000 50 1031 71 q 936 17 970 30 q 865 -3 901 3 q 792 -10 828 -10 q 644 30 710 -10 q 540 149 578 69 q 491 76 521 106 q 424 26 461 45 q 345 -2 387 6 q 263 -11 304 -11 q 176 1 215 -11 q 107 38 136 13 q 63 99 78 62 q 47 185 47 135 q 70 267 47 227 q 144 340 93 308 q 278 392 195 372 q 481 415 360 413 l 481 450 q 445 576 481 532 q 342 619 410 619 q 265 607 296 619 q 211 581 234 595 q 173 554 189 566 q 140 542 156 542 q 119 548 128 542 q 103 565 110 555 l 81 604 z "},"b":{"ha":778,"x_min":98,"x_max":719,"o":"m 222 169 q 297 105 256 124 q 386 86 338 86 q 538 156 485 86 q 591 365 591 226 q 544 555 591 494 q 410 616 497 616 q 305 588 350 616 q 222 510 260 560 l 222 169 m 222 602 q 323 684 267 653 q 451 715 378 715 q 563 691 513 715 q 647 623 613 667 q 700 514 682 578 q 719 370 719 450 q 698 215 719 285 q 638 95 677 144 q 542 18 599 45 q 416 -10 486 -10 q 299 16 347 -10 q 216 90 251 42 l 210 26 q 178 0 204 0 l 98 0 l 98 1023 l 222 1023 l 222 602 z "},"c":{"ha":663,"x_min":58,"x_max":628,"o":"m 588 578 q 576 567 582 571 q 561 563 571 563 q 538 571 551 563 q 507 590 526 580 q 462 609 489 601 q 397 618 435 618 q 305 600 344 618 q 239 547 265 581 q 198 463 212 512 q 185 352 185 413 q 199 239 185 288 q 241 155 214 189 q 305 104 267 122 q 390 86 343 86 q 465 97 435 86 q 513 121 494 108 q 545 145 532 134 q 570 156 558 156 q 594 144 585 156 l 628 99 q 576 50 606 70 q 514 16 547 30 q 443 -3 480 3 q 368 -10 406 -10 q 245 15 302 -10 q 147 85 189 39 q 82 199 106 131 q 58 352 58 266 q 80 497 58 431 q 144 612 102 564 q 248 688 186 660 q 389 715 309 715 q 520 691 463 715 q 620 623 576 667 l 588 578 z "},"ç":{"ha":664,"x_min":58,"x_max":628,"o":"m 628 99 q 531 24 589 49 q 408 -8 474 -2 l 396 -52 q 489 -90 460 -65 q 517 -151 517 -114 q 506 -192 517 -174 q 475 -222 495 -210 q 428 -241 456 -235 q 367 -248 401 -248 q 313 -242 339 -248 q 266 -226 287 -236 l 277 -188 q 293 -176 281 -176 q 303 -178 297 -176 q 316 -184 308 -181 q 335 -189 324 -187 q 361 -192 346 -192 q 405 -180 390 -192 q 419 -150 419 -168 q 390 -113 419 -124 q 308 -95 361 -102 l 337 -8 q 225 24 276 -3 q 137 97 174 51 q 79 207 100 143 q 58 352 58 272 q 80 497 58 431 q 144 612 102 564 q 248 688 186 660 q 389 715 309 715 q 520 691 463 715 q 620 623 576 667 l 588 578 q 576 567 582 571 q 561 563 571 563 q 538 571 551 563 q 507 590 526 580 q 462 609 489 601 q 397 618 435 618 q 305 600 344 618 q 239 547 265 581 q 198 463 212 512 q 185 352 185 413 q 199 239 185 288 q 241 155 214 189 q 305 104 267 122 q 390 86 343 86 q 465 97 435 86 q 513 121 494 108 q 545 145 532 134 q 570 156 558 156 q 594 144 585 156 l 628 99 z "},"d":{"ha":778,"x_min":60,"x_max":680,"o":"m 556 536 q 481 601 522 583 q 391 619 441 619 q 240 549 293 619 q 188 349 188 479 q 199 232 188 281 q 234 151 211 183 q 290 105 257 119 q 366 90 324 90 q 473 118 427 90 q 556 197 518 146 l 556 536 m 680 1023 l 680 0 l 606 0 q 573 26 580 0 l 562 111 q 459 24 517 57 q 326 -10 401 -10 q 216 14 265 -10 q 132 82 167 37 q 78 194 97 127 q 60 349 60 262 q 81 494 60 427 q 140 610 101 561 q 236 688 179 660 q 363 716 292 716 q 474 694 428 716 q 556 633 520 672 l 556 1023 l 680 1023 z "},"ď":{"ha":778,"x_min":60,"x_max":896,"o":"m 556 536 q 481 601 522 583 q 391 619 441 619 q 240 549 293 619 q 188 349 188 479 q 199 232 188 281 q 234 151 211 183 q 290 105 257 119 q 366 90 324 90 q 473 118 427 90 q 556 197 518 146 l 556 536 m 680 1023 l 680 0 l 606 0 q 573 26 580 0 l 562 111 q 459 24 517 57 q 326 -10 401 -10 q 216 14 265 -10 q 132 82 167 37 q 78 194 97 127 q 60 349 60 262 q 81 494 60 427 q 140 610 101 561 q 236 688 179 660 q 363 716 292 716 q 474 694 428 716 q 556 633 520 672 l 556 1023 l 680 1023 m 873 1024 q 892 1017 888 1024 q 896 1001 896 1010 q 893 983 896 994 q 885 951 891 972 q 867 899 878 931 q 839 822 856 868 q 822 802 832 807 q 794 797 812 797 l 751 797 l 791 1024 l 873 1024 z "},"đ":{"ha":778,"x_min":60,"x_max":783,"o":"m 557 521 q 482 586 522 567 q 392 605 442 605 q 241 538 294 605 q 188 342 188 472 q 200 225 188 273 q 235 147 212 177 q 291 104 258 117 q 367 90 324 90 q 473 118 428 90 q 557 197 519 146 l 557 521 m 783 794 l 681 794 l 681 0 l 607 0 q 574 26 581 0 l 563 112 q 460 24 518 57 q 326 -10 402 -10 q 217 13 266 -10 q 133 78 167 35 q 79 188 98 122 q 60 342 60 254 q 81 485 60 419 q 141 599 102 551 q 236 674 180 647 q 364 701 293 701 q 475 679 428 701 q 557 618 521 657 l 557 794 l 392 794 l 392 872 l 557 872 l 557 1023 l 681 1023 l 681 872 l 783 872 l 783 794 z "},"ð":{"ha":786,"x_min":57,"x_max":719,"o":"m 383 87 q 472 106 432 87 q 540 163 512 124 q 585 258 569 201 q 603 392 601 315 q 573 450 592 422 q 529 500 555 478 q 469 534 503 522 q 392 547 435 547 q 300 530 340 547 q 234 482 260 513 q 194 411 208 452 q 181 322 181 369 q 197 222 181 266 q 240 148 213 178 q 305 102 268 118 q 383 87 341 87 m 533 852 q 609 775 574 818 q 668 678 643 732 q 706 560 692 624 q 719 419 719 496 q 697 241 719 320 q 633 106 676 162 q 527 21 590 51 q 380 -9 463 -9 q 253 14 312 -9 q 151 80 194 37 q 82 184 107 122 q 57 324 57 246 q 78 447 57 389 q 140 549 100 505 q 238 618 181 592 q 367 644 295 644 q 499 614 438 644 q 605 524 560 585 q 551 684 591 619 q 444 795 510 750 l 317 701 l 294 740 q 288 764 285 752 q 303 783 291 776 l 375 833 q 234 880 313 861 q 208 899 218 885 q 208 939 199 914 l 222 982 q 351 950 288 972 q 470 896 414 929 l 585 981 l 610 941 q 615 918 617 929 q 600 899 612 906 l 533 852 z "},"e":{"ha":733,"x_min":58,"x_max":680,"o":"m 569 428 q 557 507 569 472 q 521 569 544 543 q 465 609 498 595 q 389 624 431 624 q 248 572 300 624 q 184 428 197 520 l 569 428 m 669 99 q 614 50 646 71 q 545 17 582 30 q 470 -3 509 3 q 393 -10 431 -10 q 259 15 320 -10 q 152 87 197 40 q 83 205 108 135 q 58 366 58 275 q 80 503 58 440 q 145 614 103 567 q 249 688 188 661 q 386 715 310 715 q 503 693 449 715 q 596 632 557 672 q 658 534 635 592 q 680 400 680 475 q 674 361 680 371 q 650 351 667 351 l 180 351 q 198 235 182 285 q 244 153 215 186 q 313 104 273 120 q 403 88 353 88 q 484 98 450 88 q 542 122 517 109 q 582 145 566 134 q 610 156 599 156 q 634 144 626 156 l 669 99 z "},"ę":{"ha":733,"x_min":58,"x_max":680,"o":"m 569 428 q 557 507 569 472 q 521 569 544 543 q 465 609 498 595 q 389 624 431 624 q 248 572 300 624 q 184 428 197 520 l 569 428 m 553 -201 q 500 -227 532 -217 q 432 -237 467 -237 q 336 -210 371 -237 q 301 -137 301 -183 q 324 -68 301 -101 q 383 -10 347 -35 q 252 18 312 -8 q 149 91 192 43 q 82 207 106 138 q 58 366 58 276 q 80 503 58 440 q 145 614 103 567 q 249 688 188 661 q 386 715 310 715 q 503 693 449 715 q 596 632 557 672 q 658 534 635 592 q 680 400 680 475 q 674 361 680 371 q 650 351 667 351 l 180 351 q 198 235 182 285 q 244 153 215 186 q 313 104 273 120 q 403 88 353 88 q 484 98 450 88 q 542 122 517 109 q 582 145 566 134 q 610 156 599 156 q 634 144 626 156 l 669 99 q 581 32 633 57 q 471 -3 529 6 q 444 -22 458 -11 q 419 -45 431 -33 q 401 -74 408 -58 q 394 -107 394 -90 q 411 -148 394 -133 q 458 -163 428 -163 q 484 -161 474 -163 q 501 -155 494 -158 q 513 -149 508 -152 q 521 -147 517 -147 q 529 -149 526 -147 q 533 -156 532 -152 l 553 -201 z "},"f":{"ha":487,"x_min":33,"x_max":472,"o":"m 144 0 l 144 598 l 66 607 q 42 618 51 610 q 33 639 33 625 l 33 690 l 144 690 l 144 758 q 161 865 144 818 q 209 944 178 912 q 285 993 241 976 q 385 1010 330 1010 q 472 996 433 1010 l 469 934 q 451 916 468 917 q 406 915 434 915 q 348 906 374 915 q 303 879 322 898 q 274 830 284 860 q 264 754 264 799 l 264 690 l 467 690 l 467 600 l 268 600 l 268 0 l 144 0 z "},"ﬀ":{"ha":924,"x_min":33,"x_max":910,"o":"m 144 0 l 144 598 l 66 607 q 42 618 51 610 q 33 639 33 625 l 33 690 l 144 690 l 144 747 q 161 855 144 808 q 209 934 178 901 q 285 983 241 966 q 385 999 330 999 q 472 985 433 999 l 469 923 q 451 905 468 906 q 406 903 434 903 q 348 895 374 903 q 303 869 322 888 q 274 819 284 850 q 264 743 264 788 l 264 690 l 581 690 l 581 765 q 598 873 581 826 q 647 952 615 919 q 723 1001 678 984 q 823 1017 767 1017 q 910 1003 869 1017 l 907 942 q 889 924 906 925 q 843 922 872 922 q 785 914 811 922 q 740 887 759 906 q 711 838 722 868 q 701 762 701 807 l 701 690 l 904 690 l 904 600 l 706 600 l 706 0 l 581 0 l 581 600 l 268 600 l 268 0 l 144 0 z "},"ﬁ":{"ha":795,"x_min":34,"x_max":690,"o":"m 145 0 l 145 598 l 67 607 q 43 618 52 610 q 34 639 34 625 l 34 690 l 145 690 l 145 728 q 165 847 145 793 q 226 940 185 901 q 326 1000 266 978 q 465 1022 386 1022 q 519 1018 492 1022 q 567 1008 547 1015 l 563 943 q 557 933 562 936 q 545 930 553 931 q 526 930 538 929 q 500 930 515 930 q 321 879 376 930 q 265 725 265 828 l 265 690 l 690 690 l 690 0 l 566 0 l 566 600 l 269 600 l 269 0 l 145 0 z "},"ﬃ":{"ha":1233,"x_min":34,"x_max":1128,"o":"m 145 0 l 145 598 l 67 607 q 43 618 52 610 q 34 639 34 625 l 34 690 l 145 690 l 145 747 q 162 855 145 808 q 210 934 179 901 q 286 983 242 966 q 386 999 331 999 q 474 985 433 999 l 470 923 q 452 905 469 906 q 406 903 435 903 q 348 895 374 903 q 304 869 322 888 q 275 819 285 850 q 265 743 265 788 l 265 690 l 583 690 l 583 728 q 603 847 583 793 q 663 940 623 901 q 764 1000 703 978 q 903 1022 824 1022 q 957 1018 929 1022 q 1005 1008 985 1015 l 1000 943 q 995 933 999 936 q 983 930 990 931 q 964 930 975 929 q 938 930 952 930 q 758 879 814 930 q 703 725 703 828 l 703 690 l 1128 690 l 1128 0 l 1003 0 l 1003 600 l 706 600 l 706 0 l 583 0 l 583 600 l 269 600 l 269 0 l 145 0 z "},"ﬂ":{"ha":819,"x_min":34,"x_max":717,"o":"m 145 0 l 145 598 l 67 607 q 43 618 52 610 q 34 639 34 625 l 34 690 l 145 690 l 145 727 q 163 838 145 785 q 217 929 181 890 q 307 991 253 968 q 433 1014 361 1014 q 536 1010 487 1014 q 633 1005 586 1006 l 717 1005 l 717 0 l 594 0 l 594 918 q 518 922 556 919 q 452 924 481 924 q 314 872 362 924 q 265 727 265 820 l 265 690 l 448 690 l 448 600 l 269 600 l 269 0 l 145 0 z "},"ﬄ":{"ha":1256,"x_min":33,"x_max":1153,"o":"m 144 0 l 144 598 l 66 607 q 42 618 51 610 q 33 639 33 625 l 33 690 l 144 690 l 144 747 q 161 855 144 808 q 209 934 178 901 q 285 983 241 966 q 385 999 330 999 q 472 985 433 999 l 469 923 q 451 905 468 906 q 406 903 434 903 q 348 895 374 903 q 303 869 322 888 q 274 819 284 850 q 264 743 264 788 l 264 690 l 581 690 l 581 727 q 599 838 581 785 q 653 929 617 890 q 744 991 690 968 q 870 1014 798 1014 q 973 1010 923 1014 q 1069 1005 1022 1006 l 1153 1005 l 1153 0 l 1030 0 l 1030 918 q 955 922 992 919 q 889 924 917 924 q 750 872 799 924 q 701 727 701 820 l 701 690 l 904 690 l 904 600 l 706 600 l 706 0 l 581 0 l 581 600 l 268 600 l 268 0 l 144 0 z "},"g":{"ha":722,"x_min":43,"x_max":692,"o":"m 343 344 q 409 354 381 344 q 457 383 438 365 q 486 428 476 402 q 496 485 496 454 q 457 588 496 550 q 343 626 417 626 q 229 588 268 626 q 190 485 190 550 q 200 428 190 454 q 229 383 210 402 q 277 354 249 365 q 343 344 306 344 m 566 -38 q 551 3 566 -12 q 512 28 537 19 q 455 41 488 38 q 386 47 422 45 q 312 51 349 49 q 240 58 274 53 q 176 13 201 40 q 151 -51 151 -15 q 164 -95 151 -75 q 201 -131 176 -116 q 264 -155 226 -146 q 353 -163 301 -163 q 442 -154 403 -163 q 509 -128 482 -145 q 551 -89 537 -112 q 566 -38 566 -66 m 692 676 l 692 630 q 663 601 692 607 l 583 590 q 606 489 606 544 q 586 395 606 438 q 532 324 567 353 q 449 278 497 294 q 343 262 400 262 q 250 274 294 262 q 216 244 228 260 q 204 213 204 228 q 225 175 204 188 q 278 156 245 162 q 355 149 312 151 q 442 145 397 148 q 530 134 487 142 q 606 109 572 126 q 659 61 639 92 q 680 -18 680 31 q 657 -106 680 -63 q 592 -181 635 -148 q 489 -234 550 -214 q 350 -253 427 -253 q 215 -238 273 -253 q 119 -197 158 -223 q 62 -138 81 -172 q 43 -67 43 -104 q 76 21 43 -15 q 165 78 108 57 q 116 116 134 92 q 97 178 97 139 q 103 210 97 194 q 120 243 108 226 q 148 274 131 259 q 187 299 165 288 q 106 377 135 328 q 76 489 76 425 q 96 582 76 540 q 151 654 116 624 q 236 699 187 683 q 343 715 285 715 q 428 705 389 715 q 501 676 468 695 l 692 676 z "},"h":{"ha":775,"x_min":98,"x_max":684,"o":"m 222 610 q 322 686 267 658 q 449 715 377 715 q 550 695 506 715 q 624 641 594 676 q 669 557 653 606 q 684 448 684 508 l 684 0 l 560 0 l 560 448 q 523 572 560 528 q 413 616 487 616 q 310 590 358 616 q 222 518 263 563 l 222 0 l 98 0 l 98 1023 l 222 1023 l 222 610 z "},"ĥ":{"ha":775,"x_min":-62,"x_max":684,"o":"m 381 1074 l 290 1074 q 270 1077 282 1074 q 247 1094 259 1080 l 166 1192 l 158 1204 l 149 1192 l 68 1094 q 45 1077 56 1080 q 25 1074 33 1074 l -62 1074 l 104 1262 l 215 1262 l 381 1074 m 222 610 q 322 686 267 658 q 449 715 377 715 q 550 695 506 715 q 624 641 594 676 q 669 557 653 606 q 684 448 684 508 l 684 0 l 560 0 l 560 448 q 523 572 560 528 q 413 616 487 616 q 310 590 358 616 q 222 518 263 563 l 222 0 l 98 0 l 98 1023 l 222 1023 l 222 610 z "},"ħ":{"ha":775,"x_min":-9,"x_max":683,"o":"m 222 594 q 322 670 266 641 q 448 699 377 699 q 550 680 506 699 q 623 626 594 661 q 668 542 653 591 q 683 433 683 493 l 683 0 l 560 0 l 560 433 q 523 557 560 513 q 412 601 487 601 q 309 575 357 601 q 222 503 262 549 l 222 0 l 98 0 l 98 803 l -9 803 l -9 882 l 98 882 l 98 1023 l 222 1023 l 222 882 l 425 882 l 425 803 l 222 803 l 222 594 z "},"i":{"ha":333,"x_min":78,"x_max":255,"o":"m 228 703 l 228 0 l 105 0 l 105 703 l 228 703 m 255 924 q 248 891 255 906 q 228 863 240 875 q 200 844 216 851 q 165 837 183 837 q 132 844 147 837 q 104 863 116 851 q 85 891 92 875 q 78 924 78 906 q 85 959 78 942 q 104 987 92 975 q 132 1006 116 999 q 165 1013 147 1013 q 200 1006 183 1013 q 228 987 216 999 q 248 959 240 975 q 255 924 255 942 z "},"į":{"ha":333,"x_min":42,"x_max":294,"o":"m 165 837 q 132 844 147 837 q 104 863 116 851 q 85 891 92 875 q 78 924 78 906 q 85 959 78 942 q 104 987 92 975 q 132 1006 116 999 q 165 1013 147 1013 q 200 1006 183 1013 q 228 987 216 999 q 248 959 240 975 q 255 924 255 942 q 248 891 255 906 q 228 863 240 875 q 200 844 216 851 q 165 837 183 837 m 294 -201 q 241 -227 274 -217 q 174 -237 209 -237 q 77 -210 113 -237 q 42 -137 42 -183 q 70 -62 42 -97 q 139 0 97 -26 l 105 0 l 105 703 l 228 703 l 228 0 l 218 0 q 190 -18 204 -8 q 163 -43 175 -29 q 144 -73 151 -56 q 136 -107 136 -89 q 153 -148 136 -133 q 199 -163 170 -163 q 226 -161 215 -163 q 243 -155 236 -158 q 255 -149 250 -152 q 263 -147 259 -147 q 270 -149 267 -147 q 275 -156 274 -152 l 294 -201 z "},"ı":{"ha":334,"x_min":105,"x_max":229,"o":"m 229 703 l 229 0 l 105 0 l 105 703 l 229 703 z "},"j":{"ha":333,"x_min":-49,"x_max":254,"o":"m 228 703 l 228 -52 q 217 -131 228 -94 q 182 -194 206 -167 q 120 -237 158 -222 q 29 -253 82 -253 q -12 -249 7 -253 q -49 -239 -31 -246 l -44 -172 q -40 -163 -43 -166 q -31 -159 -37 -160 q -17 -159 -26 -158 q 5 -159 -8 -159 q 82 -134 59 -159 q 105 -52 105 -108 l 105 703 l 228 703 m 254 924 q 247 891 254 906 q 227 863 240 875 q 199 844 215 851 q 165 837 183 837 q 132 844 147 837 q 104 863 116 851 q 85 891 92 875 q 78 924 78 906 q 85 959 78 942 q 104 987 92 975 q 132 1006 116 999 q 165 1013 147 1013 q 199 1006 183 1013 q 227 987 215 999 q 247 959 240 975 q 254 924 254 942 z "},"ȷ":{"ha":334,"x_min":-49,"x_max":229,"o":"m 229 703 l 229 -52 q 218 -131 229 -94 q 182 -194 206 -167 q 120 -237 158 -222 q 30 -253 83 -253 q -11 -249 7 -253 q -49 -239 -30 -246 l -44 -172 q -40 -163 -42 -166 q -31 -159 -37 -160 q -17 -159 -26 -158 q 5 -159 -8 -159 q 82 -134 59 -159 q 105 -52 105 -108 l 105 703 l 229 703 z "},"k":{"ha":706,"x_min":98,"x_max":698,"o":"m 222 1023 l 222 421 l 254 421 q 277 425 268 421 q 297 440 287 428 l 519 678 q 540 697 529 690 q 569 703 551 703 l 681 703 l 422 428 q 381 391 403 404 q 404 372 394 383 q 423 347 414 361 l 698 0 l 588 0 q 560 5 572 0 q 540 24 549 10 l 309 313 q 289 332 299 327 q 258 336 278 336 l 222 336 l 222 0 l 98 0 l 98 1023 l 222 1023 z "},"ĸ":{"ha":706,"x_min":98,"x_max":698,"o":"m 222 703 l 222 421 l 254 421 q 277 425 268 421 q 297 440 287 428 l 519 678 q 540 697 529 690 q 569 703 551 703 l 681 703 l 422 428 q 381 391 403 404 q 404 372 394 383 q 423 347 414 361 l 698 0 l 588 0 q 560 5 572 0 q 540 24 549 10 l 309 313 q 289 332 299 327 q 258 336 278 336 l 222 336 l 222 0 l 98 0 l 98 703 l 222 703 z "},"ł":{"ha":428,"x_min":30,"x_max":410,"o":"m 410 700 l 410 630 q 391 599 410 607 l 279 550 l 279 0 l 156 0 l 156 505 l 30 450 l 30 523 q 47 551 30 542 l 156 599 l 156 1023 l 279 1023 l 279 645 l 410 700 z "},"ľ":{"ha":328,"x_min":102,"x_max":450,"o":"m 226 1023 l 226 0 l 102 0 l 102 1023 l 226 1023 m 427 1024 q 446 1017 442 1024 q 450 1001 450 1010 q 448 983 450 994 q 439 951 445 972 q 422 899 433 931 q 393 822 410 868 q 376 802 386 807 q 349 797 366 797 l 306 797 l 345 1024 l 427 1024 z "},"m":{"ha":1142,"x_min":98,"x_max":1052,"o":"m 98 0 l 98 703 l 172 703 q 205 678 199 703 l 214 606 q 301 684 253 653 q 414 715 350 715 q 529 675 485 715 q 592 568 573 635 q 632 634 608 606 q 685 680 656 662 q 749 706 715 698 q 817 715 783 715 q 916 697 873 715 q 990 645 960 679 q 1036 561 1020 611 q 1052 448 1052 512 l 1052 0 l 928 0 l 928 448 q 892 573 928 531 q 788 616 856 616 q 730 605 757 616 q 681 574 702 594 q 648 521 660 553 q 636 448 636 490 l 636 0 l 512 0 l 512 448 q 478 574 512 533 q 378 616 444 616 q 294 591 333 616 q 222 524 255 567 l 222 0 l 98 0 z "},"n":{"ha":775,"x_min":98,"x_max":684,"o":"m 215 601 q 263 648 238 627 q 318 684 289 669 q 379 707 347 699 q 449 715 411 715 q 550 695 506 715 q 624 641 594 676 q 669 557 653 606 q 684 448 684 508 l 684 0 l 560 0 l 560 448 q 523 572 560 528 q 413 616 487 616 q 310 590 358 616 q 222 518 263 563 l 222 0 l 98 0 l 98 703 l 172 703 q 205 678 199 703 l 215 601 z "},"ŋ":{"ha":775,"x_min":98,"x_max":684,"o":"m 215 601 q 263 648 238 627 q 318 684 289 669 q 379 707 347 699 q 449 715 411 715 q 550 695 506 715 q 624 641 594 676 q 669 557 653 606 q 684 448 684 508 l 684 0 q 670 -103 684 -57 q 628 -183 656 -150 q 556 -235 599 -217 q 452 -253 512 -253 q 392 -248 419 -253 q 335 -228 365 -242 l 348 -175 q 360 -155 352 -159 q 376 -150 367 -150 q 400 -155 385 -150 q 441 -160 415 -160 q 530 -124 499 -160 q 560 -14 560 -88 l 560 448 q 523 572 560 528 q 413 616 487 616 q 310 590 358 616 q 222 518 263 563 l 222 0 l 98 0 l 98 703 l 172 703 q 205 678 199 703 l 215 601 z "},"o":{"ha":788,"x_min":58,"x_max":729,"o":"m 394 715 q 533 689 472 715 q 639 616 595 663 q 706 502 683 569 q 729 352 729 435 q 706 202 729 269 q 639 88 683 135 q 533 16 595 41 q 394 -10 472 -10 q 255 16 317 -10 q 149 88 192 41 q 82 202 105 135 q 58 352 58 269 q 82 502 58 435 q 149 616 105 569 q 255 689 192 663 q 394 715 317 715 m 394 87 q 550 157 499 87 q 601 351 601 226 q 550 547 601 477 q 394 617 499 617 q 302 599 342 617 q 237 547 263 581 q 198 464 211 513 q 185 351 185 414 q 237 157 185 226 q 394 87 289 87 z "},"ø":{"ha":787,"x_min":52,"x_max":749,"o":"m 272 117 q 394 83 321 83 q 486 102 447 83 q 554 155 526 120 q 595 239 581 190 q 609 351 609 289 q 573 523 609 456 l 272 117 m 522 583 q 394 622 472 622 q 301 603 342 622 q 234 549 261 584 q 192 464 206 515 q 178 351 178 414 q 219 173 178 240 l 522 583 m 640 615 q 706 501 683 567 q 729 352 729 435 q 706 202 729 269 q 639 88 683 135 q 533 16 595 41 q 394 -10 472 -10 q 296 2 342 -10 q 213 36 251 14 l 175 -15 q 140 -44 161 -36 q 99 -53 119 -53 l 52 -53 l 153 83 q 83 199 107 131 q 58 352 58 267 q 82 502 58 435 q 149 616 105 569 q 255 689 192 663 q 394 715 317 715 q 496 701 449 715 q 582 664 543 688 l 629 727 q 653 754 642 747 q 688 762 665 762 l 749 762 l 640 615 z "},"œ":{"ha":1213,"x_min":58,"x_max":1156,"o":"m 1047 415 q 1036 498 1047 460 q 1004 565 1025 537 q 953 608 983 592 q 885 624 923 624 q 809 609 842 624 q 752 568 776 595 q 714 502 728 541 q 694 415 699 463 l 1047 415 m 379 87 q 523 157 476 87 q 570 351 570 226 q 558 464 570 414 q 523 547 547 513 q 463 599 499 581 q 379 617 427 617 q 294 599 330 617 q 234 547 258 581 q 198 464 210 513 q 186 351 186 414 q 234 157 186 226 q 379 87 281 87 m 693 338 q 711 228 696 275 q 754 150 727 181 q 817 103 781 119 q 899 88 853 88 q 972 98 941 88 q 1025 122 1003 109 q 1063 145 1047 134 q 1091 156 1078 156 q 1114 144 1106 156 l 1149 99 q 1096 50 1126 71 q 1032 17 1066 30 q 960 -3 997 3 q 888 -10 924 -10 q 739 31 806 -10 q 634 153 672 71 q 530 33 597 76 q 367 -10 463 -10 q 241 16 298 -10 q 143 88 184 41 q 81 202 103 135 q 58 352 58 269 q 81 502 58 435 q 144 616 103 569 q 243 689 185 663 q 372 715 301 715 q 529 673 463 715 q 633 555 595 631 q 675 620 650 591 q 732 671 700 650 q 804 703 765 692 q 890 715 844 715 q 995 692 947 715 q 1080 628 1044 670 q 1136 525 1115 585 q 1156 386 1156 464 q 1151 348 1156 358 q 1128 338 1145 338 l 693 338 z "},"p":{"ha":778,"x_min":98,"x_max":719,"o":"m 222 169 q 297 105 256 124 q 387 86 337 86 q 538 156 485 86 q 591 356 591 226 q 579 474 591 425 q 544 555 567 524 q 488 601 521 587 q 412 616 454 616 q 306 588 351 616 q 222 510 260 560 l 222 169 m 216 594 q 319 683 260 649 q 452 716 377 716 q 563 693 513 716 q 647 624 612 669 q 700 511 681 578 q 719 356 719 444 q 698 211 719 278 q 638 95 677 144 q 542 18 599 47 q 415 -10 485 -10 q 304 12 350 -10 q 222 73 258 34 l 222 -238 l 98 -238 l 98 703 l 172 703 q 205 678 199 703 l 216 594 z "},"þ":{"ha":778,"x_min":98,"x_max":719,"o":"m 222 169 q 297 105 256 124 q 387 86 337 86 q 538 156 485 86 q 591 356 591 226 q 579 474 591 425 q 544 555 567 524 q 488 601 521 587 q 412 616 454 616 q 306 588 351 616 q 222 510 260 560 l 222 169 m 222 602 q 323 684 267 653 q 452 715 379 715 q 563 692 513 715 q 647 623 612 669 q 700 511 681 578 q 719 356 719 444 q 698 211 719 278 q 638 95 677 144 q 542 18 599 47 q 415 -10 485 -10 q 303 14 349 -10 q 222 82 258 38 l 222 -238 l 98 -238 l 98 1023 l 222 1023 l 222 602 z "},"q":{"ha":778,"x_min":60,"x_max":680,"o":"m 556 537 q 482 600 523 581 q 391 619 441 619 q 240 549 293 619 q 188 349 188 479 q 199 232 188 281 q 234 151 211 183 q 290 105 257 119 q 366 90 324 90 q 473 118 427 90 q 556 197 518 146 l 556 537 m 680 703 l 680 -238 l 556 -238 l 556 105 q 456 22 513 53 q 326 -10 399 -10 q 216 14 265 -10 q 132 82 167 37 q 78 194 97 127 q 60 349 60 262 q 81 494 60 427 q 140 610 101 561 q 236 688 179 660 q 363 716 292 716 q 480 692 432 716 q 565 624 528 667 l 573 678 q 606 703 580 703 l 680 703 z "},"r":{"ha":506,"x_min":98,"x_max":495,"o":"m 215 563 q 297 675 249 635 q 416 716 346 716 q 459 711 438 716 q 495 696 479 706 l 486 603 q 465 586 482 586 q 437 590 456 586 q 394 594 418 594 q 335 585 361 594 q 289 556 309 575 q 252 509 268 537 q 222 444 235 481 l 222 0 l 98 0 l 98 703 l 169 703 q 197 696 189 703 q 207 669 204 688 l 215 563 z "},"s":{"ha":601,"x_min":47,"x_max":547,"o":"m 508 588 q 482 572 499 572 q 458 580 472 572 q 426 597 445 588 q 381 614 407 606 q 318 622 354 622 q 262 614 287 622 q 219 592 237 606 q 192 560 201 578 q 183 520 183 542 q 198 475 183 493 q 240 444 214 457 q 298 420 265 431 q 365 399 331 410 q 432 374 399 388 q 490 339 465 360 q 532 288 516 318 q 547 215 547 258 q 530 125 547 167 q 478 54 513 84 q 395 6 444 24 q 281 -11 346 -11 q 148 13 208 -11 q 47 74 88 37 l 76 122 q 89 135 81 131 q 108 140 97 140 q 135 131 121 140 q 168 109 149 121 q 217 88 188 97 q 288 78 245 78 q 351 87 324 78 q 396 113 378 97 q 423 149 414 128 q 431 194 431 170 q 416 242 431 223 q 374 275 400 261 q 316 298 349 288 q 248 319 283 308 q 181 345 214 331 q 122 381 148 359 q 81 434 97 402 q 65 510 65 465 q 82 588 65 551 q 131 653 99 625 q 209 698 163 681 q 315 715 256 715 q 440 693 385 715 q 535 633 495 671 l 508 588 z "},"ş":{"ha":601,"x_min":47,"x_max":547,"o":"m 508 588 q 482 572 499 572 q 458 580 472 572 q 426 597 445 588 q 381 614 407 606 q 318 622 354 622 q 262 614 287 622 q 219 592 237 606 q 192 560 201 578 q 183 520 183 542 q 198 475 183 493 q 240 444 214 457 q 298 420 265 431 q 365 399 331 410 q 432 374 399 388 q 490 339 465 360 q 532 288 516 318 q 547 215 547 258 q 532 132 547 170 q 489 63 517 93 q 417 14 460 33 q 319 -10 374 -5 l 308 -52 q 401 -90 372 -65 q 429 -151 429 -114 q 418 -192 429 -174 q 387 -222 407 -210 q 340 -241 367 -235 q 278 -248 312 -248 q 224 -242 250 -248 q 177 -226 199 -236 l 189 -188 q 205 -176 193 -176 q 215 -178 209 -176 q 228 -184 220 -181 q 247 -189 236 -187 q 272 -192 258 -192 q 316 -180 301 -192 q 331 -150 331 -168 q 302 -113 331 -124 q 219 -95 273 -102 l 248 -10 q 135 18 185 -4 q 47 74 84 41 l 76 122 q 89 135 81 131 q 108 140 97 140 q 135 131 121 140 q 168 109 149 121 q 217 88 188 97 q 288 78 245 78 q 351 87 324 78 q 396 113 378 97 q 423 149 414 128 q 431 194 431 170 q 416 242 431 223 q 374 275 400 261 q 316 298 349 288 q 248 319 283 308 q 181 345 214 331 q 122 381 148 359 q 81 434 97 402 q 65 510 65 465 q 82 588 65 551 q 131 653 99 625 q 209 698 163 681 q 315 715 256 715 q 440 693 385 715 q 535 633 495 671 l 508 588 z "},"ß":{"ha":806,"x_min":98,"x_max":761,"o":"m 436 1010 q 560 989 508 1010 q 646 936 612 968 q 696 865 680 903 q 713 792 713 827 q 698 720 713 750 q 660 667 683 690 q 612 627 638 644 q 564 593 586 610 q 527 559 542 576 q 512 519 512 541 q 530 474 512 492 q 576 440 549 456 q 636 408 604 424 q 697 367 669 392 q 743 308 724 343 q 761 218 761 272 q 741 122 761 164 q 687 50 722 79 q 606 5 653 20 q 504 -11 558 -11 q 382 13 437 -11 q 285 74 326 37 l 314 122 q 327 135 319 131 q 347 140 335 140 q 374 131 360 140 q 406 109 388 121 q 451 88 425 97 q 515 78 477 78 q 569 87 544 78 q 610 113 593 97 q 637 151 628 128 q 646 199 646 173 q 626 262 646 238 q 578 304 607 286 q 514 336 549 322 q 451 371 480 351 q 402 420 422 391 q 383 494 383 449 q 398 559 383 531 q 437 608 414 586 q 488 649 460 630 q 539 688 515 667 q 577 734 562 709 q 593 792 593 758 q 584 836 593 814 q 556 877 576 859 q 506 907 537 895 q 431 918 475 918 q 345 903 383 918 q 279 860 307 889 q 236 787 251 831 q 222 685 222 743 l 222 0 l 98 0 l 98 689 q 122 820 98 761 q 190 922 146 879 q 297 987 235 964 q 436 1010 360 1010 z "},"ſ":{"ha":394,"x_min":34,"x_max":474,"o":"m 145 758 q 162 865 145 818 q 210 944 179 912 q 286 993 242 976 q 387 1010 331 1010 q 474 996 434 1010 l 469 932 q 464 922 469 925 q 451 918 459 919 q 431 918 442 917 q 407 918 420 918 q 349 909 375 918 q 306 881 324 901 q 278 831 288 862 q 269 754 269 799 l 269 0 l 145 0 l 145 599 l 67 607 q 43 618 52 610 q 34 639 34 625 l 34 690 l 145 690 l 145 758 z "},"t":{"ha":498,"x_min":30,"x_max":484,"o":"m 314 -11 q 186 35 231 -11 q 141 169 141 82 l 141 600 l 56 600 q 38 607 45 600 q 30 627 30 613 l 30 676 l 145 691 l 174 908 q 183 925 176 919 q 202 932 190 932 l 265 932 l 265 690 l 468 690 l 468 600 l 265 600 l 265 178 q 286 112 265 133 q 342 90 308 90 q 375 95 361 90 q 400 107 390 101 q 418 118 410 113 q 431 124 425 124 q 448 112 440 124 l 484 53 q 407 6 452 23 q 314 -11 362 -11 z "},"ť":{"ha":497,"x_min":28,"x_max":558,"o":"m 313 -11 q 184 35 229 -11 q 140 169 140 82 l 140 600 l 55 600 q 36 607 44 600 q 28 627 28 613 l 28 676 l 144 691 l 172 908 q 182 925 174 919 q 201 932 189 932 l 263 932 l 263 690 l 467 690 l 467 600 l 263 600 l 263 178 q 285 112 263 133 q 340 90 306 90 q 374 95 360 90 q 399 107 388 101 q 416 118 409 113 q 429 124 424 124 q 447 112 439 124 l 483 53 q 406 6 451 23 q 313 -11 360 -11 m 535 1024 q 555 1017 551 1024 q 558 1001 558 1010 q 556 983 558 994 q 547 951 553 972 q 530 899 541 931 q 501 822 519 868 q 484 802 494 807 q 457 797 474 797 l 414 797 l 453 1024 l 535 1024 z "},"ŧ":{"ha":503,"x_min":32,"x_max":486,"o":"m 44 481 l 143 481 l 143 600 l 58 600 q 40 607 47 600 q 32 627 32 613 l 32 676 l 147 691 l 176 908 q 185 925 178 919 q 204 932 192 932 l 267 932 l 267 690 l 470 690 l 470 600 l 267 600 l 267 481 l 472 481 l 472 402 l 267 402 l 267 178 q 288 112 267 133 q 344 90 310 90 q 377 95 363 90 q 402 107 392 101 q 420 118 413 113 q 433 124 427 124 q 450 112 442 124 l 486 53 q 409 6 454 23 q 316 -11 364 -11 q 188 35 233 -11 q 143 169 143 82 l 143 402 l 44 402 l 44 481 z "},"u":{"ha":774,"x_min":91,"x_max":676,"o":"m 676 703 l 676 0 l 603 0 q 569 26 576 0 l 560 101 q 457 20 514 51 q 326 -11 400 -11 q 225 8 269 -11 q 151 62 181 27 q 106 146 121 97 q 91 255 91 195 l 91 703 l 215 703 l 215 255 q 251 131 215 175 q 363 88 288 88 q 465 114 417 88 q 553 185 513 140 l 553 703 l 676 703 z "},"ų":{"ha":774,"x_min":91,"x_max":753,"o":"m 753 -201 q 700 -227 733 -217 q 633 -237 668 -237 q 536 -210 572 -237 q 501 -137 501 -183 q 529 -62 501 -97 q 599 0 556 -26 q 569 26 576 2 l 560 101 q 457 20 514 51 q 326 -11 400 -11 q 225 8 269 -11 q 151 62 181 27 q 106 146 121 97 q 91 255 91 195 l 91 703 l 215 703 l 215 255 q 251 131 215 175 q 363 88 288 88 q 465 114 417 88 q 553 185 513 140 l 553 703 l 676 703 l 676 0 l 677 0 q 649 -18 663 -8 q 622 -43 634 -29 q 603 -73 610 -56 q 595 -107 595 -89 q 612 -148 595 -133 q 658 -163 629 -163 q 685 -161 674 -163 q 702 -155 695 -158 q 714 -149 709 -152 q 722 -147 718 -147 q 730 -149 726 -147 q 734 -156 733 -152 l 753 -201 z "},"v":{"ha":717,"x_min":16,"x_max":701,"o":"m 701 703 l 414 0 l 303 0 l 16 703 l 117 703 q 142 696 132 703 q 155 678 151 688 l 333 225 q 348 175 342 199 q 360 126 354 151 q 372 175 365 151 q 387 225 378 199 l 567 678 q 581 696 572 689 q 604 703 591 703 l 701 703 z "},"w":{"ha":1091,"x_min":23,"x_max":1068,"o":"m 1068 703 l 840 0 l 742 0 q 717 24 724 0 l 562 501 q 553 533 556 517 q 546 565 549 549 q 539 533 542 549 q 530 500 535 517 l 372 24 q 344 0 365 0 l 251 0 l 23 703 l 120 703 q 145 696 135 703 q 158 678 155 688 l 293 225 q 312 131 305 175 q 325 177 318 153 q 339 225 331 201 l 488 681 q 500 698 491 691 q 521 705 508 705 l 575 705 q 598 698 589 705 q 610 681 607 691 l 756 225 q 769 177 763 201 q 781 131 776 153 q 790 177 785 153 q 801 225 795 200 l 939 678 q 952 696 942 689 q 975 703 962 703 l 1068 703 z "},"x":{"ha":692,"x_min":16,"x_max":676,"o":"m 676 0 l 557 0 q 533 8 542 0 q 519 26 524 16 l 342 301 q 336 282 339 292 q 327 265 333 273 l 163 26 q 148 8 156 16 q 126 0 140 0 l 16 0 l 263 361 l 26 703 l 144 703 q 167 699 160 703 q 179 685 174 694 l 352 421 q 369 460 358 441 l 521 682 q 534 698 527 692 q 552 703 542 703 l 666 703 l 429 367 l 676 0 z "},"y":{"ha":716,"x_min":15,"x_max":705,"o":"m 705 703 l 313 -208 q 297 -230 306 -222 q 268 -238 288 -238 l 176 -238 l 305 41 l 15 703 l 122 703 q 147 695 138 703 q 160 678 156 688 l 348 235 q 367 174 359 206 q 388 235 376 206 l 570 678 q 584 696 574 689 q 607 703 594 703 l 705 703 z "},"z":{"ha":628,"x_min":40,"x_max":583,"o":"m 583 651 q 579 625 583 638 q 567 603 574 613 l 185 97 l 570 97 l 570 0 l 40 0 l 40 51 q 44 73 40 60 q 57 96 49 85 l 440 606 l 62 606 l 62 703 l 583 703 l 583 651 z "},"ª":{"ha":510,"x_min":69,"x_max":419,"o":"m 331 765 q 249 757 283 763 q 195 742 216 751 q 165 720 174 733 q 156 694 156 708 q 174 653 156 665 q 220 641 192 641 q 281 654 256 641 q 331 692 307 667 l 331 765 m 92 941 q 169 991 127 975 q 263 1007 212 1007 q 329 995 300 1007 q 378 963 358 983 q 409 913 399 942 q 419 848 419 883 l 419 583 l 378 583 q 359 587 365 583 q 347 603 353 591 l 339 638 q 306 612 322 623 q 273 593 290 601 q 236 581 256 585 q 192 577 216 577 q 144 584 166 577 q 105 605 122 591 q 79 640 88 619 q 69 690 69 661 q 83 736 69 713 q 127 778 96 760 q 208 809 158 797 q 331 822 258 821 l 331 848 q 311 913 331 892 q 252 933 292 933 q 208 927 226 933 q 177 914 190 921 q 155 900 165 906 q 133 894 144 894 q 117 900 124 894 q 107 912 111 906 l 92 941 z "},"º":{"ha":558,"x_min":65,"x_max":494,"o":"m 281 1006 q 368 991 329 1006 q 435 949 408 976 q 478 881 463 921 q 494 792 494 841 q 478 701 494 742 q 435 633 463 661 q 368 590 408 605 q 281 575 329 575 q 192 590 231 575 q 124 633 152 605 q 81 701 96 661 q 65 792 65 742 q 81 881 65 841 q 124 949 96 921 q 192 991 152 976 q 281 1006 231 1006 m 281 649 q 368 685 339 649 q 397 791 397 722 q 368 897 397 860 q 281 933 339 933 q 191 897 219 933 q 163 791 163 860 q 191 685 163 722 q 281 649 219 649 z "},"ⁿ":{"ha":424,"x_min":58,"x_max":371,"o":"m 133 944 q 184 985 156 969 q 250 1001 211 1001 q 302 991 279 1001 q 340 962 324 981 q 363 919 355 944 q 371 864 371 894 l 371 635 l 283 635 l 283 864 q 268 914 283 897 q 223 931 253 931 q 182 921 201 931 q 145 894 163 911 l 145 635 l 58 635 l 58 995 l 103 995 q 118 991 113 995 q 127 976 124 987 l 133 944 z "},"`":{"ha":556,"x_min":91,"x_max":367,"o":"m 208 1006 q 242 999 231 1006 q 263 976 253 992 l 367 808 l 296 808 q 272 812 281 808 q 253 827 263 817 l 91 1006 l 208 1006 z "},"´":{"ha":556,"x_min":201,"x_max":480,"o":"m 480 1006 l 318 827 q 299 812 308 817 q 275 808 290 808 l 201 808 l 304 976 q 325 999 314 992 q 359 1006 337 1006 l 480 1006 z "},"ˆ":{"ha":556,"x_min":65,"x_max":490,"o":"m 490 812 l 408 812 q 392 815 400 812 q 376 825 384 817 l 291 917 q 280 930 285 922 q 274 923 276 926 q 268 917 271 919 l 182 825 q 151 812 167 812 l 65 812 l 220 995 l 335 995 l 490 812 z "},"ˇ":{"ha":556,"x_min":65,"x_max":490,"o":"m 490 995 l 335 812 l 220 812 l 65 995 l 151 995 q 167 992 159 995 q 178 985 174 988 l 267 890 q 273 883 271 887 q 279 876 276 880 q 285 883 283 880 q 291 890 288 887 l 380 985 q 392 992 385 988 q 408 995 400 995 l 490 995 z "},"̕":{"ha":0,"x_min":210,"x_max":355,"o":"m 332 1024 q 351 1017 347 1024 q 355 1001 355 1010 q 352 983 355 994 q 344 951 350 972 q 326 899 338 931 q 298 822 315 868 q 281 802 291 807 q 253 797 271 797 l 210 797 l 250 1024 l 332 1024 z "},"˜":{"ha":556,"x_min":77,"x_max":482,"o":"m 354 920 q 393 935 379 920 q 407 980 406 949 l 482 980 q 473 920 482 947 q 448 873 465 892 q 409 843 432 853 q 359 832 387 832 q 314 842 335 832 q 274 864 292 852 q 238 886 255 876 q 206 896 222 896 q 154 835 156 896 l 77 835 q 86 895 77 868 q 112 943 95 923 q 151 973 128 963 q 201 984 174 984 q 247 974 226 984 q 287 952 268 964 q 322 930 306 940 q 354 920 338 920 z "},"¨":{"ha":556,"x_min":67,"x_max":488,"o":"m 224 895 q 217 865 224 879 q 200 841 211 851 q 175 824 189 831 q 144 818 160 818 q 115 824 129 818 q 91 841 101 831 q 74 865 80 851 q 67 895 67 879 q 74 926 67 911 q 91 951 80 940 q 115 968 101 962 q 144 974 129 974 q 175 968 160 974 q 200 951 189 962 q 217 926 211 940 q 224 895 224 911 m 488 895 q 482 865 488 879 q 465 841 476 851 q 440 824 454 831 q 410 818 426 818 q 380 824 394 818 q 355 841 365 831 q 338 865 344 851 q 332 895 332 879 q 338 926 332 911 q 355 951 344 940 q 380 968 365 962 q 410 974 394 974 q 440 968 426 974 q 465 951 454 962 q 482 926 476 940 q 488 895 488 911 z "},"¯":{"ha":556,"x_min":78,"x_max":477,"o":"m 78 936 l 477 936 l 477 855 l 78 855 l 78 936 z "},"˘":{"ha":556,"x_min":88,"x_max":468,"o":"m 278 808 q 188 823 224 808 q 130 864 152 838 q 97 923 107 889 q 88 995 88 957 l 175 995 q 180 952 175 972 q 197 919 185 933 q 228 897 208 905 q 278 889 248 889 q 327 897 308 889 q 359 919 347 905 q 376 952 371 933 q 381 995 381 972 l 468 995 q 458 923 468 957 q 426 864 449 889 q 367 823 403 838 q 278 808 331 808 z "},"˚":{"ha":556,"x_min":139,"x_max":417,"o":"m 139 913 q 150 966 139 942 q 180 1007 161 990 q 224 1034 199 1024 q 277 1043 249 1043 q 331 1034 306 1043 q 376 1007 356 1024 q 406 966 395 990 q 417 913 417 942 q 406 861 417 885 q 376 821 395 838 q 331 795 356 804 q 277 785 306 785 q 224 795 249 785 q 180 821 199 804 q 150 861 161 838 q 139 913 139 885 m 208 913 q 227 863 208 883 q 278 844 246 844 q 329 863 310 844 q 348 913 348 883 q 329 964 348 944 q 278 983 310 983 q 227 964 246 983 q 208 913 208 944 z "},"˝":{"ha":556,"x_min":130,"x_max":581,"o":"m 363 1006 l 224 827 q 206 812 216 816 q 181 808 196 808 l 130 808 l 226 976 q 246 999 234 992 q 281 1006 258 1006 l 363 1006 m 581 1006 l 412 827 q 393 812 402 817 q 369 808 383 808 l 310 808 l 435 976 q 456 999 446 991 q 490 1006 467 1006 l 581 1006 z "},"˙":{"ha":556,"x_min":190,"x_max":366,"o":"m 366 929 q 359 895 366 911 q 339 868 351 880 q 311 849 327 856 q 277 842 295 842 q 243 849 259 842 q 216 868 228 856 q 197 895 204 880 q 190 929 190 911 q 197 964 190 947 q 216 992 204 980 q 243 1011 228 1004 q 277 1018 259 1018 q 311 1011 295 1018 q 339 992 327 1004 q 359 964 351 980 q 366 929 366 947 z "},"¸":{"ha":556,"x_min":168,"x_max":420,"o":"m 299 -52 q 392 -90 363 -65 q 420 -151 420 -114 q 409 -192 420 -174 q 378 -222 398 -210 q 331 -241 358 -235 q 269 -248 303 -248 q 215 -242 241 -248 q 168 -226 190 -236 l 180 -188 q 196 -176 184 -176 q 206 -178 200 -176 q 219 -184 211 -181 q 238 -189 227 -187 q 263 -192 249 -192 q 307 -180 292 -192 q 322 -150 322 -168 q 293 -113 322 -124 q 210 -95 264 -102 l 248 17 l 318 17 l 299 -52 z "},"˛":{"ha":556,"x_min":158,"x_max":410,"o":"m 378 -147 q 386 -149 383 -147 q 390 -156 389 -152 l 410 -201 q 357 -227 389 -217 q 289 -237 324 -237 q 193 -210 228 -237 q 158 -137 158 -183 q 166 -95 158 -115 q 190 -56 175 -74 q 225 -20 205 -37 q 269 9 246 -4 l 333 0 q 305 -18 319 -8 q 278 -43 290 -29 q 259 -73 267 -56 q 251 -107 251 -89 q 268 -148 251 -133 q 315 -163 285 -163 q 341 -161 331 -163 q 358 -155 351 -158 q 370 -149 365 -152 q 378 -147 374 -147 z "},"Γ":{"ha":761,"x_min":127,"x_max":740,"o":"m 740 889 l 262 889 l 262 0 l 127 0 l 127 995 l 740 995 l 740 889 z "},"Δ":{"ha":942,"x_min":19,"x_max":923,"o":"m 158 108 l 771 108 l 499 774 q 483 820 491 794 q 467 877 475 847 q 451 820 460 846 q 435 774 443 794 l 158 108 m 906 121 q 918 81 914 101 q 923 40 923 60 l 923 0 l 19 0 l 19 38 q 35 118 19 76 l 404 995 l 540 995 l 906 121 z "},"Θ":{"ha":1112,"x_min":65,"x_max":1047,"o":"m 360 558 l 751 558 l 751 448 l 360 448 l 360 558 m 1047 497 q 1011 292 1047 385 q 911 131 976 199 q 756 27 847 64 q 556 -10 665 -10 q 356 27 446 -10 q 201 131 265 64 q 101 292 136 199 q 65 497 65 385 q 101 702 65 609 q 201 864 136 796 q 356 969 265 931 q 556 1006 446 1006 q 756 969 665 1006 q 911 864 847 931 q 1011 702 976 796 q 1047 497 1047 609 m 908 497 q 883 662 908 589 q 813 785 858 735 q 701 863 767 835 q 556 890 636 890 q 410 863 476 890 q 299 785 345 835 q 228 662 253 735 q 203 497 203 589 q 228 333 203 406 q 299 210 253 260 q 410 133 345 160 q 556 106 476 106 q 701 133 636 106 q 813 210 767 160 q 883 333 858 260 q 908 497 908 406 z "},"Λ":{"ha":939,"x_min":3,"x_max":935,"o":"m 935 0 l 820 0 q 791 9 802 0 q 774 32 780 18 l 493 734 q 476 785 484 758 q 460 843 467 813 q 446 785 453 813 q 429 734 438 758 l 149 32 q 133 10 144 19 q 103 0 121 0 l 3 0 l 408 995 l 530 995 l 935 0 z "},"Ξ":{"ha":860,"x_min":59,"x_max":804,"o":"m 804 995 l 804 881 l 59 881 l 59 995 l 804 995 m 804 113 l 804 0 l 59 0 l 59 113 l 804 113 m 231 562 l 630 562 l 630 444 l 231 444 l 231 562 z "},"Π":{"ha":1060,"x_min":127,"x_max":933,"o":"m 933 0 l 799 0 l 799 889 l 262 889 l 262 0 l 127 0 l 127 995 l 933 995 l 933 0 z "},"Σ":{"ha":844,"x_min":46,"x_max":791,"o":"m 298 889 q 240 891 266 889 q 188 899 215 894 q 239 866 217 883 q 281 825 261 848 l 481 574 q 509 534 503 549 q 516 509 515 520 q 510 478 516 494 q 481 438 503 463 l 256 159 q 221 122 235 135 q 192 99 207 108 q 240 104 218 103 q 283 106 263 106 l 791 106 l 791 0 l 46 0 l 46 51 q 53 81 46 66 q 71 107 60 96 l 398 497 l 63 898 q 51 916 56 906 q 46 937 46 926 l 46 995 l 791 995 l 791 889 l 298 889 z "},"Φ":{"ha":1156,"x_min":49,"x_max":1108,"o":"m 642 160 q 781 188 719 160 q 886 261 842 215 q 953 368 930 307 q 977 500 977 430 q 953 631 977 569 q 886 739 930 692 q 781 812 842 785 q 642 840 719 839 l 642 160 m 515 840 q 376 813 438 840 q 270 739 314 785 q 203 631 226 692 q 179 500 179 569 q 203 368 179 430 q 270 261 226 307 q 376 188 314 215 q 515 160 438 160 l 515 840 m 642 946 q 837 909 751 945 q 983 813 923 874 q 1075 672 1043 752 q 1108 500 1108 591 q 1075 328 1108 409 q 983 187 1043 247 q 837 91 923 126 q 642 55 751 56 l 642 -80 l 515 -80 l 515 55 q 320 91 406 56 q 174 187 234 126 q 81 328 113 247 q 49 500 49 409 q 82 672 49 591 q 175 813 115 752 q 322 909 235 874 q 515 946 408 945 l 515 1074 l 642 1074 l 642 946 z "},"Ψ":{"ha":1133,"x_min":69,"x_max":1063,"o":"m 1063 995 l 1063 640 q 1035 480 1063 551 q 953 357 1008 408 q 819 276 899 306 q 633 243 739 247 l 633 0 l 498 0 l 498 243 q 312 276 392 247 q 178 357 232 306 q 96 480 124 408 q 69 640 69 551 l 69 995 l 158 995 q 192 982 181 995 q 204 948 204 968 l 204 640 q 221 521 204 573 q 273 432 238 469 q 365 376 309 396 q 498 352 420 356 l 498 995 l 633 995 l 633 352 q 767 376 711 356 q 859 432 823 396 q 912 521 895 469 q 928 640 928 573 l 928 948 q 940 982 928 968 q 974 995 952 995 l 1063 995 z "},"Ω":{"ha":1122,"x_min":73,"x_max":1049,"o":"m 1049 113 l 1049 44 q 1037 12 1049 24 q 1003 0 1024 0 l 642 0 l 642 156 q 747 200 699 166 q 831 284 795 233 q 887 401 867 335 q 907 540 907 466 q 879 692 907 627 q 803 801 851 758 q 693 867 756 845 q 561 889 631 889 q 429 867 492 889 q 319 801 367 845 q 243 692 272 758 q 215 540 215 627 q 235 401 215 466 q 291 284 256 335 q 375 200 327 233 q 480 156 424 166 l 480 0 l 119 0 q 85 12 98 0 q 73 44 73 24 l 73 113 l 272 113 q 323 110 297 113 q 376 104 350 108 q 258 167 313 126 q 165 265 204 208 q 103 392 126 322 q 81 541 81 462 q 119 731 81 645 q 222 878 157 817 q 374 972 287 939 q 561 1006 462 1006 q 748 972 660 1006 q 900 878 835 939 q 1003 731 965 817 q 1041 541 1041 645 q 1019 392 1041 462 q 957 265 997 322 q 864 167 918 208 q 746 104 810 126 q 799 110 772 108 q 851 113 826 113 l 1049 113 z "},"α":{"ha":822,"x_min":58,"x_max":814,"o":"m 572 493 q 545 541 561 518 q 506 581 528 563 q 455 609 483 599 q 391 619 426 619 q 313 603 350 619 q 248 553 276 587 q 203 467 219 519 q 186 343 186 415 q 201 229 186 276 q 240 150 215 181 q 297 105 264 119 q 365 90 329 90 q 432 104 400 90 q 488 145 463 117 q 530 215 513 172 q 553 316 547 258 l 572 493 m 814 87 l 814 37 q 792 8 814 21 q 730 -6 769 -6 q 677 2 703 -6 q 631 25 652 10 q 593 65 609 41 q 569 123 577 90 q 519 63 547 88 q 462 22 492 38 q 400 -2 432 6 q 336 -10 368 -10 q 227 14 278 -10 q 139 83 176 38 q 80 193 101 128 q 58 340 58 258 q 82 495 58 426 q 148 614 106 565 q 247 690 190 663 q 369 716 303 716 q 440 708 407 716 q 500 684 473 699 q 550 649 528 669 q 590 605 573 628 l 603 678 q 636 703 611 703 l 710 703 l 672 328 q 667 261 670 294 q 664 200 664 228 q 672 148 664 169 q 695 113 681 127 q 730 93 710 99 q 773 87 750 87 l 814 87 z "},"β":{"ha":774,"x_min":97,"x_max":720,"o":"m 222 172 q 289 108 251 129 q 383 87 327 87 q 475 103 435 87 q 541 149 515 120 q 582 217 568 178 q 595 301 595 256 q 577 392 595 355 q 530 453 560 429 q 459 487 499 476 q 372 497 418 497 l 330 497 l 330 595 l 358 595 q 431 604 397 595 q 488 631 464 613 q 526 680 513 650 q 540 753 540 710 q 499 873 540 831 q 386 914 458 914 q 313 898 344 914 q 261 849 282 883 q 231 760 241 815 q 222 629 222 706 l 222 172 m 97 633 q 169 909 97 813 q 388 1005 241 1005 q 507 985 457 1005 q 591 931 558 965 q 640 854 624 898 q 656 763 656 810 q 616 629 656 684 q 503 550 575 574 q 595 514 555 538 q 663 457 635 490 q 706 381 691 424 q 720 290 720 339 q 698 175 720 229 q 636 79 676 120 q 539 14 596 38 q 413 -10 483 -10 q 305 10 352 -10 q 222 70 257 29 l 222 -255 l 97 -255 l 97 633 z "},"γ":{"ha":755,"x_min":30,"x_max":734,"o":"m 734 703 q 684 529 714 615 q 618 362 655 444 q 537 204 581 281 q 446 58 494 128 l 446 -237 l 322 -237 l 322 60 q 269 279 297 177 q 209 455 242 381 q 140 573 177 530 q 56 615 102 615 l 30 615 l 30 661 q 33 679 30 671 q 42 694 35 688 q 62 704 49 700 q 94 708 74 708 q 206 672 158 708 q 292 567 255 636 q 357 395 330 497 q 405 161 384 293 q 468 275 439 215 q 519 399 497 335 q 560 529 542 463 q 592 661 578 595 q 606 694 595 685 q 630 703 617 703 l 734 703 z "},"δ":{"ha":765,"x_min":56,"x_max":710,"o":"m 384 86 q 466 101 428 86 q 530 146 503 117 q 571 216 556 175 q 586 310 586 258 q 569 409 586 366 q 525 487 553 453 q 463 548 498 521 q 389 597 427 574 q 311 560 348 583 q 245 503 274 537 q 200 425 217 470 q 183 322 183 381 q 195 232 183 274 q 233 157 208 189 q 295 105 258 124 q 384 86 333 86 m 617 901 q 607 878 615 884 q 583 873 599 873 q 553 878 574 873 q 503 888 531 883 q 443 899 474 894 q 382 903 411 903 q 294 885 319 903 q 268 839 268 866 q 287 793 268 814 q 337 751 306 772 q 408 708 368 731 q 489 660 447 686 q 570 601 531 634 q 641 527 610 569 q 691 434 672 486 q 710 315 710 381 q 687 183 710 242 q 622 81 664 124 q 519 15 579 38 q 384 -9 458 -9 q 244 16 306 -9 q 141 86 183 42 q 77 190 99 130 q 56 319 56 249 q 119 519 56 437 q 308 644 182 601 q 248 683 276 663 q 198 726 219 703 q 164 776 176 749 q 151 838 151 803 q 165 903 151 873 q 207 955 178 933 q 281 990 236 977 q 390 1002 326 1002 q 443 1000 413 1002 q 505 995 474 999 q 568 987 537 992 q 627 976 600 982 l 617 901 z "},"ε":{"ha":630,"x_min":59,"x_max":592,"o":"m 592 99 q 540 50 569 70 q 478 17 511 30 q 410 -3 445 3 q 340 -9 374 -9 q 231 6 282 -9 q 142 48 181 20 q 81 114 103 75 q 59 201 59 153 q 95 305 59 262 q 194 369 131 347 q 139 400 161 382 q 102 439 116 418 q 82 482 88 460 q 75 526 75 505 q 92 597 75 563 q 143 657 109 631 q 228 699 177 683 q 347 715 278 715 q 481 692 424 715 q 576 631 538 669 l 549 583 q 535 569 541 572 q 520 565 529 565 q 499 574 511 565 q 466 592 486 582 q 418 610 447 601 q 348 618 389 618 q 281 610 309 618 q 233 588 252 602 q 205 555 214 574 q 195 515 195 536 q 206 473 195 492 q 239 439 217 453 q 291 417 260 425 q 360 409 322 409 l 474 409 l 474 327 l 360 327 q 228 295 272 327 q 185 212 185 264 q 196 162 185 185 q 228 122 207 139 q 279 95 249 105 q 347 86 309 86 q 423 97 392 86 q 474 121 453 108 q 508 145 494 134 q 534 156 522 156 q 558 144 549 156 l 592 99 z "},"ζ":{"ha":544,"x_min":57,"x_max":569,"o":"m 559 942 q 559 928 560 936 q 549 909 557 920 q 526 881 541 897 q 486 840 511 865 q 418 775 454 810 q 348 702 383 740 q 283 620 314 663 q 228 532 251 578 q 190 438 204 487 q 176 338 176 389 q 189 257 176 290 q 225 200 201 224 q 284 160 249 176 q 365 130 319 144 q 470 89 430 110 q 532 45 510 68 q 561 -2 553 22 q 569 -54 569 -27 q 553 -144 569 -101 q 511 -230 538 -187 l 415 -192 q 441 -140 428 -169 q 453 -80 453 -110 q 449 -53 453 -67 q 428 -25 444 -39 q 383 2 413 -12 q 305 29 353 15 q 199 70 245 47 q 122 127 153 94 q 73 206 90 160 q 57 312 57 251 q 85 468 57 393 q 161 615 113 542 q 277 758 210 687 q 423 905 344 830 q 326 896 377 899 q 223 893 276 893 l 145 893 q 106 907 117 893 q 94 934 94 920 l 94 995 l 548 995 l 559 942 z "},"η":{"ha":810,"x_min":13,"x_max":719,"o":"m 13 667 q 27 697 13 683 q 79 710 42 710 q 178 683 136 710 q 237 598 221 656 q 347 682 285 650 q 484 715 408 715 q 586 695 542 715 q 660 641 630 676 q 705 557 690 606 q 719 448 719 508 l 719 -238 l 596 -238 l 596 448 q 559 572 596 528 q 448 616 523 616 q 345 590 393 616 q 258 518 298 563 l 258 0 l 134 0 l 134 513 q 111 592 134 567 q 42 617 88 617 l 13 617 l 13 667 z "},"θ":{"ha":829,"x_min":78,"x_max":751,"o":"m 200 463 q 259 179 204 271 q 415 88 315 88 q 570 179 515 88 q 630 463 626 271 l 200 463 m 630 549 q 568 821 623 733 q 415 910 513 910 q 262 821 317 910 q 200 549 207 733 l 630 549 m 415 1006 q 555 973 492 1006 q 660 876 617 940 q 727 717 704 813 q 751 499 751 622 q 727 279 751 374 q 660 120 704 184 q 555 23 617 56 q 415 -10 492 -10 q 275 23 338 -10 q 169 120 213 56 q 102 279 126 184 q 78 499 78 374 q 102 717 78 622 q 169 876 126 813 q 275 973 213 940 q 415 1006 338 1006 z "},"ι":{"ha":368,"x_min":93,"x_max":370,"o":"m 93 703 l 217 703 l 217 192 q 240 112 217 140 q 313 85 263 85 l 370 85 l 370 46 q 362 23 370 33 q 339 6 353 13 q 306 -5 325 -1 q 266 -8 288 -8 q 191 6 224 -8 q 137 45 159 19 q 104 107 115 71 q 93 185 93 142 l 93 703 z "},"λ":{"ha":749,"x_min":31,"x_max":751,"o":"m 751 85 l 751 35 q 735 1 751 9 q 688 -7 719 -7 q 633 -2 660 -7 q 582 18 606 3 q 538 58 558 33 q 503 125 518 84 l 377 451 q 368 479 372 466 q 363 504 365 492 q 356 479 360 492 q 347 453 352 467 l 174 26 q 161 8 170 16 q 135 0 151 0 l 31 0 l 303 644 l 233 838 q 217 873 226 858 q 195 895 208 887 q 165 908 183 904 q 124 912 148 912 l 74 912 l 74 958 q 77 976 74 967 q 89 990 81 984 q 113 1000 98 997 q 152 1004 128 1004 q 210 999 182 1004 q 262 980 238 993 q 306 943 286 966 q 338 885 325 920 l 610 163 q 647 103 625 122 q 708 85 669 85 l 751 85 z "},"μ":{"ha":830,"x_min":98,"x_max":826,"o":"m 826 86 l 826 36 q 804 7 826 20 q 742 -7 782 -7 q 686 1 713 -7 q 638 27 660 10 q 600 72 616 45 q 577 135 584 99 q 482 39 535 73 q 362 4 428 4 q 271 21 310 4 q 206 69 233 38 q 213 10 211 40 q 215 -44 215 -19 l 215 -238 l 153 -238 q 112 -224 126 -238 q 98 -185 98 -210 l 98 703 l 222 703 l 222 278 q 258 152 222 199 q 369 106 295 106 q 480 140 433 106 q 560 236 528 174 l 560 703 l 684 703 l 684 190 q 712 111 684 136 q 785 86 740 86 l 826 86 z "},"ν":{"ha":713,"x_min":15,"x_max":692,"o":"m 692 703 q 567 328 647 506 q 378 0 488 150 l 302 0 l 15 703 l 117 703 q 141 696 131 703 q 155 678 151 688 l 333 225 q 348 177 342 201 q 358 131 353 154 q 424 250 394 186 q 476 383 453 315 q 517 523 499 452 q 550 665 535 594 q 564 695 553 686 q 588 703 574 703 l 692 703 z "},"ξ":{"ha":547,"x_min":57,"x_max":551,"o":"m 533 943 q 517 908 533 921 q 484 894 502 894 l 423 894 q 337 880 376 894 q 271 842 299 866 q 228 784 244 817 q 213 713 213 751 q 264 612 213 647 q 413 576 315 576 l 474 576 l 474 478 l 383 478 q 292 465 331 478 q 229 431 254 453 q 192 377 204 408 q 180 308 180 346 q 194 240 180 269 q 235 190 208 212 q 304 150 263 168 q 399 113 344 131 q 473 80 444 97 q 520 43 503 63 q 544 1 537 24 q 551 -48 551 -22 q 535 -142 551 -98 q 493 -230 519 -186 l 397 -191 q 423 -139 410 -169 q 435 -80 435 -110 q 432 -52 435 -65 q 416 -27 428 -39 q 384 -6 405 -16 q 331 15 364 5 q 228 52 278 30 q 140 107 178 74 q 80 186 102 140 q 57 297 57 232 q 65 365 57 330 q 93 431 74 399 q 144 490 113 463 q 220 534 175 517 q 129 602 160 558 q 99 704 99 645 q 110 767 99 738 q 141 821 122 797 q 188 866 161 846 q 246 901 215 885 q 226 900 236 900 q 204 900 215 900 l 114 900 q 75 913 87 900 q 63 948 63 926 l 63 995 l 533 995 l 533 943 z "},"π":{"ha":855,"x_min":51,"x_max":810,"o":"m 810 638 q 800 610 810 622 q 770 599 790 599 l 668 599 q 667 525 667 559 q 666 456 666 491 q 669 314 666 374 q 677 214 672 255 q 690 148 682 173 q 710 110 699 123 q 735 92 721 97 q 766 88 749 88 l 792 88 l 792 38 q 769 7 792 17 q 710 -4 746 -4 q 639 10 669 -4 q 588 53 608 24 q 557 128 567 82 q 547 239 547 174 q 550 307 547 270 q 556 387 553 343 q 563 483 560 431 q 569 599 567 535 l 312 599 q 301 388 310 479 q 280 229 293 296 q 249 117 267 162 q 210 44 231 72 q 164 6 189 17 q 112 -6 139 -6 q 94 -4 103 -6 q 77 0 85 -3 q 65 8 69 3 q 60 19 60 13 l 60 103 l 74 103 q 116 130 94 103 q 156 216 138 157 q 187 369 174 274 q 203 599 200 463 l 51 599 l 51 651 q 55 666 51 658 q 64 681 58 674 q 79 692 70 688 q 99 697 88 697 l 810 697 l 810 638 z "},"ρ":{"ha":781,"x_min":89,"x_max":723,"o":"m 213 183 q 295 109 248 133 q 392 86 342 86 q 542 156 490 86 q 595 356 595 226 q 581 474 595 425 q 541 555 567 524 q 480 601 516 587 q 401 616 444 616 q 327 602 362 616 q 268 560 293 588 q 227 493 242 533 q 213 403 213 453 l 213 183 m 89 403 q 110 532 89 474 q 172 630 132 590 q 270 693 213 671 q 401 715 328 715 q 527 691 468 715 q 629 622 585 667 q 698 509 672 576 q 723 356 723 442 q 702 211 723 278 q 642 95 681 144 q 547 18 603 47 q 419 -10 490 -10 q 304 14 356 -10 q 213 78 252 37 l 213 -238 l 89 -238 l 89 403 z "},"σ":{"ha":831,"x_min":58,"x_max":824,"o":"m 443 604 q 325 587 374 604 q 245 536 276 569 q 200 454 214 503 q 185 342 185 405 q 239 152 185 217 q 394 87 293 87 q 550 155 499 87 q 601 350 601 222 q 594 438 601 396 q 571 513 586 479 q 533 570 556 547 q 478 604 510 594 l 443 604 m 824 700 l 824 642 q 822 629 824 635 q 814 617 819 622 q 801 608 808 611 q 783 604 793 604 l 616 604 q 699 501 669 565 q 728 345 728 436 q 706 202 728 267 q 640 90 683 137 q 535 16 597 42 q 395 -10 473 -10 q 257 14 319 -10 q 151 84 195 38 q 83 195 107 130 q 58 344 58 261 q 83 493 58 427 q 157 605 108 559 q 278 675 206 651 q 443 700 350 700 l 824 700 z "},"ς":{"ha":644,"x_min":57,"x_max":619,"o":"m 587 578 q 576 567 581 571 q 560 563 570 563 q 538 571 550 563 q 507 590 525 580 q 461 609 488 601 q 396 618 435 618 q 304 600 344 618 q 238 550 265 582 q 198 476 211 519 q 184 384 184 433 q 202 273 184 316 q 253 201 219 230 q 334 152 286 172 q 444 113 383 133 q 519 79 490 97 q 565 42 548 62 q 589 0 583 23 q 596 -48 596 -22 q 580 -142 596 -98 q 538 -230 565 -187 l 442 -192 q 468 -140 456 -169 q 481 -81 481 -110 q 477 -53 481 -66 q 461 -28 473 -40 q 430 -6 450 -16 q 376 15 409 5 q 252 59 310 34 q 151 124 194 84 q 82 225 108 164 q 57 377 57 285 q 79 508 57 447 q 143 615 101 569 q 247 688 185 661 q 388 715 308 715 q 519 691 463 715 q 619 623 576 667 l 587 578 z "},"τ":{"ha":649,"x_min":18,"x_max":625,"o":"m 625 647 q 614 614 625 626 q 581 602 602 602 l 359 602 l 359 195 q 382 115 359 142 q 456 88 405 88 l 513 88 l 513 49 q 504 26 513 36 q 482 9 496 16 q 449 -1 467 2 q 408 -5 430 -5 q 334 9 366 -5 q 280 49 301 23 q 247 110 258 74 q 235 188 235 145 l 235 602 l 18 602 l 18 656 q 29 684 18 672 q 60 697 40 697 l 625 697 l 625 647 z "},"υ":{"ha":767,"x_min":90,"x_max":690,"o":"m 652 703 q 667 620 660 660 q 679 541 674 580 q 687 461 684 501 q 690 377 690 421 q 664 202 690 276 q 593 81 638 128 q 492 11 549 34 q 372 -11 434 -11 q 253 7 306 -11 q 165 60 201 26 q 109 144 128 94 q 90 255 90 193 l 90 703 l 215 703 l 215 255 q 226 184 215 215 q 260 132 238 153 q 312 99 282 110 q 380 88 342 88 q 448 102 414 88 q 509 150 482 116 q 553 239 536 183 q 570 377 570 294 q 557 519 570 449 q 533 661 544 590 q 542 694 531 684 q 567 703 554 703 l 652 703 z "},"φ":{"ha":1024,"x_min":56,"x_max":967,"o":"m 567 83 q 686 105 635 84 q 772 164 738 126 q 825 255 807 201 q 842 373 842 308 q 827 473 842 428 q 788 552 813 519 q 731 603 763 585 q 664 622 699 622 q 592 592 617 622 q 567 496 567 563 l 567 83 m 451 496 q 507 662 451 609 q 664 715 563 715 q 787 688 731 715 q 882 616 842 662 q 944 508 922 570 q 967 373 967 445 q 939 217 967 288 q 858 97 910 147 q 732 19 806 47 q 567 -10 658 -9 l 567 -237 l 451 -237 l 451 -10 q 286 19 360 -9 q 162 95 213 47 q 84 209 111 143 q 56 352 56 274 q 74 470 56 415 q 124 571 92 525 q 202 652 156 617 q 303 710 247 687 l 334 660 q 338 629 343 645 q 321 608 332 613 q 217 505 253 572 q 181 351 181 438 q 198 246 181 294 q 249 161 215 197 q 334 105 283 126 q 451 83 384 84 l 451 496 z "},"χ":{"ha":665,"x_min":-1,"x_max":678,"o":"m 678 -155 l 678 -205 q 676 -226 678 -218 q 668 -240 674 -235 q 652 -246 663 -244 q 627 -248 642 -248 q 573 -243 599 -248 q 524 -223 547 -237 q 481 -183 501 -208 q 443 -115 460 -157 l 319 164 q 311 123 316 142 q 300 88 306 103 l 151 -210 q 139 -228 148 -220 q 114 -236 130 -236 l 26 -236 l 264 258 l 138 544 q 118 578 128 565 q 95 601 108 592 q 65 614 82 610 q 23 618 47 618 l -1 618 l -1 665 q -1 683 -1 674 q 5 697 0 691 q 20 707 9 703 q 51 711 31 711 q 167 684 122 711 q 242 592 213 657 l 360 324 q 368 365 363 345 q 379 399 374 384 l 514 678 q 527 695 518 688 q 551 703 535 703 l 640 703 l 414 232 l 552 -78 q 592 -137 570 -119 q 653 -155 614 -155 l 678 -155 z "},"ψ":{"ha":1060,"x_min":88,"x_max":983,"o":"m 945 703 q 961 620 953 660 q 973 541 968 580 q 981 461 978 501 q 983 377 983 421 q 951 202 983 274 q 866 86 919 131 q 742 19 813 42 q 593 -8 671 -3 l 593 -237 l 469 -237 l 469 -10 q 303 22 375 -4 q 184 91 232 47 q 112 194 136 134 q 88 331 88 255 l 88 703 l 173 703 q 188 699 181 703 q 200 686 194 694 q 208 671 205 679 q 211 655 211 663 l 211 331 q 229 235 211 277 q 281 164 247 194 q 362 115 314 133 q 469 90 410 97 l 469 995 l 593 995 l 593 90 q 697 112 649 95 q 782 162 746 128 q 839 248 818 195 q 860 377 860 301 q 855 464 860 426 q 845 536 851 503 q 833 599 839 569 q 822 661 826 628 q 833 694 822 684 q 857 703 844 703 l 945 703 z "},"ω":{"ha":1060,"x_min":61,"x_max":1000,"o":"m 903 703 q 973 533 945 622 q 1000 349 1000 444 q 980 199 1000 265 q 924 86 960 133 q 839 14 888 39 q 732 -11 790 -11 q 664 -2 694 -11 q 608 24 633 7 q 563 63 583 40 q 530 114 544 86 q 496 63 516 86 q 451 24 476 40 q 396 -2 426 7 q 329 -11 365 -11 q 222 14 272 -11 q 137 86 173 39 q 81 199 101 133 q 61 349 61 265 q 88 533 61 444 q 157 703 115 622 l 245 703 q 259 700 251 703 q 273 691 267 697 q 279 674 278 684 q 274 648 281 663 q 246 592 262 626 q 217 518 231 558 q 194 434 203 478 q 185 349 185 390 q 200 219 185 270 q 239 140 216 169 q 291 99 263 110 q 344 88 319 88 q 399 102 375 88 q 438 142 422 116 q 460 203 453 167 q 468 283 468 240 l 468 470 l 592 470 l 592 283 q 600 203 592 240 q 623 142 608 167 q 663 102 639 116 q 717 88 686 88 q 770 99 742 88 q 821 140 798 110 q 860 219 844 169 q 876 349 876 270 q 866 434 876 390 q 843 518 857 478 q 814 592 830 558 q 786 648 799 626 q 781 674 780 663 q 788 691 783 684 q 802 700 794 697 q 816 703 810 703 l 903 703 z "},"΄":{"ha":556,"x_min":240,"x_max":397,"o":"m 240 797 l 287 1037 l 364 1037 q 390 1025 383 1037 q 390 992 397 1013 l 313 797 l 240 797 z "},"΅":{"ha":556,"x_min":67,"x_max":547,"o":"m 238 801 l 285 1041 l 363 1041 q 388 1029 381 1041 q 388 997 394 1017 l 312 801 l 238 801 m 547 890 q 542 865 547 877 q 528 845 537 853 q 507 831 519 836 q 481 826 494 826 q 456 831 467 826 q 435 845 444 836 q 420 865 426 853 q 415 890 415 877 q 420 916 415 904 q 435 938 426 928 q 456 952 444 947 q 481 958 467 958 q 507 952 494 958 q 528 938 519 947 q 542 916 537 928 q 547 890 547 904 m 199 890 q 193 865 199 877 q 178 845 188 853 q 157 831 169 836 q 131 826 144 826 q 106 831 118 826 q 86 845 94 836 q 72 865 77 853 q 67 890 67 877 q 72 916 67 904 q 86 938 77 928 q 106 952 94 947 q 131 958 118 958 q 157 952 144 958 q 178 938 169 947 q 193 916 188 928 q 199 890 199 904 z "},"ʹ":{"ha":295,"x_min":60,"x_max":234,"o":"m 215 1050 q 210 854 234 950 q 111 677 185 758 l 73 702 q 61 719 62 710 q 66 737 60 729 q 98 786 84 762 q 118 836 112 810 q 122 888 125 861 q 104 944 119 915 l 104 1016 q 112 1040 104 1031 q 138 1050 120 1050 l 215 1050 z "},"͵":{"ha":295,"x_min":60,"x_max":234,"o":"m 215 228 q 210 32 234 128 q 111 -144 185 -64 l 73 -119 q 61 -102 62 -112 q 66 -85 60 -92 q 98 -35 84 -60 q 118 14 112 -11 q 122 66 125 40 q 104 122 119 93 l 104 194 q 112 219 104 209 q 138 228 120 228 l 215 228 z "},"Б":{"ha":861,"x_min":127,"x_max":804,"o":"m 454 107 q 553 120 512 107 q 620 157 594 133 q 659 213 647 180 q 671 285 671 246 q 659 359 671 327 q 620 414 647 392 q 553 448 594 437 q 455 460 513 460 l 261 460 l 261 107 l 454 107 m 455 567 q 612 547 546 567 q 720 491 678 527 q 784 406 763 456 q 804 299 804 357 q 781 175 804 230 q 713 81 758 119 q 603 21 668 42 q 454 0 538 0 l 127 0 l 127 995 l 770 995 l 770 889 l 261 889 l 261 567 l 455 567 z "},"Г":{"ha":747,"x_min":127,"x_max":726,"o":"m 726 889 l 262 889 l 262 0 l 127 0 l 127 995 l 726 995 l 726 889 z "},"Ґ":{"ha":747,"x_min":127,"x_max":726,"o":"m 726 889 l 262 889 l 262 0 l 127 0 l 127 995 l 622 995 l 622 1219 l 726 1219 l 726 889 z "},"Д":{"ha":1092,"x_min":10,"x_max":1058,"o":"m 760 106 l 760 889 l 431 889 q 408 590 423 719 q 372 367 392 462 q 325 209 351 273 q 269 106 299 146 l 760 106 m 1058 106 l 1058 -202 q 1047 -231 1058 -220 q 1015 -242 1035 -242 l 935 -242 l 935 0 l 133 0 l 133 -202 q 121 -231 133 -220 q 90 -242 109 -242 l 10 -242 l 10 106 l 111 106 q 154 139 133 116 q 195 206 176 163 q 233 315 215 249 q 264 477 250 381 q 289 700 278 572 q 305 995 299 828 l 896 995 l 896 106 l 1058 106 z "},"Ж":{"ha":1442,"x_min":12,"x_max":1431,"o":"m 1431 0 l 1341 0 q 1290 13 1312 0 q 1256 48 1269 26 l 1003 401 q 961 443 985 430 q 900 456 937 456 l 785 456 l 785 0 l 658 0 l 658 456 l 543 456 q 482 443 506 456 q 439 401 458 430 l 187 48 q 153 13 174 26 q 102 0 131 0 l 12 0 l 308 431 q 356 489 330 467 q 416 521 382 510 q 365 549 386 531 q 325 597 344 568 l 35 995 l 140 995 q 180 984 162 995 q 208 955 197 974 l 458 610 q 503 569 479 579 q 559 559 527 559 l 658 559 l 658 995 l 785 995 l 785 559 l 884 559 q 939 569 915 559 q 985 610 963 579 l 1234 955 q 1263 984 1245 974 q 1302 995 1281 995 l 1408 995 l 1117 597 q 1077 549 1098 568 q 1027 521 1056 531 q 1087 489 1060 510 q 1135 431 1113 467 l 1431 0 z "},"З":{"ha":799,"x_min":29,"x_max":730,"o":"m 69 902 q 200 978 126 952 q 369 1005 274 1005 q 507 986 446 1005 q 612 933 569 967 q 678 853 655 899 q 701 751 701 806 q 664 619 701 676 q 560 531 627 562 q 629 491 598 515 q 683 439 660 468 q 718 375 706 410 q 730 302 730 340 q 706 180 730 237 q 635 81 681 123 q 522 15 589 39 q 368 -10 454 -10 q 176 25 261 -10 q 29 120 90 60 l 68 184 q 82 197 74 192 q 100 202 90 202 q 135 186 115 202 q 186 152 155 171 q 262 118 217 133 q 372 102 307 102 q 470 115 426 102 q 543 153 513 128 q 588 215 572 178 q 603 296 603 251 q 589 367 603 335 q 545 423 574 400 q 476 459 517 447 q 383 472 435 472 l 247 472 l 247 583 l 378 583 q 457 593 420 583 q 519 624 493 603 q 560 673 545 644 q 575 740 575 702 q 561 802 575 774 q 521 851 547 831 q 456 883 494 872 q 369 894 418 894 q 274 882 313 894 q 207 856 234 870 q 163 830 180 842 q 133 818 146 818 q 115 823 122 818 q 102 839 108 828 l 69 902 z "},"И":{"ha":1060,"x_min":127,"x_max":933,"o":"m 933 995 l 933 0 l 799 0 l 799 707 q 800 769 799 737 q 806 838 801 801 q 781 779 794 806 q 754 732 768 752 l 288 42 q 263 13 278 26 q 227 0 247 0 l 127 0 l 127 995 l 262 995 l 262 288 q 260 225 262 258 q 254 156 259 193 q 280 215 266 188 q 306 263 293 242 l 773 953 q 798 982 783 969 q 833 995 813 995 l 933 995 z "},"К":{"ha":931,"x_min":127,"x_max":922,"o":"m 922 0 l 801 0 q 766 11 781 0 q 740 42 752 22 l 476 407 q 438 445 458 434 q 381 456 417 456 l 261 456 l 261 0 l 127 0 l 127 995 l 261 995 l 261 559 l 365 559 q 418 569 396 559 q 461 607 440 578 l 722 957 q 747 984 732 974 q 782 995 762 995 l 895 995 l 594 586 q 507 520 560 538 q 569 489 544 510 q 617 431 594 468 l 922 0 z "},"Л":{"ha":1008,"x_min":-5,"x_max":881,"o":"m 881 0 l 746 0 l 746 889 l 417 889 q 391 556 407 697 q 351 315 374 415 q 298 152 328 215 q 234 53 269 90 q 158 4 199 17 q 73 -9 118 -9 q 15 -2 35 -9 q -5 17 -5 4 l -5 103 l 44 103 q 99 114 72 103 q 151 157 126 124 q 198 250 176 190 q 238 410 220 310 q 269 652 256 509 q 290 995 283 796 l 881 995 l 881 0 z "},"Љ":{"ha":1464,"x_min":-5,"x_max":1423,"o":"m 1074 107 q 1172 120 1131 107 q 1240 157 1213 133 q 1278 213 1266 180 q 1290 285 1290 246 q 1278 359 1290 327 q 1240 414 1266 392 q 1173 448 1214 437 q 1074 460 1132 460 l 881 460 l 881 107 l 1074 107 m 1074 567 q 1231 547 1165 567 q 1339 491 1297 527 q 1402 406 1382 456 q 1423 299 1423 357 q 1400 175 1423 230 q 1332 81 1376 119 q 1222 21 1288 42 q 1074 0 1157 0 l 746 0 l 746 889 l 417 889 q 391 556 407 697 q 351 315 374 415 q 298 152 328 215 q 234 53 269 90 q 158 4 199 17 q 73 -9 118 -9 q 15 -2 35 -9 q -5 17 -5 4 l -5 103 l 44 103 q 99 114 72 103 q 151 157 126 124 q 198 250 176 190 q 238 410 220 310 q 269 652 256 509 q 290 995 283 796 l 881 995 l 881 567 l 1074 567 z "},"Њ":{"ha":1517,"x_min":127,"x_max":1476,"o":"m 1126 107 q 1225 120 1184 107 q 1293 157 1267 133 q 1331 213 1319 180 q 1343 285 1343 246 q 1331 359 1343 327 q 1293 414 1319 392 q 1226 448 1267 437 q 1127 460 1185 460 l 933 460 l 933 107 l 1126 107 m 1127 567 q 1284 547 1218 567 q 1393 491 1350 527 q 1456 406 1435 456 q 1476 299 1476 357 q 1453 175 1476 230 q 1385 81 1430 119 q 1275 21 1340 42 q 1126 0 1210 0 l 799 0 l 799 453 l 262 453 l 262 0 l 127 0 l 127 995 l 262 995 l 262 551 l 799 551 l 799 995 l 933 995 l 933 567 l 1127 567 z "},"Ѳ":{"ha":1112,"x_min":65,"x_max":1047,"o":"m 204 456 q 237 308 210 373 q 310 199 265 244 q 418 130 356 153 q 556 106 481 106 q 693 130 631 106 q 801 199 756 153 q 874 308 847 244 q 907 456 901 373 l 204 456 m 906 558 q 869 697 897 635 q 796 802 842 759 q 690 867 751 844 q 556 890 629 890 q 422 867 483 890 q 315 802 360 844 q 242 697 270 759 q 206 558 214 635 l 906 558 m 556 1006 q 756 969 665 1006 q 911 864 847 931 q 1011 702 976 796 q 1047 497 1047 609 q 1011 292 1047 385 q 911 131 976 199 q 756 27 847 64 q 556 -10 665 -10 q 356 27 446 -10 q 201 131 265 64 q 101 292 136 199 q 65 497 65 385 q 101 702 65 609 q 201 864 136 796 q 356 969 265 931 q 556 1006 446 1006 z "},"П":{"ha":1022,"x_min":127,"x_max":894,"o":"m 894 0 l 759 0 l 759 889 l 262 889 l 262 0 l 127 0 l 127 995 l 894 995 l 894 0 z "},"У":{"ha":869,"x_min":5,"x_max":869,"o":"m 869 995 l 465 130 q 424 62 446 89 q 377 20 402 35 q 323 -2 352 4 q 260 -9 294 -9 q 203 -2 223 -9 q 183 17 183 4 l 183 103 l 231 103 q 266 107 249 103 q 299 120 283 110 q 330 146 315 130 q 356 188 344 163 l 405 289 l 5 995 l 131 995 q 159 986 149 995 q 177 964 169 978 l 423 513 q 465 413 449 463 q 482 463 472 438 q 503 513 491 488 l 712 964 q 729 985 717 976 q 758 995 740 995 l 869 995 z "},"Ѵ":{"ha":969,"x_min":2,"x_max":954,"o":"m 707 866 q 775 966 729 933 q 888 999 821 999 q 940 993 925 999 q 954 973 954 987 l 954 889 l 917 889 q 863 870 886 889 q 826 815 840 852 l 528 0 l 408 0 l 2 995 l 110 995 q 139 986 128 995 q 156 963 150 977 l 437 261 q 454 210 446 238 q 470 153 463 183 q 484 210 476 183 q 501 261 492 238 l 707 866 z "},"Ф":{"ha":1087,"x_min":53,"x_max":1033,"o":"m 608 226 q 727 251 674 227 q 819 315 781 274 q 878 408 858 355 q 899 523 899 462 q 878 637 899 583 q 819 730 858 690 q 727 794 781 770 q 608 819 674 817 l 608 226 m 480 819 q 360 794 414 818 q 268 731 306 771 q 209 637 230 690 q 188 523 188 583 q 209 408 188 462 q 268 315 230 355 q 360 251 306 274 q 480 226 414 227 l 480 819 m 608 924 q 781 889 703 922 q 916 802 860 857 q 1002 676 972 748 q 1033 523 1033 604 q 1002 369 1033 441 q 916 242 972 297 q 781 155 860 188 q 608 120 703 122 l 608 0 l 480 0 l 480 120 q 306 155 384 122 q 171 242 227 188 q 84 369 115 297 q 53 523 53 441 q 85 676 53 604 q 172 802 116 748 q 307 889 228 857 q 480 924 385 922 l 480 1040 l 608 1040 l 608 924 z "},"Ц":{"ha":1083,"x_min":127,"x_max":1047,"o":"m 1047 106 l 1047 -202 q 1034 -231 1047 -220 q 1003 -242 1022 -242 l 923 -242 l 923 0 l 127 0 l 127 995 l 262 995 l 262 106 l 759 106 l 759 995 l 894 995 l 894 106 l 1047 106 z "},"Џ":{"ha":1022,"x_min":127,"x_max":894,"o":"m 894 995 l 894 0 l 572 0 l 572 -202 q 560 -231 572 -220 q 529 -242 548 -242 l 449 -242 l 449 0 l 127 0 l 127 995 l 262 995 l 262 106 l 759 106 l 759 995 l 894 995 z "},"Ч":{"ha":918,"x_min":64,"x_max":792,"o":"m 792 995 l 792 0 l 656 0 l 656 431 q 502 398 577 410 q 361 386 427 385 q 241 402 296 387 q 147 451 186 417 q 86 539 108 485 q 64 670 64 592 l 64 995 l 199 995 l 199 669 q 226 558 199 601 q 311 499 254 516 q 454 490 368 483 q 656 528 540 498 l 656 995 l 792 995 z "},"Ш":{"ha":1495,"x_min":127,"x_max":1368,"o":"m 1368 995 l 1368 0 l 127 0 l 127 995 l 262 995 l 262 106 l 678 106 l 678 995 l 813 995 l 813 106 l 1233 106 l 1233 995 l 1368 995 z "},"Щ":{"ha":1557,"x_min":127,"x_max":1520,"o":"m 1520 106 l 1520 -202 q 1508 -231 1520 -220 q 1477 -242 1496 -242 l 1397 -242 l 1397 0 l 127 0 l 127 995 l 262 995 l 262 106 l 678 106 l 678 995 l 813 995 l 813 106 l 1233 106 l 1233 995 l 1368 995 l 1368 106 l 1520 106 z "},"Ъ":{"ha":1024,"x_min":20,"x_max":983,"o":"m 633 107 q 732 120 691 107 q 800 157 774 133 q 838 213 826 180 q 850 285 850 246 q 838 359 850 327 q 800 414 826 392 q 733 448 774 437 q 634 460 692 460 l 440 460 l 440 107 l 633 107 m 634 567 q 791 547 725 567 q 900 491 857 527 q 963 406 942 456 q 983 299 983 357 q 960 175 983 230 q 892 81 937 119 q 782 21 847 42 q 633 0 717 0 l 306 0 l 306 885 l 20 885 l 20 995 l 440 995 l 440 567 l 634 567 z "},"Ы":{"ha":1249,"x_min":127,"x_max":1122,"o":"m 454 107 q 553 120 512 107 q 620 157 594 133 q 659 213 647 180 q 671 285 671 246 q 659 359 671 327 q 620 414 647 392 q 553 448 594 437 q 455 460 513 460 l 261 460 l 261 107 l 454 107 m 455 567 q 612 547 546 567 q 720 491 678 527 q 784 406 763 456 q 804 299 804 357 q 781 175 804 230 q 713 81 758 119 q 603 21 668 42 q 454 0 538 0 l 127 0 l 127 995 l 261 995 l 261 567 l 455 567 m 1122 0 l 987 0 l 987 995 l 1122 995 l 1122 0 z "},"Ь":{"ha":844,"x_min":127,"x_max":804,"o":"m 454 107 q 553 120 512 107 q 620 157 594 133 q 659 213 647 180 q 671 285 671 246 q 659 359 671 327 q 620 414 647 392 q 553 448 594 437 q 455 460 513 460 l 261 460 l 261 107 l 454 107 m 455 567 q 612 547 546 567 q 720 491 678 527 q 784 406 763 456 q 804 299 804 357 q 781 175 804 230 q 713 81 758 119 q 603 21 668 42 q 454 0 538 0 l 127 0 l 127 995 l 261 995 l 261 567 l 455 567 z "},"Э":{"ha":938,"x_min":40,"x_max":872,"o":"m 55 880 q 198 972 117 938 q 385 1006 279 1006 q 583 969 494 1006 q 737 865 673 932 q 837 703 801 797 q 872 497 872 610 q 838 291 872 385 q 742 130 804 197 q 593 26 681 63 q 399 -11 506 -11 q 188 28 275 -11 q 40 139 101 68 l 93 197 q 113 206 101 206 q 136 195 124 206 q 188 155 162 172 q 244 126 214 138 q 310 110 274 115 q 390 105 345 105 q 519 128 459 105 q 624 197 578 152 q 699 307 670 242 q 733 456 727 372 l 231 456 l 231 558 l 732 558 q 695 698 724 636 q 621 802 666 759 q 516 867 576 844 q 386 890 456 890 q 278 876 322 890 q 206 846 235 863 q 158 816 176 829 q 128 802 140 802 q 110 807 117 802 q 99 818 103 811 l 55 880 z "},"Є":{"ha":939,"x_min":66,"x_max":899,"o":"m 826 206 q 845 197 837 206 l 899 139 q 750 28 838 68 q 540 -11 663 -11 q 345 26 433 -11 q 196 130 258 63 q 100 291 134 197 q 66 497 66 385 q 101 703 66 610 q 201 865 137 797 q 355 969 265 932 q 553 1006 444 1006 q 740 972 659 1006 q 883 880 822 938 l 839 818 q 828 807 835 811 q 810 802 822 802 q 780 816 798 802 q 733 846 762 829 q 660 876 703 863 q 552 890 616 890 q 422 867 482 890 q 317 802 363 844 q 243 697 272 759 q 206 558 215 635 l 706 558 l 706 456 l 205 456 q 240 307 211 372 q 314 197 268 242 q 419 128 360 152 q 548 105 479 105 q 628 110 592 105 q 694 126 664 115 q 750 155 724 138 q 802 195 776 172 q 826 206 814 206 z "},"Ю":{"ha":1450,"x_min":127,"x_max":1383,"o":"m 929 103 q 1060 130 1001 103 q 1159 208 1118 157 q 1223 332 1201 259 q 1245 497 1245 406 q 1223 662 1245 589 q 1159 787 1201 735 q 1060 866 1118 838 q 929 893 1001 893 q 798 866 856 893 q 698 787 740 838 q 635 662 657 735 q 613 497 613 589 q 635 332 613 406 q 698 208 657 259 q 798 130 740 157 q 929 103 856 103 m 477 550 q 520 735 485 651 q 614 879 556 819 q 753 973 673 940 q 929 1006 833 1006 q 1116 969 1032 1006 q 1259 864 1199 931 q 1350 702 1318 796 q 1383 497 1383 609 q 1350 292 1383 385 q 1259 132 1318 199 q 1116 27 1199 65 q 929 -10 1032 -10 q 753 23 833 -10 q 614 116 673 56 q 520 259 556 176 q 477 444 485 343 l 262 444 l 262 0 l 127 0 l 127 995 l 262 995 l 262 550 l 477 550 z "},"Я":{"ha":924,"x_min":-3,"x_max":797,"o":"m 663 535 l 663 888 l 465 888 q 367 876 408 888 q 299 840 326 863 q 261 784 273 817 q 249 713 249 752 q 261 638 249 671 q 299 582 273 605 q 366 547 325 559 q 465 535 408 535 l 663 535 m 797 0 l 663 0 l 663 428 l 527 428 q 492 425 508 428 q 460 414 476 422 q 430 391 445 406 q 399 355 415 377 l 183 48 q 149 13 171 26 q 99 0 128 0 l -3 0 l 255 363 q 353 450 297 424 q 249 485 293 461 q 175 542 204 508 q 131 619 145 576 q 116 712 116 662 q 139 828 116 776 q 207 917 163 880 q 317 975 252 954 q 465 995 382 995 l 797 995 l 797 0 z "},"Ђ":{"ha":1027,"x_min":19,"x_max":995,"o":"m 646 567 q 803 547 737 567 q 911 491 869 527 q 975 406 954 456 q 995 299 995 357 q 972 175 995 230 q 904 81 949 119 q 794 21 859 42 q 645 0 728 0 l 578 0 l 578 107 l 645 107 q 744 120 703 107 q 811 157 785 133 q 850 213 838 180 q 862 285 862 246 q 850 359 862 327 q 811 414 838 392 q 744 448 785 437 q 646 460 703 460 l 431 460 l 431 0 l 297 0 l 297 886 l 19 886 l 19 995 l 746 995 l 746 886 l 431 886 l 431 567 l 646 567 z "},"Ћ":{"ha":1038,"x_min":19,"x_max":977,"o":"m 431 562 q 581 594 510 583 q 713 605 652 606 q 822 589 773 604 q 905 540 871 574 q 958 452 940 506 q 977 322 977 399 l 977 -1 l 842 -1 l 842 322 q 820 432 842 390 q 748 491 797 474 q 621 501 699 508 q 431 464 542 494 l 431 0 l 297 0 l 297 886 l 19 886 l 19 995 l 746 995 l 746 886 l 431 886 l 431 562 z "},"Ѣ":{"ha":1007,"x_min":38,"x_max":966,"o":"m 616 107 q 715 120 674 107 q 782 157 756 133 q 820 213 808 180 q 833 285 833 246 q 820 359 833 327 q 782 414 808 392 q 715 448 756 437 q 617 460 674 460 l 423 460 l 423 107 l 616 107 m 617 567 q 774 547 708 567 q 882 491 840 527 q 945 406 925 456 q 966 299 966 357 q 943 175 966 230 q 875 81 919 119 q 765 21 830 42 q 616 0 699 0 l 289 0 l 289 740 l 38 740 l 38 842 l 289 842 l 289 995 l 423 995 l 423 842 l 732 842 l 732 740 l 423 740 l 423 567 l 617 567 z "},"б":{"ha":813,"x_min":78,"x_max":753,"o":"m 415 82 q 573 148 519 82 q 626 334 626 215 q 575 519 626 453 q 422 586 524 586 q 333 570 372 586 q 266 525 293 555 q 223 451 238 495 q 208 351 208 408 q 222 238 208 288 q 261 153 235 188 q 325 100 287 119 q 415 82 364 82 m 463 869 q 342 838 392 863 q 258 770 292 813 q 208 667 225 727 q 189 533 192 608 q 232 593 206 566 q 292 639 258 619 q 366 668 326 658 q 451 678 406 678 q 577 653 522 678 q 673 583 633 628 q 733 475 712 538 q 753 334 753 411 q 730 192 753 256 q 661 84 706 128 q 555 15 617 39 q 415 -10 492 -10 q 283 14 344 -10 q 176 92 221 38 q 105 234 131 146 q 78 453 78 323 q 99 657 78 564 q 164 819 119 750 q 280 930 208 888 q 453 981 351 972 l 704 1002 l 711 938 q 705 902 713 917 q 675 886 697 888 l 463 869 z "},"в":{"ha":690,"x_min":98,"x_max":632,"o":"m 368 87 q 478 119 438 87 q 518 208 518 151 q 510 253 518 233 q 485 289 503 274 q 439 313 468 304 q 369 321 410 321 l 217 321 l 217 87 l 368 87 m 217 620 l 217 399 l 352 399 q 409 408 383 399 q 453 432 435 417 q 483 470 472 448 q 493 518 493 492 q 486 556 493 538 q 463 589 479 574 q 419 611 446 603 q 352 620 392 620 l 217 620 m 356 703 q 467 690 421 703 q 544 655 514 677 q 588 601 574 632 q 601 536 601 571 q 595 488 601 513 q 573 440 589 463 q 531 399 558 417 q 464 370 504 381 q 588 314 544 356 q 632 203 632 272 q 611 114 632 152 q 555 51 591 76 q 472 13 519 25 q 369 0 424 0 l 98 0 l 98 703 l 356 703 z "},"г":{"ha":574,"x_min":98,"x_max":554,"o":"m 554 609 l 222 609 l 222 0 l 98 0 l 98 703 l 554 703 l 554 609 z "},"ґ":{"ha":574,"x_min":98,"x_max":554,"o":"m 554 877 l 554 609 l 222 609 l 222 0 l 98 0 l 98 703 l 442 703 l 442 877 l 554 877 z "},"д":{"ha":858,"x_min":16,"x_max":831,"o":"m 583 90 l 583 606 l 360 606 q 340 415 353 498 q 311 268 328 331 q 275 162 295 206 q 234 90 256 118 l 583 90 m 831 94 l 831 -204 q 821 -232 831 -222 q 795 -242 811 -242 l 719 -242 l 719 0 l 128 0 l 128 -207 q 120 -231 128 -220 q 94 -242 112 -242 l 16 -242 l 16 90 l 39 90 q 87 99 63 90 q 133 130 111 107 q 175 196 156 153 q 211 306 195 238 q 239 472 227 374 q 258 703 251 569 l 703 703 l 703 94 l 831 94 z "},"ж":{"ha":1094,"x_min":17,"x_max":1077,"o":"m 1077 0 l 991 0 q 940 10 958 0 q 913 43 922 21 l 776 262 q 678 316 742 316 l 607 316 l 607 -1 l 487 -1 l 487 316 l 417 316 q 360 302 385 316 q 319 262 335 288 l 182 43 q 154 10 172 21 q 103 0 136 0 l 17 0 l 202 291 q 243 340 220 322 q 299 369 266 359 q 255 393 273 377 q 220 435 236 410 l 37 703 l 134 703 q 167 694 152 703 q 190 669 181 685 l 339 447 q 376 411 354 424 q 426 399 397 399 l 487 399 l 487 703 l 607 703 l 607 399 l 666 399 q 755 447 725 399 l 904 669 q 927 694 913 685 q 960 703 942 703 l 1058 703 l 874 435 q 840 393 858 410 q 795 369 822 377 q 851 340 828 359 q 892 291 874 322 l 1077 0 z "},"з":{"ha":624,"x_min":38,"x_max":563,"o":"m 53 631 q 150 692 93 669 q 286 715 206 715 q 399 699 350 715 q 480 658 447 683 q 530 599 513 632 q 547 531 547 566 q 541 487 547 510 q 519 443 534 464 q 479 404 503 422 q 419 375 455 386 q 525 310 486 355 q 563 201 563 266 q 541 114 563 153 q 481 47 519 74 q 394 5 444 19 q 290 -10 344 -10 q 221 -3 256 -10 q 153 16 186 3 q 90 50 119 30 q 38 99 60 70 l 72 144 q 96 156 81 156 q 123 145 108 156 q 158 121 137 134 q 209 97 178 108 q 283 86 239 86 q 351 95 321 86 q 402 122 381 105 q 434 161 423 138 q 445 211 445 184 q 402 295 445 263 q 270 327 358 327 l 190 327 l 190 409 l 270 409 q 339 417 308 409 q 391 439 369 425 q 424 473 413 453 q 435 515 435 492 q 425 555 435 536 q 397 588 416 574 q 349 610 378 601 q 283 618 321 618 q 212 610 241 618 q 164 592 183 601 q 131 574 144 582 q 110 565 119 565 q 95 569 101 565 q 82 583 89 572 l 53 631 z "},"и":{"ha":799,"x_min":98,"x_max":701,"o":"m 701 703 l 701 0 l 578 0 l 578 478 q 579 508 578 492 q 583 540 581 524 q 570 514 576 526 q 557 492 564 502 l 217 31 q 198 9 210 19 q 173 -1 187 -1 l 98 -1 l 98 703 l 222 703 l 222 225 q 221 196 222 212 q 217 165 219 181 q 230 189 224 178 q 242 210 236 201 l 582 672 q 601 693 590 683 q 627 703 613 703 l 701 703 z "},"к":{"ha":719,"x_min":98,"x_max":701,"o":"m 525 669 q 551 694 535 684 q 585 703 567 703 l 681 703 l 499 435 q 464 393 482 410 q 419 368 446 377 q 476 340 453 359 q 517 291 499 321 l 701 0 l 615 0 q 564 11 582 0 q 533 43 546 22 l 396 262 q 298 316 363 316 l 222 316 l 222 -1 l 98 -1 l 98 703 l 222 703 l 222 399 l 289 399 q 376 447 344 399 l 525 669 z "},"л":{"ha":813,"x_min":0,"x_max":715,"o":"m 715 0 l 591 0 l 591 606 l 369 606 q 344 375 360 472 q 304 209 327 277 q 252 98 281 140 q 191 31 223 55 q 126 -1 160 8 q 59 -9 92 -9 q 0 10 0 -9 l 0 88 l 36 88 q 84 97 60 88 q 132 128 108 105 q 176 195 155 152 q 216 306 198 238 q 246 472 233 374 q 266 703 259 569 l 715 703 l 715 0 z "},"љ":{"ha":1163,"x_min":0,"x_max":1124,"o":"m 866 90 q 931 100 903 90 q 977 126 958 109 q 1004 166 995 143 q 1013 216 1013 189 q 1005 263 1013 241 q 980 301 997 285 q 933 328 962 318 q 864 338 905 338 l 715 338 l 715 90 l 866 90 m 864 428 q 986 410 937 428 q 1067 364 1036 393 q 1110 297 1097 335 q 1124 217 1124 258 q 1107 130 1124 170 q 1057 61 1090 90 q 976 16 1024 33 q 867 0 928 0 l 591 0 l 591 606 l 369 606 q 344 375 360 472 q 304 209 327 277 q 252 98 281 140 q 191 31 223 55 q 126 -1 160 8 q 59 -9 92 -9 q 0 10 0 -9 l 0 88 l 36 88 q 84 97 60 88 q 132 128 108 105 q 176 195 155 152 q 216 306 198 238 q 246 472 233 374 q 266 703 259 569 l 715 703 l 715 428 l 864 428 z "},"м":{"ha":980,"x_min":98,"x_max":882,"o":"m 882 706 l 882 0 l 770 0 l 770 467 q 773 511 770 487 q 779 556 775 535 l 535 127 q 520 110 529 117 q 499 104 511 104 l 485 104 q 464 110 474 104 q 449 127 455 117 l 201 557 q 207 511 204 536 q 210 467 210 487 l 210 0 l 98 0 l 98 706 l 197 706 q 223 700 210 706 q 244 678 235 694 l 464 311 q 492 244 480 279 q 520 311 504 281 l 735 678 q 757 700 744 694 q 783 706 769 706 l 882 706 z "},"н":{"ha":782,"x_min":98,"x_max":684,"o":"m 684 703 l 684 0 l 560 0 l 560 329 l 222 329 l 222 0 l 98 0 l 98 703 l 222 703 l 222 423 l 560 423 l 560 703 l 684 703 z "},"њ":{"ha":1133,"x_min":98,"x_max":1093,"o":"m 835 90 q 900 100 873 90 q 946 126 928 109 q 974 166 965 143 q 983 216 983 189 q 975 263 983 241 q 949 301 967 285 q 903 328 931 318 q 833 338 874 338 l 684 338 l 684 90 l 835 90 m 833 428 q 956 410 906 428 q 1036 364 1006 393 q 1080 297 1067 335 q 1093 217 1093 258 q 1076 130 1093 170 q 1026 61 1059 90 q 946 16 994 33 q 836 0 898 0 l 560 0 l 560 329 l 222 329 l 222 0 l 98 0 l 98 703 l 222 703 l 222 423 l 560 423 l 560 703 l 684 703 l 684 428 l 833 428 z "},"ѳ":{"ha":788,"x_min":58,"x_max":729,"o":"m 180 314 q 242 143 188 203 q 394 83 297 83 q 546 143 492 83 q 608 314 600 203 l 180 314 m 607 397 q 543 563 597 504 q 394 622 490 622 q 244 563 299 622 q 181 397 190 504 l 607 397 m 394 715 q 533 689 472 715 q 639 616 595 663 q 706 502 683 569 q 729 352 729 435 q 706 202 729 269 q 639 88 683 135 q 533 16 595 41 q 394 -10 472 -10 q 255 16 317 -10 q 149 88 192 41 q 82 202 105 135 q 58 352 58 269 q 82 502 58 435 q 149 616 105 569 q 255 689 192 663 q 394 715 317 715 z "},"п":{"ha":782,"x_min":98,"x_max":684,"o":"m 684 0 l 560 0 l 560 609 l 222 609 l 222 0 l 98 0 l 98 703 l 684 703 l 684 0 z "},"т":{"ha":702,"x_min":19,"x_max":683,"o":"m 683 609 l 413 609 l 413 0 l 289 0 l 289 609 l 19 609 l 19 703 l 683 703 l 683 609 z "},"ѵ":{"ha":749,"x_min":15,"x_max":724,"o":"m 513 588 q 542 651 526 626 q 577 688 558 675 q 618 706 596 701 q 665 711 640 711 q 712 704 700 711 q 724 692 724 697 l 724 623 l 703 623 q 653 610 673 623 q 622 567 633 597 l 410 0 l 299 0 l 15 703 l 115 703 q 140 696 131 703 q 153 678 150 688 l 329 225 q 344 173 338 199 q 356 122 351 148 q 368 173 362 147 q 383 225 375 199 l 513 588 z "},"ф":{"ha":979,"x_min":56,"x_max":923,"o":"m 544 84 q 654 107 606 87 q 734 161 701 127 q 782 244 766 196 q 799 351 799 292 q 782 460 799 412 q 734 543 766 508 q 654 598 701 578 q 544 621 606 617 l 544 90 l 544 84 m 435 621 q 325 598 372 617 q 245 543 278 578 q 197 460 213 508 q 181 351 181 411 q 197 244 181 292 q 245 161 213 196 q 325 107 277 127 q 434 84 372 87 l 435 88 l 435 621 m 548 714 q 704 683 635 710 q 822 609 774 656 q 897 497 871 562 q 923 352 923 432 q 897 207 923 272 q 822 95 871 142 q 704 22 774 49 q 548 -9 635 -6 l 548 -242 l 431 -242 l 431 -9 q 275 22 344 -6 q 157 95 206 49 q 82 207 108 142 q 56 352 56 272 q 82 497 56 432 q 157 609 108 562 q 275 683 206 656 q 431 714 344 710 l 431 995 l 548 995 l 548 714 z "},"ц":{"ha":840,"x_min":98,"x_max":813,"o":"m 813 94 l 813 -204 q 802 -232 813 -222 q 776 -242 792 -242 l 701 -242 l 701 0 l 98 0 l 98 703 l 222 703 l 222 94 l 560 94 l 560 703 l 684 703 l 684 94 l 813 94 z "},"џ":{"ha":782,"x_min":98,"x_max":684,"o":"m 684 703 l 684 0 l 447 0 l 447 -204 q 437 -232 447 -222 q 411 -242 427 -242 l 335 -242 l 335 0 l 98 0 l 98 703 l 222 703 l 222 94 l 560 94 l 560 703 l 684 703 z "},"ч":{"ha":715,"x_min":56,"x_max":617,"o":"m 617 703 l 617 0 l 493 0 l 493 299 q 323 269 403 275 q 184 281 244 263 q 91 345 125 299 q 56 471 56 390 l 56 703 l 181 703 l 181 490 q 201 410 181 439 q 261 369 222 381 q 359 363 301 358 q 493 386 417 368 l 493 703 l 617 703 z "},"ш":{"ha":1142,"x_min":98,"x_max":1044,"o":"m 1044 703 l 1044 0 l 98 0 l 98 703 l 222 703 l 222 94 l 509 94 l 509 703 l 633 703 l 633 94 l 920 94 l 920 703 l 1044 703 z "},"щ":{"ha":1201,"x_min":98,"x_max":1174,"o":"m 1174 94 l 1174 -204 q 1164 -232 1174 -222 q 1138 -242 1153 -242 l 1061 -242 l 1061 0 l 98 0 l 98 703 l 222 703 l 222 94 l 509 94 l 509 703 l 633 703 l 633 94 l 920 94 l 920 703 l 1044 703 l 1044 94 l 1174 94 z "},"ъ":{"ha":811,"x_min":19,"x_max":772,"o":"m 514 90 q 579 100 551 90 q 625 126 606 109 q 652 166 643 143 q 661 216 661 189 q 653 263 661 241 q 627 301 645 285 q 582 328 610 318 q 513 338 553 338 l 363 338 l 363 90 l 514 90 m 512 428 q 634 410 585 428 q 715 364 684 393 q 758 297 745 335 q 772 217 772 258 q 755 130 772 170 q 706 61 738 90 q 625 16 673 33 q 515 0 577 0 l 244 0 l 244 608 l 19 608 l 19 703 l 363 703 l 363 428 l 512 428 z "},"ы":{"ha":1002,"x_min":98,"x_max":903,"o":"m 368 90 q 433 100 406 90 q 478 126 460 109 q 506 166 497 143 q 515 216 515 189 q 507 263 515 241 q 482 301 499 285 q 435 328 464 318 q 366 338 407 338 l 216 338 l 216 90 l 368 90 m 366 428 q 489 410 439 428 q 568 364 538 393 q 612 297 599 335 q 625 217 625 258 q 608 130 625 170 q 559 61 592 90 q 478 16 526 33 q 368 0 431 0 l 98 0 l 98 703 l 216 703 l 216 428 l 366 428 m 903 703 l 903 0 l 780 0 l 780 703 l 903 703 z "},"ь":{"ha":665,"x_min":98,"x_max":625,"o":"m 368 90 q 433 100 406 90 q 478 126 460 109 q 506 166 497 143 q 515 216 515 189 q 507 263 515 241 q 482 301 499 285 q 435 328 464 318 q 366 338 407 338 l 217 338 l 217 90 l 368 90 m 366 428 q 489 410 439 428 q 568 364 538 393 q 612 297 599 335 q 625 217 625 258 q 608 130 625 170 q 559 61 592 90 q 478 16 526 33 q 368 0 431 0 l 98 0 l 98 703 l 217 703 l 217 428 l 366 428 z "},"э":{"ha":670,"x_min":42,"x_max":612,"o":"m 49 623 q 150 691 93 667 q 281 715 207 715 q 422 688 360 715 q 526 612 484 660 q 590 497 568 564 q 612 352 612 431 q 588 199 612 266 q 522 85 564 131 q 424 15 481 39 q 301 -10 367 -10 q 156 16 225 -10 q 42 99 88 42 l 74 140 q 98 151 83 151 q 124 141 110 151 q 157 119 137 131 q 206 96 176 106 q 280 86 235 86 q 360 101 324 86 q 423 146 396 117 q 467 218 450 175 q 488 316 483 260 l 154 316 l 154 402 l 486 402 q 421 561 475 503 q 274 618 367 618 q 208 610 235 618 q 162 592 181 602 q 130 575 143 583 q 107 567 117 567 q 92 570 97 567 q 81 582 86 574 l 49 623 z "},"є":{"ha":670,"x_min":58,"x_max":628,"o":"m 589 582 q 578 570 583 574 q 563 567 572 567 q 540 575 552 567 q 508 592 527 583 q 463 610 490 602 q 397 618 435 618 q 313 603 350 618 q 249 560 276 588 q 206 492 222 533 q 184 402 190 452 l 516 402 l 516 316 l 183 316 q 203 218 187 260 q 247 146 220 175 q 310 101 274 117 q 390 86 347 86 q 465 96 435 86 q 514 119 494 106 q 546 141 533 131 q 572 151 559 151 q 595 140 588 151 l 628 99 q 576 50 606 70 q 514 16 547 30 q 443 -3 480 3 q 368 -10 406 -10 q 245 15 302 -10 q 147 85 189 39 q 82 199 106 131 q 58 352 58 266 q 80 497 58 431 q 144 612 102 564 q 248 688 186 660 q 389 715 309 715 q 520 691 463 715 q 620 623 576 667 l 589 582 z "},"ю":{"ha":1087,"x_min":98,"x_max":1028,"o":"m 708 87 q 853 157 805 87 q 901 351 901 226 q 853 547 901 477 q 708 617 805 617 q 563 547 610 617 q 515 351 515 477 q 563 157 515 226 q 708 87 610 87 m 393 400 q 423 531 399 472 q 488 630 447 589 q 584 693 528 671 q 708 715 639 715 q 841 689 781 715 q 942 616 900 663 q 1006 502 983 569 q 1028 352 1028 435 q 1006 202 1028 269 q 940 88 983 135 q 839 16 898 41 q 708 -10 780 -10 q 582 13 638 -10 q 485 76 526 35 q 421 176 445 117 q 392 310 397 235 l 222 310 l 222 0 l 98 0 l 98 703 l 222 703 l 222 400 l 393 400 z "},"я":{"ha":685,"x_min":10,"x_max":586,"o":"m 468 375 l 468 620 l 350 620 q 283 609 310 620 q 240 580 256 597 q 217 540 224 562 q 210 497 210 518 q 251 407 210 440 q 365 375 293 375 l 468 375 m 586 703 l 586 0 l 468 0 l 468 297 l 414 297 q 382 293 394 297 q 359 285 369 290 q 343 270 350 279 q 328 251 336 262 l 174 43 q 145 10 163 21 q 96 0 128 0 l 10 0 l 214 265 q 280 321 239 307 q 190 346 226 328 q 130 389 153 364 q 96 443 106 413 q 85 503 85 473 q 100 576 85 540 q 145 640 114 612 q 226 686 176 668 q 347 703 276 703 l 586 703 z "},"ђ":{"ha":765,"x_min":-28,"x_max":696,"o":"m 222 550 q 322 626 266 597 q 448 655 377 655 q 634 575 573 655 q 696 347 696 494 q 648 47 696 191 q 515 -231 601 -97 l 415 -191 q 481 -66 452 -128 q 531 63 510 -3 q 561 199 551 128 q 572 347 572 269 q 529 505 572 453 q 412 557 486 557 q 309 531 357 557 q 222 458 262 504 l 222 0 l 98 0 l 98 763 l -28 763 l -28 859 l 98 859 l 98 1023 l 222 1023 l 222 859 l 466 859 l 466 763 l 222 763 l 222 550 z "},"ѣ":{"ha":782,"x_min":21,"x_max":747,"o":"m 490 90 q 555 100 527 90 q 600 126 582 109 q 628 166 619 143 q 637 216 637 189 q 629 263 637 241 q 603 301 621 285 q 557 328 585 318 q 488 338 529 338 l 324 338 l 324 90 l 490 90 m 488 428 q 610 410 560 428 q 690 364 660 393 q 734 297 721 335 q 747 217 747 258 q 730 130 747 170 q 681 61 713 90 q 600 16 648 33 q 490 0 552 0 l 206 0 l 206 607 l 21 607 l 21 702 l 206 702 l 206 900 l 324 900 l 324 702 l 549 702 l 549 607 l 324 607 l 324 428 l 488 428 z "},"!":{"ha":374,"x_min":99,"x_max":272,"o":"m 247 995 l 247 598 q 245 537 247 567 q 242 477 244 507 q 236 415 240 447 q 229 347 233 383 l 146 347 q 139 415 142 383 q 133 477 135 447 q 130 537 131 507 q 128 598 128 567 l 128 995 l 247 995 m 99 76 q 105 110 99 94 q 124 138 112 126 q 151 157 135 150 q 185 164 167 164 q 219 157 203 164 q 247 138 235 150 q 265 110 258 126 q 272 76 272 94 q 265 42 272 58 q 247 15 258 26 q 219 -4 235 3 q 185 -10 203 -10 q 151 -4 167 -10 q 124 15 135 3 q 105 42 112 26 q 99 76 99 58 z "},"?":{"ha":622,"x_min":56,"x_max":560,"o":"m 56 906 q 104 944 78 926 q 161 976 130 963 q 227 998 192 990 q 305 1006 263 1006 q 407 990 360 1006 q 488 945 453 974 q 541 874 522 916 q 560 781 560 833 q 545 690 560 728 q 505 623 529 651 q 453 573 481 594 q 400 533 425 551 q 357 495 375 514 q 337 453 340 476 l 324 347 l 240 347 l 231 463 q 243 517 228 494 q 281 561 258 540 q 333 601 305 581 q 386 645 362 621 q 428 700 411 669 q 444 774 444 731 q 433 828 444 804 q 401 870 421 853 q 353 896 381 887 q 294 905 326 905 q 222 894 252 905 q 171 872 192 884 q 137 849 150 859 q 116 838 124 838 q 89 854 99 838 l 56 906 m 192 76 q 198 110 192 94 q 216 138 205 126 q 244 157 228 150 q 278 164 260 164 q 312 157 296 164 q 340 138 328 150 q 358 110 351 126 q 365 76 365 94 q 358 42 365 58 q 340 15 351 26 q 312 -4 328 3 q 278 -10 296 -10 q 244 -4 260 -10 q 216 15 228 3 q 198 42 205 26 q 192 76 192 58 z "},"‽":{"ha":675,"x_min":64,"x_max":617,"o":"m 294 164 q 328 157 312 164 q 356 138 344 150 q 374 110 367 126 q 381 76 381 94 q 374 42 381 58 q 356 15 367 26 q 328 -4 344 3 q 294 -10 312 -10 q 260 -4 276 -10 q 232 15 244 3 q 214 42 221 26 q 208 76 208 58 q 214 110 208 94 q 232 138 221 126 q 260 157 244 150 q 294 164 276 164 m 265 976 q 316 988 288 983 q 375 992 345 992 q 472 978 428 992 q 549 938 517 965 q 599 873 581 912 q 617 783 617 834 q 598 690 617 728 q 548 626 578 653 q 482 580 517 599 q 415 542 447 560 q 361 503 384 524 q 335 453 339 482 l 338 334 l 260 334 q 224 441 242 385 q 190 551 206 497 l 64 980 l 178 1009 l 274 639 q 284 602 278 626 q 295 549 290 578 q 333 587 311 570 q 378 620 355 604 q 424 650 401 635 q 464 683 447 665 q 493 722 482 701 q 503 772 503 744 q 494 818 503 797 q 467 856 485 840 q 424 881 449 872 q 368 890 399 890 q 332 887 347 890 q 312 884 317 884 q 291 889 298 884 q 282 906 284 894 l 265 976 z "},",":{"ha":315,"x_min":74,"x_max":242,"o":"m 90 -168 q 83 -159 85 -163 q 81 -149 81 -155 q 84 -139 81 -144 q 91 -130 87 -134 q 109 -110 98 -122 q 131 -80 119 -97 q 151 -43 142 -63 q 165 1 160 -22 q 160 0 163 0 q 156 0 158 0 q 97 24 119 0 q 74 85 74 48 q 97 141 74 118 q 157 164 119 164 q 194 156 178 164 q 220 135 210 149 q 237 104 231 122 q 242 65 242 86 q 234 0 242 34 q 208 -66 225 -33 q 167 -131 191 -99 q 111 -188 142 -162 l 90 -168 z "},";":{"ha":363,"x_min":94,"x_max":268,"o":"m 114 -168 q 106 -159 108 -163 q 104 -149 104 -155 q 107 -139 104 -144 q 115 -130 110 -134 q 132 -110 122 -122 q 154 -80 143 -97 q 175 -43 165 -63 q 188 1 184 -22 q 184 0 186 0 q 179 0 181 0 q 120 24 143 0 q 98 85 98 48 q 120 141 98 118 q 181 164 143 164 q 217 156 201 164 q 244 135 233 149 q 260 104 255 122 q 266 65 266 86 q 257 0 266 34 q 232 -66 249 -33 q 190 -131 215 -99 q 135 -188 166 -162 l 114 -168 m 94 597 q 101 631 94 615 q 119 659 108 647 q 147 678 131 671 q 181 685 163 685 q 215 678 199 685 q 242 659 231 671 q 261 631 254 647 q 268 597 268 615 q 261 563 268 578 q 242 535 254 547 q 215 517 231 524 q 181 510 199 510 q 147 517 163 510 q 119 535 131 524 q 101 563 108 547 q 94 597 94 578 z "},":":{"ha":347,"x_min":87,"x_max":260,"o":"m 87 76 q 93 110 87 94 q 111 138 100 126 q 139 157 123 150 q 173 164 155 164 q 207 157 191 164 q 235 138 223 150 q 253 110 247 126 q 260 76 260 94 q 253 42 260 58 q 235 15 247 26 q 207 -4 223 3 q 173 -10 191 -10 q 139 -4 155 -10 q 111 15 123 3 q 93 42 100 26 q 87 76 87 58 m 87 597 q 93 631 87 615 q 111 659 100 647 q 139 678 123 671 q 173 685 155 685 q 207 678 191 685 q 235 659 223 671 q 253 631 247 647 q 260 597 260 615 q 253 563 260 578 q 235 535 247 547 q 207 517 223 524 q 173 510 191 510 q 139 517 155 510 q 111 535 123 524 q 93 563 100 547 q 87 597 87 578 z "},".":{"ha":328,"x_min":77,"x_max":251,"o":"m 77 76 q 84 110 77 94 q 102 138 90 126 q 129 157 113 150 q 163 164 145 164 q 197 157 181 164 q 225 138 213 150 q 244 110 237 126 q 251 76 251 94 q 244 42 251 58 q 225 15 237 26 q 197 -4 213 3 q 163 -10 181 -10 q 129 -4 145 -10 q 102 15 113 3 q 84 42 90 26 q 77 76 77 58 z "},"…":{"ha":1042,"x_min":77,"x_max":965,"o":"m 77 76 q 84 110 77 94 q 102 138 90 126 q 129 157 113 150 q 163 164 145 164 q 197 157 181 164 q 225 138 213 150 q 244 110 237 126 q 251 76 251 94 q 244 42 251 58 q 225 15 237 26 q 197 -4 213 3 q 163 -10 181 -10 q 129 -4 145 -10 q 102 15 113 3 q 84 42 90 26 q 77 76 77 58 m 792 76 q 798 110 792 94 q 816 138 805 126 q 844 157 828 150 q 878 164 860 164 q 912 157 896 164 q 940 138 928 150 q 958 110 951 126 q 965 76 965 94 q 958 42 965 58 q 940 15 951 26 q 912 -4 928 3 q 878 -10 896 -10 q 844 -4 860 -10 q 816 15 828 3 q 798 42 805 26 q 792 76 792 58 m 434 76 q 441 110 434 94 q 459 138 447 126 q 486 157 470 150 q 520 164 502 164 q 554 157 538 164 q 582 138 570 150 q 601 110 594 126 q 608 76 608 94 q 601 42 608 58 q 582 15 594 26 q 554 -4 570 3 q 520 -10 538 -10 q 486 -4 502 -10 q 459 15 470 3 q 441 42 447 26 q 434 76 434 58 z "},"‘":{"ha":297,"x_min":68,"x_max":229,"o":"m 118 660 q 78 764 89 709 q 76 872 68 818 q 111 974 85 925 q 181 1062 138 1023 l 219 1038 q 228 1021 229 1031 q 222 1006 227 1011 q 191 951 203 983 q 174 883 178 919 q 178 808 171 847 q 206 733 185 769 q 211 707 215 718 q 194 690 208 695 l 118 660 z "},"’":{"ha":297,"x_min":72,"x_max":233,"o":"m 183 1062 q 223 958 213 1013 q 225 849 233 903 q 190 747 217 796 q 120 659 164 697 l 83 683 q 73 700 72 690 q 80 716 74 710 q 111 770 98 738 q 127 838 124 801 q 124 913 131 874 q 95 988 117 952 q 90 1014 86 1003 q 107 1031 94 1026 l 183 1062 z "},"“":{"ha":508,"x_min":68,"x_max":440,"o":"m 118 660 q 78 764 89 709 q 76 872 68 818 q 111 974 85 925 q 181 1062 138 1023 l 219 1038 q 228 1021 229 1031 q 222 1006 227 1011 q 191 951 203 983 q 174 883 178 919 q 178 808 171 847 q 206 733 185 769 q 211 707 215 718 q 194 690 208 695 l 118 660 m 329 660 q 290 764 300 709 q 288 872 279 818 q 322 974 296 925 q 392 1062 349 1023 l 430 1038 q 439 1021 440 1031 q 433 1006 438 1011 q 402 951 415 983 q 385 883 389 919 q 389 808 382 847 q 417 733 396 769 q 423 707 426 718 q 406 690 419 695 l 329 660 z "},"”":{"ha":508,"x_min":72,"x_max":444,"o":"m 183 1062 q 223 958 213 1013 q 225 849 233 903 q 190 747 217 796 q 120 659 164 697 l 83 683 q 73 700 72 690 q 80 716 74 710 q 111 770 98 738 q 127 838 124 801 q 124 913 131 874 q 95 988 117 952 q 90 1014 86 1003 q 107 1031 94 1026 l 183 1062 m 394 1062 q 434 958 424 1013 q 436 849 444 903 q 401 747 428 796 q 331 659 375 697 l 294 683 q 284 700 283 690 q 291 716 285 710 q 322 770 309 738 q 339 838 335 801 q 335 913 342 874 q 306 988 328 952 q 301 1014 297 1003 q 318 1031 305 1026 l 394 1062 z "},"‚":{"ha":299,"x_min":64,"x_max":225,"o":"m 175 182 q 215 78 204 133 q 217 -31 225 23 q 182 -133 208 -84 q 112 -221 156 -183 l 74 -197 q 65 -180 64 -190 q 72 -164 66 -170 q 102 -110 90 -142 q 119 -42 115 -78 q 116 33 123 -6 q 87 108 108 72 q 82 134 78 123 q 99 151 85 146 l 175 182 z "},"„":{"ha":510,"x_min":64,"x_max":436,"o":"m 175 182 q 215 78 204 133 q 217 -31 225 23 q 182 -133 208 -84 q 112 -221 156 -183 l 74 -197 q 65 -180 64 -190 q 72 -164 66 -170 q 102 -110 90 -142 q 119 -42 115 -78 q 116 33 123 -6 q 87 108 108 72 q 82 134 78 123 q 99 151 85 146 l 175 182 m 386 182 q 426 78 415 133 q 428 -31 436 23 q 393 -133 419 -84 q 323 -221 367 -183 l 285 -197 q 276 -180 275 -190 q 283 -164 277 -170 q 314 -110 301 -142 q 330 -42 326 -78 q 327 33 334 -6 q 298 108 319 72 q 293 134 289 123 q 310 151 297 146 l 386 182 z "},"‹":{"ha":390,"x_min":69,"x_max":305,"o":"m 295 161 q 302 131 305 145 q 283 109 299 117 l 242 90 l 69 360 l 69 376 l 242 646 l 283 626 q 302 605 299 619 q 295 574 305 590 l 185 393 q 166 368 176 376 q 185 342 176 359 l 295 161 z "},"›":{"ha":391,"x_min":86,"x_max":322,"o":"m 322 376 l 322 360 l 149 90 l 108 109 q 89 131 92 117 q 96 161 86 145 l 206 342 q 216 357 211 351 q 226 368 220 364 q 216 378 220 372 q 206 393 211 385 l 96 574 q 89 605 86 590 q 108 626 92 619 l 149 646 l 322 376 z "},"«":{"ha":596,"x_min":69,"x_max":510,"o":"m 295 161 q 302 131 305 145 q 283 109 299 117 l 242 90 l 69 360 l 69 376 l 242 646 l 283 626 q 302 605 299 619 q 295 574 305 590 l 185 393 q 166 368 176 376 q 185 342 176 359 l 295 161 m 501 161 q 507 131 510 145 q 488 109 504 117 l 448 90 l 275 360 l 275 376 l 448 646 l 488 626 q 507 605 504 619 q 501 574 510 590 l 391 393 q 372 368 381 376 q 391 342 381 359 l 501 161 z "},"»":{"ha":597,"x_min":86,"x_max":527,"o":"m 322 376 l 322 360 l 149 90 l 108 109 q 89 131 92 117 q 96 161 86 145 l 206 342 q 216 357 211 351 q 226 368 220 364 q 216 378 220 372 q 206 393 211 385 l 96 574 q 89 605 86 590 q 108 626 92 619 l 149 646 l 322 376 m 527 376 l 527 360 l 354 90 l 314 109 q 295 131 298 117 q 301 161 292 145 l 411 342 q 421 357 417 351 q 431 368 426 364 q 421 378 426 372 q 411 393 417 385 l 301 574 q 295 605 292 590 q 314 626 298 619 l 354 646 l 527 376 z "},"/":{"ha":628,"x_min":47,"x_max":581,"o":"m 166 -15 q 138 -51 157 -39 q 99 -62 119 -62 l 47 -62 l 464 977 q 489 1011 472 999 q 528 1023 506 1023 l 581 1023 l 166 -15 z "},"|":{"ha":348,"x_min":126,"x_max":222,"o":"m 126 1065 l 222 1065 l 222 -242 l 126 -242 l 126 1065 z "},"¦":{"ha":352,"x_min":128,"x_max":224,"o":"m 128 1065 l 224 1065 l 224 513 l 128 513 l 128 1065 m 128 314 l 224 314 l 224 -238 l 128 -238 l 128 314 z "},"\\":{"ha":628,"x_min":47,"x_max":581,"o":"m 47 1023 l 99 1023 q 139 1011 122 1023 q 164 977 156 999 l 581 -62 l 529 -62 q 490 -51 509 -62 q 462 -15 470 -39 l 47 1023 z "},"-":{"ha":516,"x_min":87,"x_max":430,"o":"m 87 469 l 430 469 l 430 364 l 87 364 l 87 469 z "},"–":{"ha":806,"x_min":125,"x_max":681,"o":"m 125 455 l 681 455 l 681 365 l 125 365 l 125 455 z "},"—":{"ha":1102,"x_min":89,"x_max":1013,"o":"m 89 455 l 1013 455 l 1013 365 l 89 365 l 89 455 z "},"_":{"ha":638,"x_min":45,"x_max":592,"o":"m 592 -115 l 592 -198 l 45 -198 l 45 -115 l 592 -115 z "},"•":{"ha":806,"x_min":145,"x_max":660,"o":"m 145 413 q 166 514 145 467 q 221 596 186 561 q 302 652 256 631 q 402 672 349 672 q 502 652 456 672 q 584 596 549 631 q 640 514 619 561 q 660 413 660 467 q 640 313 660 360 q 584 231 619 266 q 502 176 549 197 q 402 156 456 156 q 302 176 349 156 q 221 231 256 197 q 166 313 186 266 q 145 413 145 360 z "},"·":{"ha":361,"x_min":77,"x_max":284,"o":"m 77 412 q 85 453 77 433 q 107 486 93 472 q 140 508 122 500 q 179 517 158 517 q 220 508 201 517 q 253 486 240 500 q 276 453 267 472 q 284 412 284 433 q 276 372 284 391 q 253 339 267 353 q 220 317 240 325 q 179 309 201 309 q 140 317 158 309 q 107 339 122 325 q 85 372 93 353 q 77 412 77 391 z "},"(":{"ha":371,"x_min":63,"x_max":330,"o":"m 170 437 q 208 148 170 288 q 319 -119 246 8 q 324 -152 330 -140 q 308 -170 319 -163 l 253 -203 q 165 -45 201 -124 q 106 113 128 33 q 73 272 83 192 q 63 437 63 352 q 73 601 63 521 q 106 761 83 682 q 165 918 128 840 q 253 1077 201 997 l 308 1043 q 324 1025 319 1036 q 319 992 330 1013 q 208 726 246 866 q 170 437 170 585 z "},")":{"ha":371,"x_min":44,"x_max":308,"o":"m 201 437 q 163 726 201 585 q 52 992 125 866 q 45 1011 47 1003 q 46 1025 44 1019 q 52 1035 48 1031 q 63 1043 57 1040 l 117 1077 q 206 918 169 997 q 265 761 242 840 q 298 601 288 682 q 308 437 308 521 q 298 272 308 352 q 265 113 288 192 q 206 -45 242 33 q 117 -203 169 -124 l 63 -170 q 52 -162 57 -167 q 46 -152 48 -158 q 45 -137 44 -146 q 52 -119 47 -129 q 163 148 125 8 q 201 437 201 288 z "},"[":{"ha":425,"x_min":126,"x_max":382,"o":"m 231 983 l 231 -119 l 348 -119 q 373 -128 363 -119 q 382 -152 382 -138 l 382 -201 l 126 -201 l 126 1065 l 382 1065 l 382 1016 q 373 993 382 1002 q 348 983 363 983 l 231 983 z "},"]":{"ha":425,"x_min":43,"x_max":299,"o":"m 299 -201 l 43 -201 l 43 -152 q 52 -128 43 -138 q 77 -119 62 -119 l 194 -119 l 194 983 l 77 983 q 52 993 62 983 q 43 1016 43 1002 l 43 1065 l 299 1065 l 299 -201 z "},"{":{"ha":418,"x_min":47,"x_max":372,"o":"m 331 983 q 246 948 276 983 q 215 853 215 913 q 220 778 215 815 q 231 708 225 742 q 242 640 238 674 q 247 571 247 606 q 240 523 247 545 q 218 482 232 500 q 184 451 203 464 q 142 432 165 438 q 184 413 165 426 q 218 383 203 401 q 240 342 232 365 q 247 294 247 319 q 242 225 247 259 q 231 157 238 191 q 220 86 225 122 q 215 11 215 50 q 246 -84 215 -49 q 331 -119 276 -119 l 344 -119 q 363 -125 353 -119 q 372 -145 372 -131 l 372 -201 l 335 -201 q 236 -184 278 -201 q 164 -139 193 -168 q 121 -69 135 -110 q 107 19 107 -29 q 113 89 107 55 q 124 158 118 124 q 136 226 131 192 q 142 295 142 260 q 117 367 142 339 q 47 395 93 395 l 47 469 q 117 497 93 469 q 142 569 142 525 q 136 638 142 604 q 124 706 131 672 q 113 775 118 740 q 107 846 107 810 q 121 934 107 894 q 164 1003 135 974 q 236 1049 193 1033 q 335 1065 278 1065 l 372 1065 l 372 1010 q 363 990 372 996 q 344 983 353 983 l 331 983 z "},"}":{"ha":418,"x_min":46,"x_max":371,"o":"m 371 395 q 301 367 325 395 q 276 295 276 339 q 282 226 276 260 q 294 158 288 192 q 306 89 300 124 q 311 19 311 55 q 297 -69 311 -29 q 254 -139 283 -110 q 182 -184 225 -168 q 83 -201 140 -201 l 46 -201 l 46 -145 q 56 -125 46 -131 q 74 -119 66 -119 l 88 -119 q 172 -84 142 -119 q 203 11 203 -49 q 198 86 203 50 q 187 157 193 122 q 176 225 181 191 q 171 294 171 259 q 178 342 171 319 q 200 383 186 365 q 234 413 215 401 q 276 432 253 426 q 234 451 253 438 q 200 482 215 464 q 178 523 186 500 q 171 571 171 545 q 176 640 171 606 q 187 708 181 674 q 198 778 193 742 q 203 853 203 815 q 172 948 203 913 q 88 983 142 983 l 74 983 q 56 990 66 983 q 46 1010 46 996 l 46 1065 l 83 1065 q 182 1049 140 1065 q 254 1003 225 1033 q 297 934 283 974 q 311 846 311 894 q 306 775 311 810 q 294 706 300 740 q 282 638 288 672 q 276 569 276 604 q 301 497 276 525 q 371 469 325 469 l 371 395 z "},"*":{"ha":590,"x_min":85,"x_max":505,"o":"m 505 735 l 474 683 l 354 753 q 332 768 342 760 q 315 788 322 776 q 326 737 326 765 l 326 599 l 265 599 l 265 736 q 266 762 265 750 q 274 785 268 774 q 257 767 266 775 q 236 753 248 760 l 117 684 l 86 736 l 206 806 q 258 822 232 822 q 232 827 244 824 q 206 840 219 831 l 85 910 l 116 962 l 236 892 q 258 876 249 885 q 276 856 268 868 q 265 908 265 881 l 265 1046 l 326 1046 l 326 909 q 324 883 326 895 q 317 860 322 871 q 333 877 324 869 q 354 892 342 885 l 474 961 l 504 909 l 385 840 q 361 828 373 832 q 336 822 349 824 q 361 817 349 821 q 385 806 373 813 l 505 735 z "},"†":{"ha":806,"x_min":82,"x_max":724,"o":"m 451 596 l 451 307 l 467 -233 q 403 -249 440 -249 q 338 -233 366 -249 l 355 307 l 355 596 l 82 596 l 82 638 q 96 676 82 659 q 140 692 110 692 q 244 683 188 692 q 355 669 300 674 l 338 1008 q 403 1024 366 1024 q 467 1008 440 1024 l 451 669 q 561 683 506 674 q 665 692 617 692 q 710 676 696 692 q 724 638 724 659 l 724 596 l 451 596 z "},"‡":{"ha":806,"x_min":82,"x_max":724,"o":"m 451 179 l 724 179 l 724 138 q 710 99 724 116 q 665 83 696 83 q 561 92 617 83 q 451 106 506 101 l 467 -233 q 403 -249 440 -249 q 338 -233 366 -249 l 355 106 q 244 92 300 101 q 140 83 188 83 q 96 99 110 83 q 82 138 82 116 l 82 179 l 355 179 l 355 596 l 82 596 l 82 638 q 96 676 82 659 q 140 692 110 692 q 244 683 188 692 q 355 669 300 674 l 338 1008 q 403 1024 366 1024 q 467 1008 440 1024 l 451 669 q 561 683 506 674 q 665 692 617 692 q 710 676 696 692 q 724 638 724 659 l 724 596 l 451 596 l 451 179 z "},"§":{"ha":688,"x_min":70,"x_max":618,"o":"m 180 504 q 204 444 180 469 q 266 400 228 419 q 350 361 304 380 q 439 322 396 343 q 493 366 477 340 q 510 424 510 392 q 499 469 510 449 q 471 504 489 488 q 428 533 453 520 q 377 559 404 547 q 320 583 349 571 q 263 609 291 595 q 199 563 218 588 q 180 504 180 538 m 559 878 q 533 863 549 863 q 509 871 523 863 q 477 888 496 878 q 431 905 458 897 q 369 913 405 913 q 309 905 335 913 q 264 881 283 896 q 235 847 245 867 q 226 806 226 828 q 243 760 226 780 q 287 724 260 740 q 350 693 315 708 q 422 662 385 678 q 494 627 458 646 q 557 583 529 608 q 601 526 584 558 q 618 452 618 494 q 591 352 618 396 q 506 281 564 308 q 561 222 540 256 q 583 140 583 188 q 565 50 583 91 q 514 -22 548 8 q 431 -69 481 -52 q 317 -87 381 -87 q 184 -63 244 -87 q 83 -1 124 -39 l 112 46 q 125 60 117 55 q 144 65 133 65 q 171 55 157 65 q 205 33 185 45 q 255 11 226 21 q 328 1 284 1 q 391 10 363 1 q 437 34 418 19 q 465 72 456 50 q 475 119 475 93 q 458 174 475 151 q 412 214 440 197 q 347 247 383 232 q 273 276 310 261 q 198 309 235 292 q 133 351 162 327 q 88 408 105 376 q 70 485 70 440 q 100 583 70 540 q 194 651 130 626 q 138 713 160 677 q 116 801 116 749 q 133 879 116 842 q 181 944 149 916 q 260 988 213 972 q 367 1005 307 1005 q 491 983 435 1005 q 586 924 546 962 l 559 878 z "},"¶":{"ha":973,"x_min":49,"x_max":924,"o":"m 924 889 l 772 889 l 772 -140 l 663 -140 l 663 889 l 470 889 l 470 -140 l 361 -140 l 361 458 q 231 480 289 458 q 133 537 174 501 q 70 623 92 574 q 49 728 49 672 q 70 837 49 788 q 133 921 92 886 q 231 976 174 956 q 361 995 289 995 l 924 995 l 924 889 z "},"^":{"ha":806,"x_min":92,"x_max":714,"o":"m 714 483 l 624 483 q 603 490 612 483 q 590 507 594 497 l 430 815 q 402 882 412 851 q 391 849 397 866 q 377 815 385 833 l 222 507 q 209 490 218 497 q 186 483 200 483 l 92 483 l 361 995 l 441 995 l 714 483 z "},"~":{"ha":806,"x_min":83,"x_max":726,"o":"m 530 426 q 600 455 575 426 q 626 533 626 485 l 726 533 q 714 448 726 487 q 677 381 701 409 q 617 338 653 353 q 538 323 582 323 q 466 334 501 323 q 398 359 431 345 q 335 384 365 372 q 280 395 305 395 q 209 366 235 395 q 183 288 184 337 l 83 288 q 96 373 83 334 q 133 440 109 412 q 192 483 157 467 q 272 499 227 499 q 344 487 308 499 q 412 462 379 476 q 475 437 445 449 q 530 426 505 426 z "},"'":{"ha":283,"x_min":88,"x_max":196,"o":"m 196 995 l 196 794 l 185 686 q 172 652 181 664 q 142 640 163 640 q 113 652 123 640 q 99 686 103 664 l 88 794 l 88 995 l 196 995 z "},"\"":{"ha":515,"x_min":88,"x_max":427,"o":"m 196 995 l 196 794 l 185 686 q 172 652 181 664 q 142 640 163 640 q 113 652 123 640 q 99 686 103 664 l 88 794 l 88 995 l 196 995 m 427 995 l 427 794 l 416 686 q 403 652 413 664 q 373 640 394 640 q 344 652 354 640 q 331 686 334 664 l 319 794 l 319 995 l 427 995 z "},"&":{"ha":989,"x_min":61,"x_max":977,"o":"m 335 490 q 225 396 262 451 q 188 275 188 340 q 204 195 188 230 q 248 138 221 161 q 310 102 275 114 q 381 90 344 90 q 520 118 458 90 q 629 194 583 147 l 335 490 m 977 0 l 857 0 q 824 5 837 0 q 797 25 812 10 l 697 126 q 546 26 631 63 q 359 -11 461 -11 q 250 8 303 -11 q 155 62 197 26 q 87 149 113 98 q 61 265 61 201 q 77 357 61 314 q 123 438 94 401 q 192 503 152 474 q 278 553 231 533 q 216 658 236 608 q 196 763 196 708 q 214 858 196 813 q 267 935 233 902 q 352 987 302 968 q 463 1006 401 1006 q 563 989 518 1006 q 641 942 608 971 q 693 874 674 913 q 715 794 712 835 l 638 778 q 603 800 615 773 q 588 838 599 818 q 560 873 577 857 q 519 899 543 889 q 463 910 495 910 q 400 899 428 910 q 352 868 372 888 q 322 821 333 848 q 312 763 312 794 q 317 717 312 739 q 335 672 323 694 q 366 625 347 649 q 411 575 385 601 l 697 284 q 740 382 724 331 q 760 484 756 433 q 769 505 762 497 q 788 513 776 513 l 864 513 q 839 356 863 433 q 769 212 815 279 l 977 0 z "},"@":{"ha":1162,"x_min":72,"x_max":1099,"o":"m 733 571 q 673 577 706 577 q 577 555 621 577 q 503 498 534 533 q 454 417 472 463 q 436 323 436 371 q 459 243 436 273 q 527 213 482 213 q 570 219 549 213 q 613 244 592 226 q 651 291 633 261 q 680 366 668 321 l 733 571 m 776 377 q 763 291 762 324 q 773 240 763 258 q 801 214 783 221 q 841 208 819 208 q 906 227 875 208 q 959 282 936 247 q 996 367 983 317 q 1010 477 1010 417 q 979 645 1010 573 q 895 766 949 717 q 768 838 841 814 q 610 862 694 862 q 435 826 517 862 q 294 728 354 791 q 198 581 233 666 q 163 394 163 495 q 200 187 163 276 q 302 38 238 98 q 453 -53 366 -23 q 639 -84 540 -84 q 825 -61 744 -84 q 965 -3 906 -38 q 990 2 979 6 q 1005 -13 1000 -1 l 1023 -59 q 853 -137 948 -109 q 639 -166 758 -166 q 415 -128 518 -166 q 235 -18 311 -90 q 116 158 159 54 q 72 394 72 263 q 91 540 72 470 q 145 671 110 610 q 228 782 180 732 q 337 868 277 833 q 466 924 397 904 q 610 944 535 944 q 735 930 674 944 q 850 889 796 916 q 950 822 905 862 q 1029 730 996 782 q 1081 615 1063 678 q 1099 477 1099 551 q 1078 339 1099 402 q 1020 228 1057 275 q 932 156 983 182 q 823 129 881 129 q 736 155 770 129 q 692 235 701 181 q 605 155 652 179 q 503 131 558 131 q 431 145 462 131 q 380 184 400 159 q 350 244 360 210 q 340 319 340 279 q 362 439 340 378 q 429 547 385 499 q 540 626 474 595 q 692 656 606 656 q 774 649 739 656 q 841 628 810 642 l 776 377 z "},"©":{"ha":1155,"x_min":70,"x_max":1085,"o":"m 755 329 q 774 322 765 330 l 815 277 q 718 206 776 231 q 581 181 661 181 q 457 204 513 181 q 361 270 401 228 q 299 371 321 313 q 277 499 277 429 q 301 627 277 569 q 367 728 324 686 q 467 793 409 770 q 593 817 525 817 q 721 793 669 817 q 813 731 774 770 l 781 686 q 772 678 778 682 q 759 674 767 674 q 739 681 749 674 q 710 698 728 689 q 666 716 693 708 q 599 724 640 724 q 511 708 550 724 q 444 663 472 692 q 402 592 417 634 q 388 499 388 551 q 402 403 388 445 q 444 333 417 361 q 507 289 470 304 q 586 274 543 274 q 647 280 622 274 q 689 293 671 285 q 723 311 708 301 q 755 329 738 321 m 70 497 q 88 632 70 567 q 140 754 106 697 q 219 857 173 810 q 322 936 265 903 q 442 988 378 969 q 577 1006 507 1006 q 712 988 647 1006 q 833 936 777 969 q 936 857 890 903 q 1016 754 983 810 q 1067 632 1049 697 q 1085 497 1085 567 q 1067 363 1085 428 q 1016 242 1049 298 q 936 139 983 185 q 833 60 890 93 q 712 8 777 26 q 577 -10 647 -10 q 442 8 507 -10 q 322 60 378 26 q 219 139 265 93 q 140 242 173 185 q 88 363 106 298 q 70 497 70 427 m 140 497 q 156 378 140 435 q 199 272 171 322 q 267 182 227 222 q 355 113 307 142 q 460 68 403 84 q 577 53 516 53 q 695 68 638 53 q 800 113 751 84 q 889 182 849 142 q 958 272 929 222 q 1002 378 986 322 q 1017 497 1017 435 q 983 672 1017 590 q 889 814 949 753 q 749 910 830 875 q 577 945 669 945 q 460 929 516 945 q 355 884 403 913 q 267 815 307 856 q 199 724 227 774 q 156 617 171 674 q 140 497 140 559 z "},"℗":{"ha":1155,"x_min":70,"x_max":1085,"o":"m 578 490 q 649 499 621 490 q 694 524 677 508 q 717 563 710 540 q 724 611 724 585 q 718 658 724 637 q 695 694 711 679 q 654 717 680 709 q 590 725 628 725 l 499 725 l 499 490 l 578 490 m 590 808 q 697 793 651 808 q 772 752 742 778 q 816 690 801 726 q 831 611 831 653 q 816 534 831 571 q 772 470 801 498 q 695 427 742 443 q 586 411 649 411 l 499 411 l 499 189 l 390 189 l 390 808 l 590 808 m 577 53 q 695 68 638 53 q 800 113 751 84 q 889 182 849 142 q 958 272 929 222 q 1002 378 986 322 q 1017 497 1017 435 q 983 672 1017 590 q 889 814 949 753 q 749 910 830 875 q 577 945 669 945 q 460 929 516 945 q 355 884 403 913 q 267 815 307 856 q 199 724 227 774 q 156 617 171 674 q 140 497 140 559 q 156 378 140 435 q 199 272 171 322 q 267 182 227 222 q 355 113 307 142 q 460 68 403 84 q 577 53 516 53 m 577 1006 q 712 988 647 1006 q 833 936 777 969 q 936 857 890 903 q 1016 754 983 810 q 1067 632 1049 697 q 1085 497 1085 567 q 1067 363 1085 428 q 1016 242 1049 298 q 936 139 983 185 q 833 60 890 93 q 712 8 777 26 q 577 -10 647 -10 q 442 8 507 -10 q 322 60 378 26 q 219 139 265 93 q 140 242 173 185 q 88 363 106 298 q 70 497 70 427 q 88 632 70 567 q 140 754 106 697 q 219 857 173 810 q 322 936 265 903 q 442 988 378 969 q 577 1006 507 1006 z "},"®":{"ha":1155,"x_min":70,"x_max":1085,"o":"m 558 514 q 666 542 635 514 q 697 623 697 570 q 691 668 697 649 q 669 700 684 688 q 630 719 654 713 q 569 725 605 725 l 478 725 l 478 514 l 558 514 m 569 808 q 746 765 689 808 q 803 637 803 722 q 767 526 803 572 q 656 463 730 480 q 677 445 668 456 q 693 421 685 435 l 851 189 l 748 189 q 715 206 725 189 l 574 416 q 559 430 568 425 q 533 435 551 435 l 478 435 l 478 189 l 369 189 l 369 808 l 569 808 m 577 53 q 695 68 638 53 q 800 113 751 84 q 889 182 849 142 q 958 272 929 222 q 1002 378 986 322 q 1017 497 1017 435 q 983 672 1017 590 q 889 814 949 753 q 749 910 830 875 q 577 945 669 945 q 460 929 516 945 q 355 884 403 913 q 267 815 307 856 q 199 724 227 774 q 156 617 171 674 q 140 497 140 559 q 156 378 140 435 q 199 272 171 322 q 267 182 227 222 q 355 113 307 142 q 460 68 403 84 q 577 53 516 53 m 577 1006 q 712 988 647 1006 q 833 936 777 969 q 936 857 890 903 q 1016 754 983 810 q 1067 632 1049 697 q 1085 497 1085 567 q 1067 363 1085 428 q 1016 242 1049 298 q 936 139 983 185 q 833 60 890 93 q 712 8 777 26 q 577 -10 647 -10 q 442 8 507 -10 q 322 60 378 26 q 219 139 265 93 q 140 242 173 185 q 88 363 106 298 q 70 497 70 427 q 88 632 70 567 q 140 754 106 697 q 219 857 173 810 q 322 936 265 903 q 442 988 378 969 q 577 1006 507 1006 z "},"™":{"ha":1042,"x_min":61,"x_max":934,"o":"m 61 995 l 399 995 l 399 922 l 274 922 l 274 584 l 187 584 l 187 922 l 61 922 l 61 995 m 934 995 l 934 584 l 858 584 l 858 838 l 864 889 l 737 656 q 707 637 728 637 l 694 637 q 664 656 673 637 l 536 889 l 542 838 l 542 584 l 465 584 l 465 995 l 539 995 q 556 992 551 995 q 569 981 561 990 l 686 770 q 700 734 695 751 q 715 770 706 753 l 832 981 q 844 992 839 990 q 861 995 849 995 l 934 995 z "},"℠":{"ha":1033,"x_min":89,"x_max":926,"o":"m 348 922 q 329 910 341 910 q 316 914 323 910 q 299 923 309 918 q 275 933 289 928 q 242 938 261 938 q 198 924 215 938 q 181 889 181 910 q 195 861 181 872 q 230 844 209 851 q 276 829 251 837 q 321 808 300 821 q 356 773 342 794 q 370 716 370 751 q 360 663 370 688 q 332 620 351 639 q 287 592 314 602 q 226 581 260 581 q 150 596 186 581 q 89 635 113 611 l 110 674 q 118 682 113 679 q 128 685 123 685 q 144 680 135 685 q 164 667 152 674 q 191 654 175 660 q 228 648 206 648 q 278 665 262 648 q 294 706 294 681 q 281 736 294 726 q 245 755 267 747 q 200 769 224 763 q 154 790 175 776 q 119 825 133 803 q 105 885 105 848 q 114 930 105 908 q 141 968 123 951 q 184 994 158 984 q 242 1004 209 1004 q 310 993 278 1004 q 363 961 342 981 l 348 922 m 926 995 l 926 584 l 849 584 l 849 838 l 856 890 l 728 656 q 698 637 719 637 l 685 637 q 655 656 664 637 l 528 888 l 533 838 l 533 584 l 457 584 l 457 995 l 530 995 q 547 992 542 995 q 560 981 552 990 l 677 770 q 685 752 681 760 q 691 733 688 743 q 706 770 697 753 l 823 981 q 835 992 830 990 q 852 995 841 995 l 926 995 z "},"°":{"ha":576,"x_min":62,"x_max":515,"o":"m 62 783 q 79 871 62 830 q 127 942 97 912 q 199 990 158 972 q 288 1007 240 1007 q 377 990 335 1007 q 449 942 418 972 q 497 871 479 912 q 515 783 515 830 q 497 697 515 738 q 449 626 479 656 q 377 578 418 596 q 288 560 335 560 q 199 578 240 560 q 127 626 158 596 q 79 697 97 656 q 62 783 62 738 m 149 783 q 160 728 149 753 q 189 684 170 703 q 233 655 208 665 q 288 644 258 644 q 342 655 317 644 q 386 684 367 665 q 415 728 405 703 q 426 783 426 753 q 415 838 426 812 q 386 882 405 863 q 342 912 367 901 q 288 923 317 923 q 233 912 258 923 q 189 882 208 901 q 160 838 170 863 q 149 783 149 812 z "},"¤":{"ha":806,"x_min":92,"x_max":714,"o":"m 247 467 q 259 407 247 435 q 292 357 271 378 q 342 324 314 336 q 403 311 370 311 q 464 324 435 311 q 514 357 493 336 q 548 407 535 378 q 560 467 560 435 q 548 528 560 499 q 514 578 535 556 q 464 611 493 599 q 403 624 435 624 q 342 611 370 624 q 292 578 314 599 q 259 528 271 556 q 247 467 247 499 m 651 158 l 545 263 q 479 231 515 242 q 403 219 443 219 q 328 230 363 219 q 263 262 293 242 l 156 156 l 94 219 l 199 324 q 167 391 178 355 q 155 467 155 427 q 166 542 155 506 q 198 607 178 577 l 92 713 l 155 776 l 260 670 q 326 703 290 692 q 403 715 363 715 q 478 704 442 715 q 544 672 513 692 l 649 778 l 711 715 l 606 610 q 640 543 628 579 q 651 467 651 507 q 640 392 651 427 q 608 326 628 357 l 714 222 l 651 158 z "},"€":{"ha":806,"x_min":16,"x_max":783,"o":"m 16 624 l 118 624 q 165 782 132 712 q 247 902 198 853 q 359 978 296 952 q 498 1005 423 1005 q 584 996 544 1005 q 657 970 624 987 q 719 929 691 953 q 772 874 748 905 l 729 827 q 718 816 724 821 q 703 812 713 812 q 678 825 691 812 q 644 854 665 838 q 589 883 622 870 q 503 897 556 897 q 335 827 402 897 q 246 624 268 758 l 626 624 l 626 586 q 616 564 626 574 q 590 553 607 553 l 238 553 q 236 526 237 540 q 236 497 236 512 q 236 476 236 486 q 237 455 236 465 l 561 455 l 561 416 q 551 394 561 404 q 525 384 541 384 l 243 384 q 329 169 263 241 q 497 98 395 98 q 563 105 534 98 q 612 124 591 113 q 648 148 633 135 q 674 172 663 160 q 693 190 685 183 q 710 197 702 197 q 721 195 717 197 q 731 188 725 193 l 783 139 q 661 29 733 69 q 490 -10 589 -10 q 345 17 410 -10 q 233 95 281 44 q 156 220 185 147 q 115 384 126 293 l 16 384 l 16 455 l 109 455 q 108 476 108 465 q 108 497 108 486 q 109 525 108 511 q 110 553 109 540 l 16 553 l 16 624 z "},"$":{"ha":806,"x_min":68,"x_max":731,"o":"m 426 95 q 506 115 472 99 q 565 155 541 131 q 601 211 589 179 q 613 283 613 244 q 600 342 613 317 q 565 386 588 367 q 513 417 543 404 q 449 441 483 430 l 426 95 m 403 898 q 325 880 358 894 q 270 845 292 866 q 238 798 249 824 q 228 744 228 772 q 240 686 228 710 q 272 642 251 661 q 321 610 293 624 q 381 585 349 596 l 403 898 m 458 560 q 556 526 508 544 q 644 480 605 508 q 707 409 683 451 q 731 302 731 366 q 710 185 731 240 q 649 88 689 130 q 551 20 609 47 q 419 -10 493 -6 l 410 -132 q 400 -155 410 -145 q 376 -165 390 -165 l 330 -165 l 340 -9 q 187 33 256 -1 q 68 119 118 67 l 106 176 q 119 188 111 183 q 138 193 128 193 q 167 180 151 193 q 209 150 184 167 q 267 117 233 133 q 348 96 301 101 l 373 465 q 277 497 324 479 q 193 545 231 515 q 134 619 156 575 q 111 731 111 664 q 131 830 111 782 q 189 916 151 878 q 283 977 227 953 q 410 1004 338 1001 l 417 1104 q 427 1128 417 1117 q 451 1138 436 1138 l 497 1138 l 488 1001 q 614 964 560 992 q 708 894 667 935 l 678 849 q 646 828 664 828 q 622 836 636 828 q 588 857 608 845 q 541 880 568 869 q 481 897 515 891 l 458 560 z "},"¢":{"ha":806,"x_min":97,"x_max":714,"o":"m 434 618 q 341 594 381 614 q 274 540 301 574 q 233 458 247 506 q 219 351 219 410 q 266 173 219 240 q 397 90 313 106 l 434 618 m 714 98 q 608 23 672 49 q 469 -8 544 -3 l 460 -130 q 450 -153 459 -143 q 426 -163 441 -163 l 380 -163 l 391 -8 q 273 27 327 -1 q 180 100 219 54 q 118 209 140 146 q 97 351 97 272 q 119 493 97 428 q 186 606 142 558 q 294 682 230 654 q 441 713 358 710 l 449 837 q 460 861 451 851 q 483 871 469 871 l 530 871 l 519 709 q 622 679 576 701 q 704 623 667 657 l 672 580 q 661 568 667 572 q 647 565 656 565 q 627 570 638 565 q 600 585 616 576 q 563 601 585 593 q 512 615 541 610 l 476 85 q 549 99 519 88 q 598 122 578 110 q 632 143 619 134 q 656 153 645 153 q 670 150 664 153 q 680 142 676 147 l 714 98 z "},"£":{"ha":806,"x_min":33,"x_max":772,"o":"m 33 467 q 44 497 33 485 q 76 510 56 510 l 169 510 l 169 691 q 188 814 169 756 q 244 914 206 871 q 339 981 283 956 q 472 1006 396 1006 q 569 992 526 1006 q 644 955 611 978 q 700 900 676 931 q 741 833 724 869 l 691 801 q 657 793 673 792 q 628 810 642 794 q 600 845 615 829 q 568 873 586 861 q 527 892 550 885 q 472 899 503 899 q 395 885 428 899 q 340 843 363 870 q 307 778 318 816 q 296 692 296 740 l 296 510 l 601 510 l 601 460 q 591 437 601 447 q 565 426 581 426 l 296 426 l 296 258 q 276 168 296 206 q 222 99 256 130 q 261 105 241 102 q 301 107 281 107 l 772 107 l 772 54 q 768 35 772 44 q 757 18 764 26 q 740 5 749 10 q 717 0 730 0 l 48 0 l 48 80 q 93 99 72 87 q 132 128 115 110 q 159 170 149 146 q 169 226 169 194 l 169 426 l 33 426 l 33 467 z "},"¥":{"ha":806,"x_min":34,"x_max":772,"o":"m 488 434 l 701 434 l 701 363 l 465 363 l 465 290 l 701 290 l 701 219 l 465 219 l 465 0 l 341 0 l 341 219 l 104 219 l 104 290 l 341 290 l 341 363 l 104 363 l 104 434 l 318 434 l 34 995 l 137 995 q 166 986 155 995 q 183 964 178 978 l 376 571 q 392 527 385 547 q 404 487 399 507 q 431 571 413 525 l 622 964 q 639 985 628 976 q 668 995 651 995 l 772 995 l 488 434 z "},"℅":{"ha":1154,"x_min":41,"x_max":1117,"o":"m 856 974 q 872 989 863 983 q 898 995 881 995 l 988 995 l 260 20 q 244 6 253 11 q 220 0 234 0 l 128 0 l 856 974 m 418 618 q 431 612 426 618 l 469 570 q 393 512 438 532 q 285 492 349 492 q 184 511 229 492 q 107 564 139 530 q 58 646 75 599 q 41 750 41 694 q 59 855 41 807 q 111 936 78 902 q 190 990 144 971 q 292 1009 236 1009 q 390 991 347 1009 q 463 943 433 972 l 431 898 q 423 890 428 893 q 411 887 419 887 q 395 893 403 887 q 373 907 386 899 q 341 920 360 914 q 291 926 321 926 q 230 915 258 926 q 181 880 201 903 q 150 825 161 858 q 139 750 139 792 q 151 675 139 708 q 183 620 163 642 q 232 585 204 597 q 292 574 260 574 q 355 582 330 574 q 402 611 379 591 q 418 618 410 618 m 1117 248 q 1099 145 1117 192 q 1047 63 1081 98 q 965 9 1013 28 q 860 -11 918 -11 q 756 9 803 -11 q 674 63 708 28 q 622 145 640 98 q 603 248 603 192 q 622 351 603 303 q 674 433 640 399 q 756 488 708 468 q 860 507 803 507 q 965 488 918 507 q 1047 433 1013 468 q 1099 351 1081 399 q 1117 248 1117 303 m 1019 248 q 977 377 1019 331 q 860 424 935 424 q 794 412 824 424 q 744 377 765 400 q 712 322 723 354 q 701 248 701 289 q 712 174 701 207 q 744 119 723 142 q 794 84 765 97 q 860 72 824 72 q 977 119 935 72 q 1019 248 1019 165 z "},"№":{"ha":1608,"x_min":143,"x_max":1535,"o":"m 831 995 l 949 995 l 949 0 l 881 0 q 855 6 865 0 q 834 24 844 11 l 258 774 q 260 740 259 756 q 261 709 261 723 l 261 0 l 143 0 l 143 995 l 212 995 q 239 991 230 995 q 258 972 247 986 l 835 222 q 832 257 833 240 q 831 290 831 275 l 831 995 m 1308 924 q 1213 885 1248 924 q 1178 779 1178 847 q 1213 674 1178 712 q 1308 636 1248 636 q 1403 674 1369 636 q 1438 779 1438 712 q 1403 885 1438 847 q 1308 924 1369 924 m 1308 551 q 1216 568 1258 551 q 1145 616 1174 585 q 1099 688 1115 646 q 1083 778 1083 729 q 1099 869 1083 827 q 1145 941 1115 911 q 1216 989 1174 972 q 1308 1006 1258 1006 q 1401 989 1359 1006 q 1473 941 1443 972 q 1519 869 1503 911 q 1535 778 1535 827 q 1519 688 1535 729 q 1473 616 1503 646 q 1401 568 1443 585 q 1308 551 1359 551 m 1084 463 l 1531 463 l 1531 373 l 1084 373 l 1084 463 z "},"#":{"ha":806,"x_min":37,"x_max":769,"o":"m 507 611 l 335 611 l 290 385 l 462 385 l 507 611 m 769 702 l 760 650 q 744 620 757 630 q 705 611 731 611 l 609 611 l 564 385 l 688 385 q 717 373 708 385 q 722 333 726 362 l 715 294 l 551 294 l 492 0 l 436 0 q 419 4 427 0 q 407 15 412 8 q 399 32 401 22 q 399 53 397 42 l 449 294 l 277 294 l 228 47 q 208 11 224 22 q 172 0 192 0 l 116 0 l 175 294 l 74 294 q 45 305 54 294 q 41 345 37 317 l 47 385 l 188 385 l 233 611 l 72 611 l 81 663 q 98 692 85 683 q 137 702 110 702 l 247 702 l 297 951 q 316 983 301 972 q 351 995 331 995 l 407 995 l 349 702 l 520 702 l 578 995 l 633 995 q 665 982 653 995 q 673 949 676 969 l 622 702 l 769 702 z "},"₀":{"ha":464,"x_min":42,"x_max":422,"o":"m 422 96 q 407 -19 422 29 q 366 -100 392 -68 q 305 -147 340 -131 q 231 -162 270 -162 q 157 -147 191 -162 q 97 -100 122 -131 q 57 -19 72 -68 q 42 96 42 29 q 57 211 42 163 q 97 292 72 260 q 157 339 122 324 q 231 355 191 355 q 305 339 270 355 q 366 292 340 324 q 407 211 392 260 q 422 96 422 163 m 331 96 q 323 186 331 151 q 302 243 315 222 q 270 273 288 265 q 231 281 252 281 q 191 273 209 281 q 160 243 173 265 q 140 186 147 222 q 133 96 133 151 q 141 6 133 42 q 162 -51 149 -30 q 193 -81 175 -72 q 231 -89 210 -89 q 269 -81 251 -89 q 301 -51 288 -72 q 323 6 315 -30 q 331 96 331 42 z "},"₁":{"ha":464,"x_min":74,"x_max":393,"o":"m 393 -98 l 393 -157 l 110 -157 l 110 -98 l 213 -98 l 213 208 l 216 238 l 141 176 q 129 170 135 172 q 117 170 123 169 q 107 174 112 172 q 101 180 103 177 l 74 219 l 228 351 l 303 351 l 303 -98 l 393 -98 z "},"₂":{"ha":464,"x_min":51,"x_max":406,"o":"m 376 -74 q 398 -82 390 -74 q 406 -103 406 -90 l 406 -157 l 51 -157 l 51 -127 q 55 -108 51 -118 q 67 -90 59 -99 l 221 62 q 280 133 256 97 q 303 208 303 170 q 283 262 303 243 q 231 281 262 281 q 179 265 199 281 q 150 219 160 248 q 134 201 143 206 q 107 199 125 197 l 58 208 q 116 318 68 281 q 235 355 164 355 q 301 344 272 355 q 351 315 331 334 q 384 270 372 297 q 395 210 395 243 q 386 159 395 183 q 363 113 378 135 q 330 72 349 92 q 290 31 311 51 l 177 -84 q 210 -77 194 -80 q 241 -74 226 -74 l 376 -74 z "},"₃":{"ha":464,"x_min":49,"x_max":403,"o":"m 63 208 q 83 272 68 244 q 121 318 99 299 q 173 345 144 336 q 236 355 202 355 q 300 345 272 355 q 349 317 328 335 q 381 276 369 299 q 392 224 392 252 q 310 104 392 135 q 403 -6 403 78 q 388 -74 403 -44 q 350 -123 374 -103 q 294 -152 326 -142 q 229 -162 263 -162 q 160 -154 190 -162 q 110 -128 131 -145 q 74 -86 89 -111 q 49 -28 59 -61 l 87 -12 q 116 -9 102 -6 q 135 -24 129 -12 q 144 -41 138 -31 q 159 -62 149 -52 q 185 -80 169 -73 q 224 -87 201 -87 q 262 -81 246 -87 q 290 -63 278 -74 q 306 -38 301 -52 q 312 -10 312 -24 q 306 26 312 11 q 286 51 300 41 q 250 65 273 60 q 195 70 228 70 l 195 131 q 280 152 256 131 q 305 209 305 173 q 285 262 305 244 q 231 280 265 280 q 178 264 198 280 q 150 219 158 247 q 135 201 143 206 q 110 199 128 197 l 63 208 z "},"₄":{"ha":464,"x_min":25,"x_max":424,"o":"m 274 28 l 274 196 q 278 257 274 224 l 110 28 l 274 28 m 424 28 l 424 -17 q 419 -30 424 -24 q 406 -35 415 -35 l 349 -35 l 349 -157 l 274 -157 l 274 -35 l 61 -35 q 41 -29 48 -35 q 32 -15 34 -24 l 25 24 l 263 349 l 349 349 l 349 28 l 424 28 z "},"₅":{"ha":464,"x_min":58,"x_max":395,"o":"m 170 161 q 233 168 201 168 q 303 157 272 168 q 354 126 333 146 q 385 79 374 106 q 395 18 395 51 q 381 -56 395 -23 q 342 -113 367 -89 q 282 -150 317 -137 q 207 -162 247 -162 q 122 -144 159 -162 q 58 -102 84 -126 l 85 -65 q 108 -52 94 -52 q 125 -58 116 -52 q 146 -69 134 -63 q 174 -81 158 -76 q 212 -87 190 -87 q 247 -81 231 -87 q 277 -64 264 -76 q 297 -34 290 -52 q 305 8 305 -16 q 282 72 305 49 q 214 95 260 95 q 177 91 196 95 q 140 82 158 88 l 85 97 l 128 349 l 378 349 l 378 312 q 366 281 378 293 q 326 269 354 269 l 189 269 l 170 161 z "},"₆":{"ha":464,"x_min":57,"x_max":412,"o":"m 235 -94 q 273 -87 256 -94 q 302 -68 290 -80 q 322 -39 315 -56 q 328 -3 328 -22 q 305 65 328 41 q 240 90 281 90 q 200 82 218 90 q 170 63 183 75 q 152 34 158 51 q 146 -1 146 17 q 170 -68 146 -42 q 235 -94 194 -94 m 229 186 q 201 154 215 169 q 172 123 186 139 q 216 147 192 138 q 267 156 240 156 q 320 147 294 156 q 366 120 346 138 q 399 74 387 102 q 412 8 412 47 q 399 -58 412 -27 q 363 -112 386 -90 q 306 -149 339 -135 q 233 -162 273 -162 q 159 -150 192 -162 q 104 -113 127 -137 q 69 -57 81 -90 q 57 15 57 -24 q 117 167 57 88 l 238 328 q 256 343 243 338 q 284 349 268 349 l 363 349 l 229 186 z "},"₇":{"ha":464,"x_min":60,"x_max":412,"o":"m 412 349 l 412 301 q 409 285 412 292 q 403 269 407 277 l 209 -127 q 197 -147 205 -137 q 167 -157 188 -157 l 98 -157 l 294 224 q 320 266 306 248 l 81 266 q 67 273 74 266 q 60 288 60 279 l 60 349 l 412 349 z "},"₈":{"ha":464,"x_min":56,"x_max":408,"o":"m 232 -94 q 297 -71 275 -94 q 318 -12 318 -48 q 311 26 318 10 q 292 52 304 42 q 265 66 281 62 q 232 70 249 70 q 199 66 215 70 q 172 52 184 62 q 153 26 160 42 q 147 -12 147 10 q 168 -71 147 -48 q 232 -94 190 -94 m 232 288 q 199 282 213 288 q 175 267 185 276 q 161 244 166 257 q 156 217 156 231 q 175 161 156 182 q 232 140 193 140 q 290 161 272 140 q 309 217 309 182 q 304 244 309 231 q 290 267 299 257 q 265 282 280 276 q 232 288 251 288 m 319 107 q 386 61 365 92 q 408 -15 408 30 q 395 -75 408 -48 q 359 -122 383 -103 q 304 -152 336 -142 q 232 -162 272 -162 q 160 -152 193 -162 q 105 -122 128 -142 q 68 -75 81 -103 q 56 -15 56 -48 q 77 61 56 30 q 145 107 99 92 q 73 219 73 139 q 85 273 73 249 q 118 316 97 298 q 168 344 139 334 q 232 355 197 355 q 297 344 267 355 q 347 316 326 334 q 379 273 367 298 q 391 219 391 249 q 373 151 391 180 q 319 107 355 123 z "},"₉":{"ha":464,"x_min":58,"x_max":399,"o":"m 144 201 q 167 138 144 159 q 228 116 189 116 q 294 140 270 116 q 317 200 317 164 q 293 263 317 240 q 233 286 269 286 q 168 263 191 286 q 144 201 144 240 m 239 22 q 260 47 249 35 q 280 71 270 59 q 243 57 263 61 q 203 52 224 52 q 149 62 175 52 q 102 90 123 72 q 70 135 82 108 q 58 196 58 162 q 70 255 58 226 q 106 306 83 284 q 160 342 128 328 q 231 355 192 355 q 301 343 270 355 q 354 311 332 332 q 388 260 376 290 q 399 193 399 230 q 382 101 399 142 q 333 15 365 60 l 227 -137 q 209 -151 221 -145 q 182 -157 197 -157 l 101 -157 l 239 22 z "},"₊":{"ha":464,"x_min":61,"x_max":403,"o":"m 403 52 l 267 52 l 267 -92 l 196 -92 l 196 52 l 61 52 l 61 119 l 196 119 l 196 261 l 267 261 l 267 119 l 403 119 l 403 52 z "},"₋":{"ha":464,"x_min":76,"x_max":388,"o":"m 76 119 l 388 119 l 388 52 l 76 52 l 76 119 z "},"₌":{"ha":464,"x_min":76,"x_max":388,"o":"m 76 57 l 388 57 l 388 -9 l 76 -9 l 76 57 m 76 181 l 388 181 l 388 115 l 76 115 l 76 181 z "},"₍":{"ha":232,"x_min":44,"x_max":194,"o":"m 120 90 q 138 -51 120 19 q 187 -182 155 -121 q 191 -204 194 -196 q 179 -217 187 -212 l 140 -241 q 66 -80 88 -160 q 44 90 44 1 q 66 260 44 178 q 140 421 88 341 l 179 397 q 191 384 187 392 q 187 363 194 377 q 138 232 155 301 q 120 90 120 162 z "},"₎":{"ha":232,"x_min":38,"x_max":189,"o":"m 113 90 q 95 232 113 162 q 46 363 78 301 q 42 384 38 377 q 53 397 46 392 l 93 421 q 167 260 144 341 q 189 90 189 178 q 167 -80 189 1 q 93 -241 144 -160 l 53 -217 q 42 -204 46 -212 q 46 -182 38 -196 q 95 -51 78 -121 q 113 90 113 19 z "},"⁄":{"ha":194,"x_min":-247,"x_max":442,"o":"m -130 37 q -158 8 -143 15 q -194 0 -174 0 l -247 0 l 322 953 q 350 984 334 973 q 388 995 366 995 l 442 995 l -130 37 z "},"⅔":{"ha":1029,"x_min":67,"x_max":965,"o":"m 315 37 q 286 8 301 15 q 251 0 271 0 l 198 0 l 766 953 q 794 984 778 973 q 833 995 810 995 l 886 995 l 315 37 m 392 571 q 414 563 406 571 q 422 542 422 556 l 422 488 l 67 488 l 67 518 q 71 537 67 527 q 83 555 75 547 l 237 707 q 295 778 272 742 q 319 853 319 815 q 299 907 319 888 q 247 926 278 926 q 195 910 215 926 q 166 864 176 893 q 150 847 159 851 q 123 844 141 842 l 74 853 q 132 963 84 926 q 251 1000 180 1000 q 317 990 288 1000 q 367 960 347 979 q 400 915 388 942 q 411 856 411 888 q 402 804 411 828 q 379 758 394 780 q 346 717 365 737 q 306 676 327 697 l 193 561 q 226 568 210 565 q 257 571 242 571 l 392 571 m 626 365 q 646 429 631 401 q 684 475 661 456 q 735 502 706 493 q 799 512 765 512 q 863 502 834 512 q 911 474 891 492 q 943 433 932 456 q 954 381 954 409 q 872 261 954 292 q 965 151 965 235 q 951 83 965 113 q 912 34 936 54 q 857 5 888 15 q 792 -6 825 -6 q 723 3 752 -6 q 673 29 694 12 q 636 71 651 46 q 611 128 622 96 l 649 145 q 678 148 665 151 q 697 133 692 145 q 706 116 701 126 q 722 94 712 105 q 748 77 732 84 q 787 69 763 69 q 825 76 808 69 q 852 94 841 83 q 869 119 863 105 q 874 147 874 133 q 868 183 874 168 q 849 208 863 198 q 813 222 835 217 q 758 227 790 227 l 758 288 q 843 309 818 288 q 867 366 867 330 q 847 419 867 401 q 794 437 827 437 q 741 420 760 437 q 713 376 721 404 q 698 358 706 363 q 672 356 690 353 l 626 365 z "},"⅖":{"ha":1011,"x_min":66,"x_max":942,"o":"m 314 37 q 285 8 301 15 q 250 0 270 0 l 197 0 l 765 953 q 794 984 778 973 q 832 995 810 995 l 885 995 l 314 37 m 391 571 q 413 563 405 571 q 421 542 421 556 l 421 488 l 66 488 l 66 518 q 70 537 66 527 q 82 555 74 547 l 235 707 q 294 778 270 742 q 318 853 318 815 q 297 907 318 888 q 246 926 276 926 q 194 910 213 926 q 165 864 174 893 q 149 847 158 851 q 122 844 140 842 l 72 853 q 131 963 83 926 q 250 1000 178 1000 q 316 990 286 1000 q 366 960 345 979 q 398 915 387 942 q 410 856 410 888 q 401 804 410 828 q 378 758 392 780 q 344 717 363 737 q 305 676 326 697 l 192 561 q 225 568 208 565 q 256 571 241 571 l 391 571 m 717 318 q 779 325 747 325 q 849 314 819 325 q 900 283 880 303 q 931 236 921 263 q 942 175 942 208 q 927 101 942 134 q 888 44 913 68 q 828 7 863 20 q 753 -6 794 -6 q 668 13 706 -6 q 605 55 631 31 l 631 92 q 654 105 640 105 q 672 99 663 105 q 692 88 681 94 q 720 76 704 81 q 758 70 736 70 q 794 76 777 70 q 823 93 810 81 q 844 123 836 105 q 851 165 851 141 q 829 229 851 206 q 760 252 806 252 q 724 248 742 252 q 686 239 705 244 l 631 254 l 674 506 l 925 506 l 925 469 q 913 438 925 450 q 873 426 901 426 l 735 426 l 717 318 z "},"+":{"ha":806,"x_min":70,"x_max":736,"o":"m 736 419 l 453 419 l 453 121 l 352 121 l 352 419 l 70 419 l 70 513 l 352 513 l 352 810 l 453 810 l 453 513 l 736 513 l 736 419 z "},"−":{"ha":806,"x_min":104,"x_max":701,"o":"m 104 513 l 701 513 l 701 419 l 104 419 l 104 513 z "},"×":{"ha":806,"x_min":90,"x_max":716,"o":"m 650 153 l 404 400 l 156 152 l 90 219 l 338 466 l 98 706 l 164 772 l 403 533 l 642 771 l 708 704 l 470 466 l 716 220 l 650 153 z "},"÷":{"ha":806,"x_min":69,"x_max":735,"o":"m 69 513 l 735 513 l 735 419 l 69 419 l 69 513 m 315 713 q 322 747 315 731 q 340 774 328 763 q 368 793 352 786 q 402 800 383 800 q 436 793 420 800 q 463 774 451 786 q 482 747 475 763 q 489 713 489 731 q 482 678 489 694 q 463 651 475 663 q 436 632 451 639 q 402 626 420 626 q 368 632 383 626 q 340 651 352 639 q 322 678 328 663 q 315 713 315 694 m 315 218 q 322 252 315 236 q 340 280 328 268 q 368 299 352 292 q 402 306 383 306 q 436 299 420 306 q 463 280 451 292 q 482 252 475 268 q 489 218 489 236 q 482 184 489 199 q 463 156 475 168 q 436 138 451 144 q 402 131 420 131 q 368 138 383 131 q 340 156 352 144 q 322 184 328 168 q 315 218 315 199 z "},"=":{"ha":806,"x_min":104,"x_max":701,"o":"m 104 399 l 701 399 l 701 305 l 104 305 l 104 399 m 104 631 l 701 631 l 701 538 l 104 538 l 104 631 z "},"≠":{"ha":806,"x_min":105,"x_max":702,"o":"m 491 538 l 425 399 l 702 399 l 702 305 l 381 305 l 299 130 l 209 130 l 292 305 l 105 305 l 105 399 l 335 399 l 401 538 l 105 538 l 105 631 l 445 631 l 524 799 l 614 799 l 535 631 l 702 631 l 702 538 l 491 538 z "},"≈":{"ha":806,"x_min":122,"x_max":683,"o":"m 546 596 q 585 601 566 596 q 619 613 603 606 q 648 628 635 620 q 666 644 660 637 l 683 565 q 620 517 659 533 q 538 501 581 501 q 466 512 502 501 q 395 538 431 524 q 327 563 360 551 q 263 574 294 574 q 223 570 242 574 q 188 558 204 565 q 160 542 172 551 q 142 525 148 533 l 122 601 q 185 653 146 636 q 271 670 225 670 q 344 659 308 670 q 415 633 380 647 q 482 607 449 619 q 546 596 515 596 m 546 361 q 585 366 566 361 q 619 377 603 370 q 648 393 635 385 q 666 409 660 401 l 683 331 q 620 281 659 297 q 538 265 581 265 q 466 277 502 265 q 395 302 431 288 q 327 328 360 317 q 263 340 294 340 q 223 335 242 340 q 188 323 204 330 q 160 307 172 315 q 142 290 148 298 l 122 365 q 185 418 146 401 q 271 435 225 435 q 344 423 308 435 q 415 398 380 412 q 482 373 449 384 q 546 361 515 361 z "},"<":{"ha":806,"x_min":113,"x_max":649,"o":"m 313 489 q 283 476 299 482 q 249 467 267 471 q 283 458 267 463 q 313 445 299 453 l 624 288 q 644 272 638 281 q 649 251 649 263 l 649 163 l 113 442 l 113 493 l 649 772 l 649 683 q 644 663 649 672 q 624 647 638 654 l 313 489 z "},">":{"ha":806,"x_min":156,"x_max":693,"o":"m 693 493 l 693 442 l 156 163 l 156 251 q 162 272 156 263 q 181 288 167 281 l 493 445 q 523 458 507 453 q 556 467 538 463 q 493 489 520 475 l 181 647 q 162 663 167 654 q 156 683 156 672 l 156 772 l 693 493 z "},"±":{"ha":806,"x_min":70,"x_max":735,"o":"m 70 149 l 735 149 l 735 56 l 70 56 l 70 149 m 735 574 l 735 479 l 453 479 l 453 224 l 351 224 l 351 479 l 70 479 l 70 574 l 351 574 l 351 835 l 453 835 l 453 574 l 735 574 z "},"≤":{"ha":806,"x_min":128,"x_max":666,"o":"m 128 149 l 666 149 l 666 56 l 128 56 l 128 149 m 329 544 q 297 533 313 538 q 261 524 280 528 q 297 515 280 520 q 329 503 314 510 l 635 358 q 660 340 653 350 q 666 319 666 331 l 666 235 l 128 498 l 128 549 l 666 811 l 666 726 q 660 706 666 715 q 635 688 653 696 l 329 544 z "},"≥":{"ha":806,"x_min":140,"x_max":677,"o":"m 140 149 l 677 149 l 677 56 l 140 56 l 140 149 m 677 549 l 677 498 l 140 235 l 140 319 q 146 340 140 331 q 170 358 152 350 l 476 503 q 509 515 492 510 q 544 524 526 520 q 509 533 526 528 q 476 544 492 538 l 170 688 q 146 706 152 696 q 140 726 140 715 l 140 811 l 677 549 z "},"¬":{"ha":806,"x_min":103,"x_max":700,"o":"m 700 219 l 595 219 l 595 419 l 103 419 l 103 513 l 700 513 l 700 219 z "},"℮":{"ha":1146,"x_min":74,"x_max":1084,"o":"m 920 605 q 897 732 920 674 q 831 834 874 791 q 726 901 788 877 q 590 926 665 926 q 453 900 515 926 q 347 830 392 875 q 277 725 302 785 q 252 592 252 664 l 252 583 l 920 583 l 920 605 m 252 417 q 277 289 252 351 q 351 178 303 226 q 468 101 399 131 q 624 72 537 72 q 817 114 733 72 q 964 240 901 155 l 1031 192 q 955 106 998 144 q 859 42 913 68 q 740 1 806 15 q 597 -12 675 -12 q 380 27 477 -12 q 215 134 283 66 q 110 295 147 202 q 74 494 74 388 q 111 695 74 601 q 216 857 149 788 q 378 965 284 926 q 584 1004 472 1004 q 731 986 663 1004 q 854 935 799 968 q 951 856 909 902 q 1023 755 994 810 q 1067 636 1051 699 q 1084 506 1083 573 l 252 506 l 252 417 z "},"ℓ":{"ha":747,"x_min":44,"x_max":721,"o":"m 540 912 q 457 879 499 912 q 380 790 416 847 q 317 658 344 734 q 278 494 290 582 q 415 559 353 524 q 521 636 476 595 q 591 723 566 677 q 615 816 615 768 q 595 887 615 863 q 540 912 575 912 m 44 428 q 102 440 74 433 q 157 454 130 447 q 184 597 165 528 q 230 728 203 667 q 293 841 258 790 q 370 929 328 892 q 459 986 412 966 q 558 1007 506 1007 q 630 992 599 1007 q 681 952 661 977 q 711 893 701 927 q 721 822 721 860 q 689 692 721 753 q 597 578 656 631 q 455 481 538 525 q 269 401 372 436 q 269 383 269 392 q 269 364 269 374 q 275 234 269 286 q 295 151 282 182 q 326 106 308 119 q 370 93 345 93 q 420 105 395 93 q 467 139 444 117 q 509 191 490 160 q 545 261 529 222 l 647 236 q 600 140 630 185 q 532 61 571 95 q 445 8 493 28 q 345 -11 398 -11 q 264 7 300 -11 q 203 68 228 26 q 164 178 178 110 q 151 344 151 246 l 151 366 q 106 355 128 360 q 60 344 83 349 l 44 428 z "},"∞":{"ha":1024,"x_min":76,"x_max":947,"o":"m 727 278 q 774 286 752 278 q 812 311 796 294 q 838 352 828 327 q 848 410 848 377 q 838 469 848 444 q 812 510 828 494 q 774 535 796 526 q 727 543 752 543 q 681 533 702 543 q 640 504 659 522 q 603 461 621 485 q 568 410 585 438 q 603 359 585 383 q 640 317 621 335 q 681 288 659 299 q 727 278 702 278 m 297 278 q 343 288 322 278 q 384 317 365 299 q 420 359 403 335 q 456 410 438 383 q 420 461 438 438 q 384 504 403 485 q 343 533 365 522 q 297 543 322 543 q 250 535 272 543 q 211 510 228 526 q 185 469 194 494 q 175 410 175 444 q 185 352 175 377 q 211 311 194 327 q 250 286 228 294 q 297 278 272 278 m 732 644 q 814 627 775 644 q 883 580 853 610 q 930 506 913 549 q 947 410 947 463 q 930 315 947 358 q 883 241 913 272 q 814 193 853 210 q 732 176 775 176 q 661 188 693 176 q 603 220 630 200 q 555 267 577 241 q 512 323 532 294 q 469 267 492 294 q 420 220 447 241 q 362 188 394 200 q 292 176 330 176 q 210 193 249 176 q 141 241 171 210 q 94 315 111 272 q 76 410 76 358 q 94 506 76 463 q 141 580 111 549 q 210 627 171 610 q 292 644 249 644 q 362 633 330 644 q 420 600 394 621 q 469 553 447 580 q 512 498 492 527 q 555 553 532 527 q 603 600 577 580 q 661 633 630 621 q 732 644 693 644 z "},"∂":{"ha":801,"x_min":59,"x_max":742,"o":"m 347 88 q 434 107 393 88 q 508 165 475 126 q 566 263 542 203 q 605 401 591 322 q 585 461 598 432 q 551 512 572 490 q 500 548 530 534 q 428 561 469 561 q 325 540 370 561 q 249 480 280 518 q 202 391 218 442 q 187 278 187 339 q 198 198 187 233 q 231 138 210 163 q 281 101 251 114 q 347 88 310 88 m 237 928 q 290 962 264 947 q 342 986 315 976 q 399 1001 369 996 q 465 1006 429 1006 q 578 980 527 1006 q 666 906 630 954 q 722 787 702 857 q 742 628 742 717 q 716 370 742 488 q 639 169 690 253 q 511 38 588 85 q 332 -9 435 -9 q 222 11 272 -9 q 135 68 172 31 q 79 158 99 105 q 59 276 59 210 q 85 426 59 356 q 159 548 112 497 q 272 629 207 599 q 415 659 338 659 q 541 628 488 659 q 628 539 594 598 q 630 587 629 564 q 630 628 630 610 q 582 836 630 765 q 448 906 533 906 q 393 899 418 906 q 349 884 369 892 q 315 868 330 875 q 292 861 301 861 q 278 865 284 861 q 264 882 272 869 l 237 928 z "},"∫":{"ha":702,"x_min":4,"x_max":699,"o":"m 338 863 q 369 985 346 934 q 426 1068 392 1035 q 505 1116 460 1101 q 602 1132 549 1132 q 652 1128 626 1132 q 699 1112 678 1124 l 692 1060 q 686 1047 690 1051 q 676 1040 683 1042 q 658 1038 669 1038 q 630 1037 647 1037 q 559 1027 589 1037 q 507 998 528 1018 q 474 945 486 978 q 456 867 461 913 l 365 26 q 334 -95 357 -44 q 277 -179 311 -146 q 198 -227 242 -212 q 101 -243 153 -243 q 51 -239 76 -243 q 4 -223 25 -234 l 11 -170 q 16 -157 13 -162 q 26 -151 19 -153 q 44 -148 33 -149 q 73 -148 55 -148 q 143 -139 113 -148 q 195 -109 174 -129 q 229 -56 216 -88 q 247 22 242 -24 l 338 863 z "},"√":{"ha":869,"x_min":31,"x_max":859,"o":"m 859 1189 l 475 0 l 371 0 l 197 460 l 78 460 q 45 472 59 460 q 31 512 31 483 l 31 551 l 263 551 q 289 544 279 551 q 302 526 299 536 l 406 240 q 418 194 413 217 q 426 148 422 172 q 433 186 429 167 q 442 225 437 205 l 743 1163 q 756 1182 747 1174 q 779 1189 766 1189 l 859 1189 z "},"∏":{"ha":960,"x_min":49,"x_max":912,"o":"m 912 889 l 782 889 l 782 -238 l 654 -238 l 654 889 l 306 889 l 306 -238 l 178 -238 l 178 889 l 49 889 l 49 995 l 912 995 l 912 889 z "},"∑":{"ha":949,"x_min":51,"x_max":884,"o":"m 884 889 l 243 889 l 641 397 l 641 360 l 243 -132 l 884 -132 l 884 -238 l 51 -238 l 51 -193 q 54 -173 51 -183 q 65 -155 57 -163 l 502 380 l 65 911 q 54 930 57 920 q 51 950 51 940 l 51 995 l 884 995 l 884 889 z "},"◊":{"ha":806,"x_min":74,"x_max":732,"o":"m 613 487 l 431 860 q 414 900 421 880 q 403 942 408 921 q 392 901 398 922 q 376 860 385 881 l 195 487 l 373 120 q 403 30 393 76 q 416 75 408 52 q 433 119 423 97 l 613 487 m 732 487 l 446 -83 l 360 -83 l 74 487 l 360 1057 l 446 1057 l 732 487 z "},"←":{"ha":1389,"x_min":75,"x_max":1307,"o":"m 75 446 l 471 842 l 513 799 q 524 770 527 785 q 509 744 521 756 l 310 546 q 250 492 277 513 q 323 499 285 497 q 403 502 362 502 l 1307 502 l 1307 389 l 403 389 q 323 392 362 389 q 250 399 285 394 q 310 346 276 379 l 510 146 q 526 119 523 133 q 515 92 528 106 l 472 47 l 75 446 z "},"→":{"ha":1389,"x_min":82,"x_max":1314,"o":"m 1314 445 l 918 49 l 876 93 q 865 121 862 107 q 880 147 868 135 l 1079 345 q 1110 375 1096 362 q 1139 399 1125 388 q 1066 392 1104 394 q 986 389 1027 389 l 82 389 l 82 502 l 986 502 q 1066 499 1027 502 q 1140 492 1105 497 q 1111 516 1126 503 q 1079 546 1096 529 l 878 745 q 863 772 866 758 q 874 799 860 785 l 917 844 l 1314 445 z "},"↑":{"ha":1042,"x_min":124,"x_max":917,"o":"m 917 679 l 874 636 q 846 625 860 622 q 819 641 832 628 l 621 839 q 567 899 588 872 q 574 825 572 864 q 577 746 577 787 l 577 -157 l 465 -157 l 465 746 q 467 825 465 787 q 475 899 470 864 q 451 870 464 885 q 422 839 438 856 l 222 640 q 195 624 209 627 q 167 635 181 621 l 124 678 l 522 1075 l 917 679 z "},"↓":{"ha":1042,"x_min":124,"x_max":919,"o":"m 919 160 l 520 -237 l 124 159 l 168 201 q 196 213 182 215 q 222 197 210 210 l 421 -1 q 474 -62 454 -35 q 467 12 470 -26 q 465 92 465 51 l 465 995 l 577 995 l 577 92 q 574 12 577 51 q 567 -62 572 -26 q 591 -33 577 -48 q 620 -1 604 -18 l 821 199 q 847 215 833 212 q 875 203 861 217 l 919 160 z "},"↗":{"ha":1042,"x_min":33,"x_max":944,"o":"m 944 903 l 944 342 l 883 343 q 856 355 863 343 q 848 385 848 367 l 848 665 q 852 745 848 710 q 806 688 831 717 q 751 630 781 659 l 113 -8 l 33 72 l 672 710 q 730 764 701 739 q 787 811 759 790 q 750 808 770 809 q 707 806 731 806 l 424 806 q 394 814 406 806 q 382 842 383 822 l 381 903 l 944 903 z "},"↖":{"ha":1042,"x_min":98,"x_max":1008,"o":"m 1008 72 l 929 -8 l 290 630 q 236 688 261 659 q 190 745 210 717 q 194 665 194 710 l 194 385 q 186 355 194 367 q 159 343 178 343 l 98 342 l 98 903 l 660 903 l 660 842 q 648 814 659 822 q 618 806 636 806 l 335 806 q 291 808 311 806 q 255 811 272 809 q 311 764 283 790 q 369 710 340 739 l 1008 72 z "},"↘":{"ha":1042,"x_min":33,"x_max":944,"o":"m 944 561 l 944 1 l 381 0 l 382 61 q 394 89 383 81 q 424 97 406 97 l 707 97 q 751 95 731 97 q 788 92 771 94 q 731 139 760 113 q 672 193 701 164 l 33 832 l 113 911 l 751 273 q 806 215 781 244 q 852 158 831 186 q 848 238 848 192 l 848 518 q 856 548 848 536 q 883 560 863 560 l 944 561 z "},"↙":{"ha":1042,"x_min":98,"x_max":1008,"o":"m 98 0 l 98 560 l 159 560 q 186 548 178 559 q 194 518 194 536 l 194 238 q 190 158 194 192 q 236 215 210 185 q 290 273 261 244 l 929 911 l 1008 831 l 369 193 q 311 138 340 164 q 254 91 282 113 q 291 94 272 93 q 335 96 311 96 l 618 96 q 648 89 636 97 q 660 61 659 81 l 660 -1 l 98 0 z "},"↔":{"ha":1389,"x_min":75,"x_max":1314,"o":"m 1314 445 l 918 49 l 876 93 q 865 121 862 107 q 880 147 868 135 l 1079 345 q 1110 375 1096 362 q 1139 399 1125 388 q 1066 392 1104 394 q 986 389 1027 389 l 263 389 q 310 346 284 371 l 510 146 q 526 119 523 133 q 515 92 528 106 l 472 47 l 75 446 l 471 842 l 513 799 q 524 770 527 785 q 509 744 521 756 l 310 546 q 285 522 297 533 q 263 502 274 512 l 986 502 q 1066 499 1027 502 q 1140 492 1105 497 q 1111 516 1126 503 q 1079 546 1096 529 l 878 745 q 863 772 866 758 q 874 799 860 785 l 917 844 l 1314 445 z "},"↕":{"ha":1042,"x_min":123,"x_max":919,"o":"m 521 -237 l 125 159 l 169 201 q 197 213 183 215 q 223 197 210 210 l 422 -1 q 444 -25 434 -14 q 465 -48 455 -37 l 465 746 q 467 825 465 787 q 474 899 470 864 q 451 870 464 885 q 422 839 438 856 l 221 640 q 194 624 208 626 q 167 635 181 621 l 123 677 l 522 1075 l 917 679 l 874 636 q 846 625 860 622 q 819 641 832 628 l 621 839 q 567 899 588 872 q 574 825 572 864 q 577 746 577 787 l 577 -50 q 621 -1 594 -28 l 822 199 q 848 215 833 212 q 876 203 862 217 l 919 160 l 521 -237 z "},"Ơ":{"ha":1178,"x_min":65,"x_max":1149,"o":"m 556 106 q 701 133 636 106 q 813 210 767 160 q 883 333 858 260 q 908 497 908 406 q 883 662 908 589 q 813 785 858 735 q 701 863 767 835 q 556 890 636 890 q 410 863 476 890 q 299 785 345 835 q 228 662 253 735 q 203 497 203 589 q 228 333 203 406 q 299 210 253 260 q 410 133 345 160 q 556 106 476 106 m 1138 1092 q 1146 1057 1143 1077 q 1149 1017 1149 1038 q 1100 874 1149 931 q 963 797 1052 817 q 1025 659 1003 735 q 1047 497 1047 584 q 1011 292 1047 385 q 911 131 976 199 q 756 27 847 64 q 556 -10 665 -10 q 356 27 446 -10 q 201 131 265 64 q 101 292 136 199 q 65 497 65 385 q 101 702 65 609 q 201 864 136 796 q 356 969 265 931 q 556 1006 446 1006 q 761 967 669 1006 q 918 856 853 927 q 998 886 969 863 q 1026 943 1026 910 q 1021 968 1026 958 q 1010 987 1016 978 q 999 1006 1004 996 q 994 1033 994 1017 q 1068 1092 994 1092 l 1138 1092 z "},"Ư":{"ha":1167,"x_min":115,"x_max":1174,"o":"m 1163 1092 q 1171 1057 1169 1077 q 1174 1017 1174 1038 q 1156 923 1174 965 q 1103 851 1138 881 q 1019 805 1069 822 q 907 788 969 789 l 907 390 q 880 231 907 304 q 801 103 852 157 q 676 19 750 49 q 511 -12 603 -12 q 346 19 419 -12 q 221 103 272 49 q 142 231 169 157 q 115 390 115 304 l 115 995 l 249 995 l 249 391 q 266 276 249 328 q 318 187 284 224 q 400 128 351 149 q 511 107 449 107 q 622 128 573 107 q 704 186 670 149 q 755 276 738 224 q 773 390 773 328 l 773 995 l 907 995 l 907 853 q 967 860 940 853 q 1013 879 994 867 q 1041 907 1031 891 q 1051 943 1051 924 q 1047 968 1051 958 q 1035 987 1042 978 q 1024 1006 1029 996 q 1019 1033 1019 1017 q 1094 1092 1019 1092 l 1163 1092 z "},"ơ":{"ha":850,"x_min":58,"x_max":864,"o":"m 394 87 q 550 157 499 87 q 601 351 601 226 q 550 547 601 477 q 394 617 499 617 q 302 599 342 617 q 237 547 263 581 q 198 464 211 513 q 185 351 185 414 q 237 157 185 226 q 394 87 289 87 m 854 810 q 861 778 859 797 q 864 740 864 760 q 819 608 864 661 q 691 538 775 554 q 729 352 729 458 q 706 202 729 269 q 639 88 683 135 q 533 16 595 41 q 394 -10 472 -10 q 255 16 317 -10 q 149 88 192 41 q 82 202 105 135 q 58 352 58 269 q 82 502 58 435 q 149 616 105 569 q 255 689 192 663 q 394 715 317 715 q 549 682 482 715 q 660 591 616 650 q 729 622 704 599 q 754 678 754 645 q 749 698 754 690 q 738 714 744 706 q 727 731 732 722 q 722 756 722 741 q 739 797 722 783 q 790 810 756 810 l 854 810 z "},"ư":{"ha":880,"x_min":91,"x_max":899,"o":"m 890 810 q 896 778 894 797 q 899 740 899 760 q 884 658 899 695 q 841 594 869 621 q 771 551 813 567 q 676 532 730 535 l 676 0 l 603 0 q 569 26 576 0 l 560 101 q 457 20 514 51 q 326 -11 400 -11 q 225 8 269 -11 q 151 62 181 27 q 106 146 121 97 q 91 255 91 195 l 91 703 l 215 703 l 215 255 q 251 131 215 175 q 363 88 288 88 q 465 114 417 88 q 553 185 513 140 l 553 703 l 676 703 l 676 588 q 759 618 730 593 q 789 678 789 642 q 784 698 789 690 q 773 714 779 706 q 762 731 767 722 q 757 756 757 741 q 774 797 757 783 q 825 810 790 810 l 890 810 z "},"₫":{"ha":842,"x_min":60,"x_max":779,"o":"m 68 -92 l 753 -92 l 753 -170 l 68 -170 l 68 -92 m 556 519 q 482 584 522 565 q 393 603 442 603 q 241 535 294 603 q 188 334 188 467 q 235 150 188 210 q 369 90 283 90 q 474 118 429 90 q 556 197 518 146 l 556 519 m 779 872 l 779 794 l 681 794 l 681 0 l 606 0 q 574 26 580 0 l 563 113 q 459 23 515 56 q 329 -10 403 -10 q 217 14 267 -10 q 132 82 167 38 q 78 189 97 126 q 60 331 60 252 q 81 480 60 413 q 142 597 102 548 q 238 672 181 645 q 365 699 294 699 q 475 677 430 699 q 556 615 520 655 l 556 794 l 388 794 l 388 872 l 556 872 l 556 1023 l 681 1023 l 681 872 l 779 872 z "},"○":{"ha":921,"x_min":79,"x_max":840,"o":"m 79 452 q 109 600 79 531 q 191 721 139 669 q 312 803 242 773 q 460 833 381 833 q 608 803 538 833 q 729 721 677 773 q 810 600 781 669 q 840 452 840 531 q 810 304 840 374 q 729 183 781 235 q 608 101 677 131 q 460 72 538 72 q 312 101 381 72 q 191 183 242 131 q 109 304 139 235 q 79 452 79 374 m 190 452 q 211 347 190 396 q 268 260 232 297 q 354 202 305 224 q 460 181 403 181 q 566 202 516 181 q 652 260 615 224 q 710 346 689 297 q 731 451 731 395 q 710 557 731 508 q 652 644 689 607 q 566 702 615 681 q 460 723 516 723 q 354 702 403 723 q 268 644 305 681 q 211 558 232 607 q 190 452 190 508 z "},"◌":{"ha":921,"x_min":86,"x_max":836,"o":"m 421 786 q 433 815 421 803 q 460 826 444 826 q 489 815 477 826 q 501 786 501 803 q 489 758 501 769 q 460 746 477 746 q 433 758 444 746 q 421 786 421 769 m 548 761 q 560 789 548 777 q 588 801 572 801 q 616 789 604 801 q 628 761 628 777 q 616 732 628 744 q 588 720 604 720 q 560 732 572 720 q 548 761 548 744 m 656 690 q 668 717 656 706 q 697 729 680 729 q 725 717 713 729 q 737 690 737 706 q 725 661 737 673 q 697 649 713 649 q 668 661 680 649 q 656 690 656 673 m 727 581 q 739 610 727 598 q 767 622 751 622 q 795 610 783 622 q 807 581 807 598 q 795 553 807 565 q 767 541 783 541 q 739 553 751 541 q 727 581 727 565 m 756 452 q 768 480 756 468 q 796 492 780 492 q 824 480 813 492 q 836 452 836 468 q 824 423 836 435 q 796 411 813 411 q 768 423 780 411 q 756 452 756 435 m 291 761 q 303 789 291 777 q 331 801 315 801 q 360 789 348 801 q 372 761 372 777 q 360 732 372 744 q 331 720 348 720 q 303 732 315 720 q 291 761 291 744 m 183 690 q 195 717 183 706 q 223 729 207 729 q 252 717 240 729 q 264 690 264 706 q 252 661 264 673 q 223 649 240 649 q 195 661 207 649 q 183 690 183 673 m 112 581 q 124 610 112 598 q 152 622 135 622 q 180 610 168 622 q 192 581 192 598 q 180 553 192 565 q 152 541 168 541 q 124 553 135 541 q 112 581 112 565 m 86 452 q 98 480 86 468 q 126 492 110 492 q 155 480 143 492 q 167 452 167 468 q 155 423 167 435 q 126 411 143 411 q 98 423 110 411 q 86 452 86 435 m 727 325 q 739 353 727 341 q 767 365 751 365 q 795 353 783 365 q 807 325 807 341 q 795 297 807 308 q 767 285 783 285 q 739 297 751 285 q 727 325 727 308 m 112 325 q 124 353 112 341 q 152 365 135 365 q 180 353 168 365 q 192 325 192 341 q 180 297 192 308 q 152 285 168 285 q 124 297 135 285 q 112 325 112 308 m 656 216 q 668 244 656 233 q 697 256 680 256 q 725 244 713 256 q 737 216 737 233 q 725 188 737 200 q 697 176 713 176 q 668 188 680 176 q 656 216 656 200 m 183 216 q 195 244 183 233 q 223 256 207 256 q 252 244 240 256 q 264 216 264 233 q 252 188 264 200 q 223 176 240 176 q 195 188 207 176 q 183 216 183 200 m 548 146 q 560 174 548 163 q 588 186 572 186 q 616 174 604 186 q 628 146 628 163 q 616 117 628 129 q 588 106 604 106 q 560 117 572 106 q 548 146 548 129 m 291 146 q 303 174 291 163 q 331 186 315 186 q 360 174 348 186 q 372 146 372 163 q 360 117 372 129 q 331 106 348 106 q 303 117 315 106 q 291 146 291 129 m 421 117 q 433 145 421 133 q 460 157 444 157 q 489 145 477 157 q 501 117 501 133 q 489 88 501 100 q 460 76 477 76 q 433 88 444 76 q 421 117 421 100 z "},"͏":{"ha":0,"x_min":0,"x_max":0,"o":""},"᷂":{"ha":0,"x_min":-92,"x_max":99,"o":"m -92 -60 q -83 -51 -92 -56 q -62 -42 -74 -47 q -37 -34 -50 -37 q -15 -31 -24 -31 q -1 -34 -7 -31 q 11 -40 5 -36 q 26 -49 18 -44 q 48 -58 35 -54 q 85 -78 71 -66 q 99 -108 99 -90 q 85 -139 99 -127 q 54 -158 71 -151 q 23 -170 37 -165 q 9 -180 9 -175 q 20 -188 9 -185 q 44 -198 31 -192 q 69 -215 58 -204 q 80 -242 80 -225 q 69 -270 80 -260 q 46 -286 58 -279 q 23 -298 33 -292 q 12 -312 12 -303 q 19 -326 12 -320 q 38 -336 27 -333 q 40 -340 40 -336 q 39 -343 40 -341 q 36 -345 38 -345 q -6 -329 11 -341 q -22 -299 -22 -317 q -13 -275 -22 -284 q 8 -261 -3 -267 q 29 -252 19 -256 q 39 -244 39 -248 q 26 -235 39 -239 q -4 -224 13 -231 q -33 -208 -20 -218 q -47 -179 -47 -197 q -33 -150 -47 -161 q -3 -131 -19 -138 q 26 -118 13 -123 q 40 -107 40 -112 q 33 -98 40 -101 q 17 -94 27 -94 q 6 -96 10 -94 q -1 -100 2 -98 q -8 -103 -4 -101 q -19 -103 -12 -104 q -42 -98 -30 -103 q -66 -87 -55 -94 q -84 -74 -77 -81 q -92 -60 -92 -67 z "},"Ɓ":{"ha":1106,"x_min":32,"x_max":1037,"o":"m 685 107 q 784 120 742 107 q 852 157 825 133 q 891 214 878 181 q 903 287 903 247 q 849 409 903 364 q 684 453 794 453 l 469 453 l 469 107 l 685 107 m 469 889 l 469 549 l 647 549 q 746 562 704 549 q 815 597 788 574 q 856 650 842 619 q 869 719 869 682 q 816 848 869 807 q 652 889 763 889 l 469 889 m 652 995 q 810 977 744 995 q 919 926 876 959 q 982 844 962 892 q 1003 735 1003 796 q 991 665 1003 699 q 957 602 980 631 q 898 550 933 573 q 817 512 863 526 q 981 434 926 491 q 1037 283 1037 376 q 1013 168 1037 220 q 945 78 990 116 q 835 20 900 41 q 687 0 770 0 l 335 0 l 335 895 l 315 895 q 186 860 226 895 q 146 763 146 826 q 149 727 146 744 q 156 699 153 710 q 158 686 158 692 q 156 673 158 679 q 149 663 154 667 q 133 656 143 658 l 57 639 q 39 700 45 671 q 32 764 32 728 q 51 859 32 817 q 106 932 69 902 q 194 979 142 963 q 315 995 247 995 l 652 995 z "},"Ƅ":{"ha":936,"x_min":39,"x_max":899,"o":"m 538 107 q 643 126 600 107 q 714 175 687 144 q 753 243 741 205 q 766 322 766 282 q 753 396 766 360 q 711 461 740 433 q 640 506 683 489 q 537 523 597 523 l 321 523 l 321 107 l 538 107 m 531 630 q 692 605 624 630 q 807 537 761 580 q 876 438 853 494 q 899 318 899 381 q 876 192 899 250 q 807 91 853 134 q 695 24 762 49 q 540 0 628 0 l 187 0 l 187 656 l 39 751 l 222 995 l 321 995 l 321 630 l 531 630 z "},"Ɔ":{"ha":935,"x_min":36,"x_max":869,"o":"m 109 206 q 133 195 121 206 q 184 155 158 172 q 241 126 210 138 q 306 110 271 115 q 387 105 342 105 q 523 131 460 105 q 632 208 585 158 q 705 331 678 258 q 731 497 731 404 q 706 662 731 589 q 634 785 680 735 q 524 863 588 836 q 383 890 460 890 q 275 876 319 890 q 202 846 231 863 q 155 816 173 829 q 124 802 137 802 q 107 807 113 802 q 96 818 100 811 l 51 880 q 195 972 113 938 q 382 1006 276 1006 q 580 969 490 1006 q 734 865 669 932 q 833 703 798 797 q 869 497 869 610 q 835 291 869 385 q 739 130 801 197 q 590 26 677 63 q 395 -11 502 -11 q 184 28 272 -11 q 36 139 97 68 l 90 197 q 109 206 98 206 z "},"Ƈ":{"ha":933,"x_min":67,"x_max":1107,"o":"m 899 139 q 751 28 838 68 q 541 -11 664 -11 q 346 26 433 -11 q 197 130 258 63 q 101 291 135 197 q 67 497 67 385 q 102 703 67 610 q 202 865 138 797 q 356 969 266 932 q 553 1006 445 1006 q 672 993 617 1006 q 774 957 727 981 q 774 970 774 964 q 774 985 774 977 q 784 1072 774 1031 q 819 1144 795 1113 q 881 1193 843 1175 q 975 1212 919 1212 q 1045 1205 1015 1212 q 1107 1187 1075 1199 l 1090 1117 q 1083 1102 1088 1108 q 1073 1094 1078 1097 q 1060 1093 1067 1092 q 1047 1094 1053 1093 q 1018 1101 1033 1099 q 988 1103 1003 1103 q 909 1065 934 1103 q 884 955 884 1026 l 884 880 l 840 818 q 829 807 835 811 q 812 802 823 802 q 781 816 799 802 q 734 846 763 829 q 660 876 704 863 q 553 890 617 890 q 412 863 476 890 q 302 785 348 836 q 230 662 256 735 q 204 497 204 589 q 231 331 204 404 q 304 208 258 258 q 414 131 351 158 q 549 105 476 105 q 630 110 594 105 q 695 126 665 115 q 751 155 725 138 q 803 195 777 172 q 826 206 815 206 q 847 197 838 206 l 899 139 z "},"Ɗ":{"ha":1264,"x_min":32,"x_max":1197,"o":"m 707 109 q 852 135 788 109 q 963 211 917 162 q 1034 333 1009 261 q 1059 497 1059 406 q 1034 661 1059 589 q 963 783 1009 733 q 852 860 917 833 q 707 886 788 886 l 470 886 l 470 109 l 707 109 m 707 995 q 907 959 817 995 q 1062 858 997 924 q 1162 701 1126 792 q 1197 497 1197 609 q 1162 294 1197 385 q 1062 137 1126 202 q 907 36 997 72 q 707 0 817 0 l 335 0 l 335 895 l 315 895 q 186 860 226 895 q 146 763 146 826 q 149 727 146 744 q 156 699 153 710 q 158 686 158 692 q 156 673 158 679 q 149 663 154 667 q 133 656 143 658 l 57 639 q 39 700 45 671 q 32 764 32 728 q 51 859 32 817 q 106 932 69 902 q 194 979 142 963 q 315 995 247 995 l 707 995 z "},"Ƌ":{"ha":861,"x_min":57,"x_max":734,"o":"m 600 107 l 600 460 l 406 460 q 308 448 349 460 q 241 414 267 437 q 202 359 215 392 q 190 285 190 327 q 202 213 190 246 q 241 157 215 180 q 308 120 267 133 q 407 107 349 107 l 600 107 m 734 995 l 734 0 l 407 0 q 258 21 324 0 q 148 81 193 42 q 80 175 103 119 q 57 299 57 230 q 77 406 57 357 q 141 491 98 456 q 249 547 183 527 q 406 567 315 567 l 600 567 l 600 889 l 91 889 l 91 995 l 734 995 z "},"Ǝ":{"ha":799,"x_min":58,"x_max":672,"o":"m 672 0 l 59 0 l 58 110 l 537 110 l 537 449 l 150 449 l 150 555 l 537 555 l 537 885 l 59 885 l 59 995 l 672 995 l 672 0 z "},"Ə":{"ha":1003,"x_min":61,"x_max":936,"o":"m 191 405 q 211 281 191 337 q 269 186 232 226 q 358 125 306 147 q 474 103 410 103 q 599 124 544 103 q 694 185 654 146 q 760 280 735 224 q 793 405 785 336 l 191 405 m 77 856 q 158 926 114 897 q 252 974 203 956 q 355 1001 301 992 q 465 1009 409 1009 q 653 974 567 1009 q 802 872 740 940 q 901 706 865 805 q 936 480 936 608 q 905 287 936 376 q 813 131 873 197 q 668 28 753 65 q 474 -10 582 -10 q 309 20 385 -10 q 179 106 234 49 q 92 244 124 162 q 61 432 61 326 q 63 465 61 452 q 70 485 65 478 q 83 496 75 493 q 103 499 91 499 l 798 499 q 770 669 796 596 q 700 791 745 742 q 592 865 656 840 q 450 890 529 890 q 368 882 404 890 q 302 864 331 875 q 250 840 273 853 q 209 816 227 827 q 176 798 190 805 q 150 790 162 790 q 117 806 128 790 l 77 856 z "},"Ɛ":{"ha":824,"x_min":70,"x_max":786,"o":"m 786 141 q 716 73 756 101 q 631 26 676 44 q 533 -1 585 8 q 427 -10 482 -10 q 292 9 356 -10 q 178 67 227 29 q 99 161 128 105 q 70 289 70 217 q 84 370 70 331 q 124 442 98 409 q 186 500 149 474 q 269 542 223 526 q 186 577 220 555 q 132 625 153 599 q 102 682 111 651 q 92 744 92 713 q 117 844 92 797 q 187 928 141 892 q 300 985 233 964 q 452 1006 367 1006 q 635 976 558 1006 q 765 897 711 946 l 735 844 q 717 825 726 829 q 701 822 708 822 q 672 833 689 822 q 626 858 654 844 q 554 883 597 872 q 449 894 511 894 q 353 882 394 894 q 286 847 313 869 q 247 797 260 826 q 234 737 234 769 q 251 671 234 699 q 297 624 267 643 q 369 595 327 605 q 462 585 411 585 l 625 585 l 625 488 l 451 488 q 343 472 389 488 q 268 429 298 456 q 223 369 238 403 q 208 301 208 335 q 225 223 208 259 q 274 160 242 187 q 354 119 307 134 q 461 104 401 104 q 556 116 516 104 q 623 143 595 127 q 667 174 650 158 q 694 197 684 189 q 705 205 699 201 q 717 208 710 208 q 737 199 728 208 l 786 141 z "},"Ƒ":{"ha":785,"x_min":-96,"x_max":740,"o":"m 262 885 l 262 538 l 671 538 l 671 428 l 262 428 l 262 3 q 249 -101 262 -53 q 208 -182 235 -148 q 139 -235 181 -216 q 42 -253 98 -253 q 1 -252 19 -253 q -33 -247 -17 -250 q -65 -239 -49 -244 q -96 -228 -80 -235 l -78 -159 q -61 -136 -74 -140 q -35 -136 -49 -133 q -7 -142 -22 -140 q 24 -144 9 -144 q 102 -106 78 -144 q 127 3 127 -68 l 127 995 l 740 995 l 740 885 l 262 885 z "},"Ɠ":{"ha":1019,"x_min":65,"x_max":1149,"o":"m 926 881 l 888 819 q 865 802 879 806 q 833 808 851 798 q 795 832 817 818 q 743 859 774 846 q 670 881 712 872 q 570 890 628 890 q 418 862 486 890 q 302 784 350 835 q 228 660 254 733 q 203 497 203 588 q 230 329 203 403 q 305 203 256 255 q 420 125 353 152 q 567 98 487 98 q 641 102 608 98 q 705 114 675 106 q 761 132 735 121 q 814 156 788 142 l 814 376 l 659 376 q 638 383 646 376 q 630 402 630 391 l 630 478 l 935 478 l 935 97 q 858 49 898 69 q 771 16 817 29 q 672 -5 725 2 q 558 -11 619 -11 q 359 26 449 -11 q 203 130 269 63 q 102 291 138 197 q 65 497 65 385 q 101 705 65 611 q 203 866 137 799 q 363 969 269 933 q 574 1006 458 1006 q 707 993 648 1006 q 817 956 767 980 q 816 970 816 963 q 816 985 816 977 q 826 1072 816 1031 q 861 1144 837 1113 q 923 1193 885 1175 q 1017 1212 961 1212 q 1054 1210 1037 1212 q 1087 1205 1071 1208 q 1118 1198 1103 1202 q 1149 1187 1133 1193 l 1132 1117 q 1125 1102 1130 1108 q 1115 1094 1121 1097 q 1102 1093 1109 1092 q 1089 1094 1096 1093 q 1060 1101 1076 1099 q 1030 1103 1044 1103 q 951 1065 976 1103 q 926 955 926 1026 l 926 881 z "},"Ɣ":{"ha":930,"x_min":-22,"x_max":952,"o":"m 634 103 q 623 112 628 107 q 613 124 617 117 l 463 335 q 451 307 458 321 q 435 281 444 293 l 320 119 q 301 103 314 110 l 634 103 m 547 405 l 837 0 l 94 0 l 388 413 l -22 995 l 108 995 q 131 990 124 995 q 145 974 138 985 l 473 494 l 792 974 q 824 994 804 994 l 952 994 l 547 405 z "},"Ɩ":{"ha":444,"x_min":122,"x_max":423,"o":"m 122 995 l 257 995 l 257 211 q 282 123 257 151 q 363 94 308 94 l 423 94 l 423 49 q 415 22 423 33 q 391 4 406 11 q 356 -6 376 -3 q 312 -8 335 -8 q 230 7 265 -8 q 170 51 194 23 q 134 118 147 79 q 122 204 122 157 l 122 995 z "},"Ƙ":{"ha":951,"x_min":127,"x_max":939,"o":"m 261 559 l 312 559 q 356 566 338 559 q 389 594 373 572 l 583 878 q 684 975 626 947 q 821 1004 742 1004 q 890 998 862 1004 q 939 983 917 992 l 926 915 q 920 900 924 906 q 909 892 915 894 q 897 890 903 890 q 884 892 890 890 q 858 897 873 895 q 828 899 843 899 q 757 883 788 899 q 705 835 726 866 l 525 578 q 496 544 512 558 q 463 523 481 531 q 501 503 484 516 q 534 469 518 490 l 922 0 l 805 0 q 782 2 792 0 q 766 7 773 3 q 754 16 759 11 q 744 28 749 22 l 409 420 q 394 436 401 429 q 377 447 387 442 q 356 453 368 451 q 328 456 344 456 l 261 456 l 261 0 l 127 0 l 127 995 l 261 995 l 261 559 z "},"Ɯ":{"ha":1499,"x_min":117,"x_max":1372,"o":"m 1372 995 l 1372 2 l 1303 2 q 1259 38 1267 2 l 1244 165 q 1194 92 1222 125 q 1134 37 1167 60 q 1062 2 1101 14 q 978 -10 1023 -10 q 890 3 930 -10 q 818 40 849 16 q 763 99 786 65 q 724 178 740 134 q 670 93 703 128 q 600 34 638 57 q 518 0 561 11 q 431 -10 474 -10 q 294 14 353 -10 q 196 86 235 39 q 136 203 156 134 q 117 362 117 272 l 117 995 l 252 995 l 252 362 q 267 247 252 297 q 308 163 281 197 q 373 112 335 129 q 458 94 411 94 q 544 111 504 94 q 614 162 584 128 q 660 246 643 196 q 676 362 676 296 l 676 995 l 812 995 l 812 362 q 824 251 812 300 q 860 167 836 201 q 920 113 884 132 q 1006 94 957 94 q 1141 148 1081 94 q 1237 304 1201 201 l 1237 995 l 1372 995 z "},"Ɲ":{"ha":1060,"x_min":-96,"x_max":933,"o":"m 933 995 l 933 0 l 866 0 q 839 6 850 0 q 818 24 828 11 l 242 774 q 244 740 244 757 q 245 709 245 724 l 245 -18 q 233 -122 245 -75 q 197 -203 222 -169 q 132 -256 172 -237 q 37 -274 92 -274 q -34 -268 -3 -274 q -96 -250 -64 -262 l -78 -181 q -61 -158 -74 -161 q -35 -158 -49 -155 q -7 -164 -22 -162 q 24 -166 9 -166 q 102 -128 78 -166 q 127 -18 127 -90 l 127 995 l 197 995 q 212 994 206 995 q 223 991 218 993 q 233 984 228 988 q 243 972 238 979 l 819 223 q 816 258 817 241 q 815 290 815 275 l 815 995 l 933 995 z "},"Ɵ":{"ha":1112,"x_min":65,"x_max":1047,"o":"m 204 456 q 237 308 210 373 q 310 199 265 244 q 418 130 356 153 q 556 106 481 106 q 693 130 631 106 q 801 199 756 153 q 874 308 847 244 q 907 456 901 373 l 204 456 m 906 558 q 869 697 897 635 q 796 802 842 759 q 690 867 751 844 q 556 890 629 890 q 422 867 483 890 q 315 802 360 844 q 242 697 270 759 q 206 558 214 635 l 906 558 m 556 1006 q 756 969 665 1006 q 911 864 847 931 q 1011 702 976 796 q 1047 497 1047 609 q 1011 292 1047 385 q 911 131 976 199 q 756 27 847 64 q 556 -10 665 -10 q 356 27 446 -10 q 201 131 265 64 q 101 292 136 199 q 65 497 65 385 q 101 702 65 609 q 201 864 136 796 q 356 969 265 931 q 556 1006 446 1006 z "},"Ƣ":{"ha":1388,"x_min":67,"x_max":1267,"o":"m 522 103 q 651 130 593 103 q 751 208 710 157 q 816 332 793 259 q 838 497 838 406 q 816 662 838 589 q 751 787 793 735 q 651 866 710 838 q 522 893 593 893 q 392 866 450 893 q 292 787 333 838 q 227 662 250 735 q 204 497 204 589 q 227 332 204 406 q 292 208 250 259 q 392 130 333 157 q 522 103 450 103 m 1132 758 q 1125 812 1132 787 q 1105 855 1119 837 q 1070 884 1091 874 q 1020 894 1049 894 q 947 876 982 894 q 880 829 911 858 q 951 680 926 764 q 976 497 976 596 q 944 292 976 385 q 853 132 912 199 q 710 27 794 65 q 522 -10 626 -10 q 333 27 417 -10 q 190 132 249 65 q 99 292 131 199 q 67 497 67 385 q 99 702 67 609 q 190 864 131 796 q 333 969 249 931 q 522 1006 417 1006 q 688 977 613 1006 q 820 897 763 949 q 923 975 867 945 q 1048 1005 979 1005 q 1143 988 1102 1005 q 1212 938 1185 970 q 1253 860 1240 906 q 1267 758 1267 815 l 1267 -242 l 1132 -242 l 1132 758 z "},"Ƥ":{"ha":1042,"x_min":32,"x_max":1000,"o":"m 628 479 q 730 494 686 479 q 805 537 774 510 q 850 603 835 565 q 865 687 865 641 q 807 835 865 782 q 628 889 748 889 l 469 889 l 469 479 l 628 479 m 628 995 q 793 973 723 995 q 909 911 863 951 q 977 814 955 871 q 1000 687 1000 757 q 976 560 1000 617 q 904 460 951 502 q 788 395 857 419 q 628 372 719 372 l 469 372 l 469 0 l 335 0 l 335 895 l 315 895 q 186 860 226 895 q 146 763 146 826 q 149 727 146 744 q 156 699 153 710 q 158 686 158 692 q 156 673 158 679 q 149 663 154 667 q 133 656 143 658 l 57 639 q 39 700 45 671 q 32 764 32 728 q 51 859 32 817 q 106 932 69 902 q 194 979 142 963 q 315 995 247 995 l 628 995 z "},"Ʀ":{"ha":830,"x_min":127,"x_max":863,"o":"m 403 363 q 506 377 461 363 q 581 417 551 391 q 626 479 611 443 q 642 559 642 515 q 583 693 642 648 q 408 738 525 738 l 261 738 l 261 363 l 403 363 m 863 -151 l 743 -151 q 689 -122 706 -151 l 431 233 q 405 257 419 250 q 363 265 392 265 l 261 265 l 261 0 l 127 0 l 127 1006 l 261 1006 l 261 844 l 408 844 q 572 825 503 844 q 685 770 640 806 q 751 683 730 734 q 773 569 773 632 q 756 469 773 515 q 708 387 740 424 q 631 325 676 351 q 528 287 585 299 q 551 268 540 279 q 572 244 563 258 l 863 -151 z "},"Ƨ":{"ha":747,"x_min":54,"x_max":700,"o":"m 88 903 q 208 980 139 953 q 360 1006 276 1006 q 491 984 433 1006 q 588 924 549 962 q 647 838 626 887 q 667 737 667 790 q 647 627 667 672 q 593 551 626 582 q 516 499 559 519 q 428 463 473 479 q 340 431 383 447 q 263 394 297 415 q 209 342 229 373 q 188 266 188 312 q 240 143 188 186 q 384 101 292 101 q 481 116 441 101 q 550 151 522 132 q 597 185 578 169 q 629 201 615 201 q 647 195 639 201 q 661 183 656 190 l 700 119 q 564 24 644 59 q 388 -11 485 -11 q 246 10 308 -11 q 141 69 184 31 q 76 161 99 108 q 54 280 54 215 q 75 384 54 341 q 129 457 95 426 q 206 508 163 488 q 294 546 249 529 q 383 580 340 563 q 460 617 426 596 q 514 668 494 639 q 535 740 535 697 q 523 800 535 772 q 490 849 512 828 q 434 882 467 870 q 358 894 401 894 q 276 883 310 894 q 218 857 242 871 q 179 831 194 842 q 151 819 163 819 q 133 824 140 819 q 120 840 126 829 l 88 903 z "},"Ƭ":{"ha":928,"x_min":33,"x_max":908,"o":"m 908 882 l 585 882 l 585 0 l 451 0 l 451 882 l 317 882 q 238 874 270 882 q 185 852 206 867 q 156 814 165 837 q 147 761 147 791 q 150 727 147 744 q 157 699 153 710 q 157 673 160 685 q 134 656 154 661 l 58 639 q 39 700 46 671 q 33 764 33 728 q 51 859 33 817 q 106 932 70 902 q 195 979 142 963 q 317 995 249 995 l 908 995 l 908 882 z "},"Ʈ":{"ha":820,"x_min":21,"x_max":800,"o":"m 478 -35 q 505 -142 478 -103 q 590 -181 531 -181 q 630 -176 614 -181 q 656 -171 647 -171 q 672 -175 663 -171 q 684 -196 680 -180 l 697 -250 q 638 -268 667 -262 q 575 -274 610 -274 q 469 -256 513 -274 q 397 -205 425 -238 q 357 -125 369 -172 q 344 -22 344 -78 l 344 882 l 21 882 l 21 995 l 800 995 l 800 882 l 478 882 l 478 -35 z "},"Ʊ":{"ha":1122,"x_min":73,"x_max":1049,"o":"m 561 -11 q 374 22 462 -11 q 222 117 287 56 q 119 264 157 178 q 81 453 81 349 q 104 604 81 533 q 166 731 126 674 q 260 829 206 788 q 379 891 315 870 q 325 884 353 887 q 272 882 297 882 l 73 882 l 73 951 q 85 983 73 970 q 119 995 98 995 l 480 995 l 480 840 q 375 795 424 829 q 291 710 327 761 q 235 594 256 659 q 215 455 215 528 q 243 302 215 367 q 319 193 272 236 q 429 127 367 149 q 561 106 492 106 q 693 127 631 106 q 803 193 756 149 q 879 302 851 236 q 907 455 907 367 q 887 594 907 528 q 831 710 867 659 q 747 795 795 761 q 642 840 699 829 l 642 995 l 1003 995 q 1037 983 1024 995 q 1049 951 1049 970 l 1049 882 l 851 882 q 797 884 824 882 q 743 891 769 887 q 861 829 807 870 q 956 731 916 788 q 1018 604 996 674 q 1041 453 1041 533 q 1003 264 1041 349 q 900 117 965 178 q 748 22 835 56 q 561 -11 660 -11 z "},"Ʋ":{"ha":1008,"x_min":118,"x_max":942,"o":"m 585 981 q 646 1000 617 993 q 710 1006 675 1006 q 815 987 771 1006 q 887 930 859 967 q 929 836 915 892 q 942 710 942 781 q 920 514 942 607 q 858 340 898 420 q 765 195 819 260 q 649 84 712 130 q 517 13 586 38 q 378 -12 448 -12 q 270 7 318 -12 q 189 66 222 26 q 136 168 155 106 q 118 315 118 229 l 118 995 l 253 995 l 253 315 q 263 217 253 258 q 291 152 272 177 q 336 115 309 126 q 398 103 363 103 q 494 123 445 103 q 588 180 542 142 q 673 272 633 217 q 743 394 713 326 q 790 543 773 462 q 808 717 808 624 q 803 788 808 755 q 788 845 799 821 q 756 883 776 869 q 703 897 735 897 q 674 895 689 897 q 645 889 658 893 q 632 887 638 888 q 619 889 625 887 q 609 897 613 891 q 602 912 604 902 l 585 981 l 585 981 z "},"Ƴ":{"ha":1002,"x_min":1,"x_max":985,"o":"m 646 861 q 741 971 690 937 q 863 1006 792 1006 q 896 1004 881 1006 q 926 999 912 1002 q 955 991 940 996 q 985 981 969 987 l 968 915 q 951 892 963 895 q 925 892 939 889 q 899 899 914 896 q 867 903 883 903 q 807 883 833 903 q 760 828 782 864 l 500 397 l 500 0 l 365 0 l 365 397 l 1 995 l 119 995 q 147 986 137 995 q 165 964 158 978 l 393 577 q 416 532 406 553 q 433 490 426 510 q 451 532 441 511 q 474 577 461 553 l 646 861 z "},"Ƶ":{"ha":842,"x_min":40,"x_max":794,"o":"m 794 945 q 779 901 794 922 l 538 562 l 769 562 l 769 460 l 465 460 l 216 110 l 785 110 l 785 0 l 40 0 l 40 53 q 43 74 40 64 q 53 92 47 83 l 314 460 l 85 460 l 85 562 l 387 562 l 617 885 l 66 885 l 66 995 l 794 995 l 794 945 z "},"Ʒ":{"ha":815,"x_min":36,"x_max":752,"o":"m 414 613 q 568 588 504 610 q 674 528 633 566 q 733 441 715 491 q 752 335 752 392 q 721 192 752 256 q 638 83 690 128 q 515 14 585 38 q 367 -10 445 -10 q 267 0 315 -10 q 177 30 219 10 q 99 78 135 50 q 36 141 63 106 l 89 200 q 102 209 96 208 q 112 210 108 210 q 126 208 119 210 q 144 195 132 205 q 174 167 155 183 q 220 137 193 151 q 284 114 248 123 q 365 104 320 104 q 472 122 425 104 q 550 171 518 140 q 598 242 581 201 q 615 328 615 283 q 601 402 615 368 q 556 461 587 436 q 476 500 526 486 q 356 515 427 515 l 243 515 l 243 572 q 247 594 243 583 q 263 617 251 606 l 536 885 l 65 885 l 65 995 l 724 995 l 724 945 q 720 920 724 933 q 703 894 717 908 l 414 613 z "},"Ƹ":{"ha":816,"x_min":64,"x_max":779,"o":"m 779 141 q 716 78 752 106 q 639 30 681 50 q 549 0 597 10 q 449 -10 501 -10 q 301 14 371 -10 q 178 83 231 38 q 94 192 125 128 q 64 335 64 256 q 83 441 64 392 q 142 528 101 491 q 247 588 183 565 q 401 613 310 610 l 113 894 q 95 920 99 908 q 92 945 92 933 l 92 995 l 751 995 l 751 885 l 280 885 l 553 617 q 569 594 565 606 q 573 572 573 583 l 573 515 l 460 515 q 340 500 389 515 q 259 461 290 486 q 215 402 228 436 q 201 328 201 368 q 218 242 201 283 q 266 171 234 201 q 344 122 297 140 q 450 104 390 104 q 531 114 494 104 q 595 137 567 123 q 642 167 622 151 q 672 195 661 183 q 690 208 684 205 q 704 210 697 210 q 714 209 708 210 q 727 200 720 208 l 779 141 z "},"Ƽ":{"ha":799,"x_min":41,"x_max":738,"o":"m 710 941 q 694 898 710 915 q 638 881 677 881 l 342 881 l 265 625 q 325 633 296 631 q 380 636 353 636 q 537 613 470 636 q 649 549 604 590 q 716 452 694 508 q 738 330 738 397 q 709 190 738 253 q 631 82 680 127 q 516 13 581 38 q 380 -11 451 -11 q 179 29 263 -11 q 41 140 96 69 l 88 194 q 100 204 94 201 q 110 206 105 206 q 134 196 122 206 q 165 170 146 186 q 211 139 183 154 q 278 114 240 124 q 366 103 316 103 q 474 122 428 103 q 549 173 519 141 q 592 245 578 204 q 606 330 606 286 q 590 413 606 376 q 543 474 574 449 q 467 512 512 499 q 366 525 422 525 q 279 518 324 525 q 191 499 234 512 l 113 522 l 224 891 q 171 889 197 889 l 125 889 q 86 902 98 889 q 75 930 75 916 l 75 995 l 710 995 l 710 941 z "},"Ǥ":{"ha":1059,"x_min":65,"x_max":1052,"o":"m 1052 233 l 936 233 l 936 97 q 858 49 899 69 q 771 16 817 29 q 672 -5 725 2 q 558 -11 619 -11 q 359 26 449 -11 q 203 130 269 63 q 102 291 138 197 q 65 497 65 385 q 101 705 65 611 q 203 866 137 799 q 364 969 269 933 q 575 1006 458 1006 q 685 998 634 1006 q 778 973 735 989 q 858 933 822 956 q 927 881 895 910 l 889 819 q 866 802 880 806 q 834 808 851 798 q 795 832 817 818 q 743 859 774 846 q 670 881 713 872 q 570 890 628 890 q 418 862 486 890 q 302 784 350 835 q 228 660 254 733 q 203 497 203 588 q 230 329 203 403 q 305 203 256 255 q 420 125 353 152 q 567 98 487 98 q 642 102 608 98 q 705 114 676 106 q 761 132 735 121 q 814 156 788 142 l 814 233 l 656 233 q 635 241 643 233 q 627 260 627 248 l 627 327 l 814 327 l 814 417 l 656 417 q 635 424 642 417 q 627 443 627 431 l 627 512 l 936 512 l 936 327 l 1052 327 l 1052 233 z "},"Ƕ":{"ha":1477,"x_min":127,"x_max":1424,"o":"m 1115 697 q 1173 710 1143 706 q 1234 714 1203 714 q 1327 694 1290 714 q 1385 642 1364 675 q 1416 567 1407 610 q 1424 476 1424 524 q 1394 264 1424 355 q 1313 111 1363 172 q 1198 20 1263 51 q 1065 -10 1133 -10 q 961 6 1010 -10 q 877 57 913 22 q 819 148 840 92 q 799 284 799 203 l 799 453 l 262 453 l 262 0 l 127 0 l 127 995 l 262 995 l 262 551 l 799 551 l 799 995 l 933 995 l 933 284 q 968 138 933 185 q 1067 90 1003 90 q 1156 113 1114 90 q 1229 183 1197 136 q 1279 302 1260 231 q 1297 471 1297 374 q 1276 576 1297 540 q 1202 611 1254 611 q 1171 607 1185 611 q 1150 603 1158 603 q 1125 627 1129 603 l 1115 697 z "},"Ƿ":{"ha":974,"x_min":127,"x_max":915,"o":"m 261 102 q 483 215 387 155 q 645 344 580 275 q 745 492 711 413 q 778 663 778 571 q 763 757 778 715 q 719 828 747 799 q 650 874 690 858 q 560 890 610 890 q 474 878 515 890 q 396 844 433 866 q 325 791 359 822 q 261 723 291 760 l 261 102 m 259 852 q 339 922 299 893 q 418 970 378 951 q 500 997 458 988 q 588 1005 542 1005 q 725 977 665 1005 q 828 903 786 949 q 892 796 870 856 q 915 671 915 735 q 869 457 915 557 q 738 271 823 358 q 532 111 653 185 q 261 -25 411 37 l 261 -239 l 127 -239 l 127 1001 l 224 1001 q 246 990 235 1001 q 257 963 256 979 l 259 852 z "}}}
